%TF.GenerationSoftware,KiCad,Pcbnew,(6.0.6)*%
%TF.CreationDate,2023-01-26T13:39:55-05:00*%
%TF.ProjectId,TURFIO_RACK_Flex_PCB_Breakout,54555246-494f-45f5-9241-434b5f466c65,rev?*%
%TF.SameCoordinates,Original*%
%TF.FileFunction,Legend,Top*%
%TF.FilePolarity,Positive*%
%FSLAX46Y46*%
G04 Gerber Fmt 4.6, Leading zero omitted, Abs format (unit mm)*
G04 Created by KiCad (PCBNEW (6.0.6)) date 2023-01-26 13:39:55*
%MOMM*%
%LPD*%
G01*
G04 APERTURE LIST*
%ADD10C,0.125000*%
%ADD11C,0.150000*%
%ADD12C,0.120000*%
G04 APERTURE END LIST*
D10*
X102607619Y-98636190D02*
X102893333Y-98636190D01*
X102750476Y-99136190D02*
X102750476Y-98636190D01*
X102988571Y-98636190D02*
X103274285Y-98636190D01*
X103131428Y-99136190D02*
X103131428Y-98636190D01*
X103440952Y-99136190D02*
X103440952Y-98636190D01*
X103560000Y-98636190D01*
X103631428Y-98660000D01*
X103679047Y-98707619D01*
X103702857Y-98755238D01*
X103726666Y-98850476D01*
X103726666Y-98921904D01*
X103702857Y-99017142D01*
X103679047Y-99064761D01*
X103631428Y-99112380D01*
X103560000Y-99136190D01*
X103440952Y-99136190D01*
X103940952Y-99136190D02*
X103940952Y-98636190D01*
D11*
X105328571Y-110442380D02*
X104852380Y-110442380D01*
X104852380Y-109442380D01*
X105661904Y-110442380D02*
X105661904Y-109775714D01*
X105661904Y-109442380D02*
X105614285Y-109490000D01*
X105661904Y-109537619D01*
X105709523Y-109490000D01*
X105661904Y-109442380D01*
X105661904Y-109537619D01*
X106138095Y-109775714D02*
X106138095Y-110442380D01*
X106138095Y-109870952D02*
X106185714Y-109823333D01*
X106280952Y-109775714D01*
X106423809Y-109775714D01*
X106519047Y-109823333D01*
X106566666Y-109918571D01*
X106566666Y-110442380D01*
X106900000Y-109775714D02*
X107280952Y-109775714D01*
X107042857Y-109442380D02*
X107042857Y-110299523D01*
X107090476Y-110394761D01*
X107185714Y-110442380D01*
X107280952Y-110442380D01*
X107757142Y-110442380D02*
X107661904Y-110394761D01*
X107614285Y-110347142D01*
X107566666Y-110251904D01*
X107566666Y-109966190D01*
X107614285Y-109870952D01*
X107661904Y-109823333D01*
X107757142Y-109775714D01*
X107900000Y-109775714D01*
X107995238Y-109823333D01*
X108042857Y-109870952D01*
X108090476Y-109966190D01*
X108090476Y-110251904D01*
X108042857Y-110347142D01*
X107995238Y-110394761D01*
X107900000Y-110442380D01*
X107757142Y-110442380D01*
X108519047Y-109775714D02*
X108519047Y-110442380D01*
X108519047Y-109870952D02*
X108566666Y-109823333D01*
X108661904Y-109775714D01*
X108804761Y-109775714D01*
X108900000Y-109823333D01*
X108947619Y-109918571D01*
X108947619Y-110442380D01*
X105804761Y-111052380D02*
X105995238Y-111052380D01*
X106090476Y-111100000D01*
X106185714Y-111195238D01*
X106233333Y-111385714D01*
X106233333Y-111719047D01*
X106185714Y-111909523D01*
X106090476Y-112004761D01*
X105995238Y-112052380D01*
X105804761Y-112052380D01*
X105709523Y-112004761D01*
X105614285Y-111909523D01*
X105566666Y-111719047D01*
X105566666Y-111385714D01*
X105614285Y-111195238D01*
X105709523Y-111100000D01*
X105804761Y-111052380D01*
X106614285Y-112004761D02*
X106757142Y-112052380D01*
X106995238Y-112052380D01*
X107090476Y-112004761D01*
X107138095Y-111957142D01*
X107185714Y-111861904D01*
X107185714Y-111766666D01*
X107138095Y-111671428D01*
X107090476Y-111623809D01*
X106995238Y-111576190D01*
X106804761Y-111528571D01*
X106709523Y-111480952D01*
X106661904Y-111433333D01*
X106614285Y-111338095D01*
X106614285Y-111242857D01*
X106661904Y-111147619D01*
X106709523Y-111100000D01*
X106804761Y-111052380D01*
X107042857Y-111052380D01*
X107185714Y-111100000D01*
X107614285Y-111052380D02*
X107614285Y-111861904D01*
X107661904Y-111957142D01*
X107709523Y-112004761D01*
X107804761Y-112052380D01*
X107995238Y-112052380D01*
X108090476Y-112004761D01*
X108138095Y-111957142D01*
X108185714Y-111861904D01*
X108185714Y-111052380D01*
X104233333Y-113662380D02*
X103661904Y-113662380D01*
X103947619Y-113662380D02*
X103947619Y-112662380D01*
X103852380Y-112805238D01*
X103757142Y-112900476D01*
X103661904Y-112948095D01*
X105376190Y-112614761D02*
X104519047Y-113900476D01*
X105661904Y-112757619D02*
X105709523Y-112710000D01*
X105804761Y-112662380D01*
X106042857Y-112662380D01*
X106138095Y-112710000D01*
X106185714Y-112757619D01*
X106233333Y-112852857D01*
X106233333Y-112948095D01*
X106185714Y-113090952D01*
X105614285Y-113662380D01*
X106233333Y-113662380D01*
X107090476Y-112662380D02*
X106900000Y-112662380D01*
X106804761Y-112710000D01*
X106757142Y-112757619D01*
X106661904Y-112900476D01*
X106614285Y-113090952D01*
X106614285Y-113471904D01*
X106661904Y-113567142D01*
X106709523Y-113614761D01*
X106804761Y-113662380D01*
X106995238Y-113662380D01*
X107090476Y-113614761D01*
X107138095Y-113567142D01*
X107185714Y-113471904D01*
X107185714Y-113233809D01*
X107138095Y-113138571D01*
X107090476Y-113090952D01*
X106995238Y-113043333D01*
X106804761Y-113043333D01*
X106709523Y-113090952D01*
X106661904Y-113138571D01*
X106614285Y-113233809D01*
X108328571Y-112614761D02*
X107471428Y-113900476D01*
X108614285Y-112757619D02*
X108661904Y-112710000D01*
X108757142Y-112662380D01*
X108995238Y-112662380D01*
X109090476Y-112710000D01*
X109138095Y-112757619D01*
X109185714Y-112852857D01*
X109185714Y-112948095D01*
X109138095Y-113090952D01*
X108566666Y-113662380D01*
X109185714Y-113662380D01*
X109519047Y-112662380D02*
X110138095Y-112662380D01*
X109804761Y-113043333D01*
X109947619Y-113043333D01*
X110042857Y-113090952D01*
X110090476Y-113138571D01*
X110138095Y-113233809D01*
X110138095Y-113471904D01*
X110090476Y-113567142D01*
X110042857Y-113614761D01*
X109947619Y-113662380D01*
X109661904Y-113662380D01*
X109566666Y-113614761D01*
X109519047Y-113567142D01*
D10*
X102482857Y-102796190D02*
X102768571Y-102796190D01*
X102625714Y-103296190D02*
X102625714Y-102796190D01*
X102863809Y-102796190D02*
X103149523Y-102796190D01*
X103006666Y-103296190D02*
X103006666Y-102796190D01*
X103316190Y-103296190D02*
X103316190Y-102796190D01*
X103482857Y-103153333D01*
X103649523Y-102796190D01*
X103649523Y-103296190D01*
X103863809Y-103272380D02*
X103935238Y-103296190D01*
X104054285Y-103296190D01*
X104101904Y-103272380D01*
X104125714Y-103248571D01*
X104149523Y-103200952D01*
X104149523Y-103153333D01*
X104125714Y-103105714D01*
X104101904Y-103081904D01*
X104054285Y-103058095D01*
X103959047Y-103034285D01*
X103911428Y-103010476D01*
X103887619Y-102986666D01*
X103863809Y-102939047D01*
X103863809Y-102891428D01*
X103887619Y-102843809D01*
X103911428Y-102820000D01*
X103959047Y-102796190D01*
X104078095Y-102796190D01*
X104149523Y-102820000D01*
X102506666Y-100726190D02*
X102792380Y-100726190D01*
X102649523Y-101226190D02*
X102649523Y-100726190D01*
X102887619Y-100726190D02*
X103173333Y-100726190D01*
X103030476Y-101226190D02*
X103030476Y-100726190D01*
X103625714Y-101178571D02*
X103601904Y-101202380D01*
X103530476Y-101226190D01*
X103482857Y-101226190D01*
X103411428Y-101202380D01*
X103363809Y-101154761D01*
X103340000Y-101107142D01*
X103316190Y-101011904D01*
X103316190Y-100940476D01*
X103340000Y-100845238D01*
X103363809Y-100797619D01*
X103411428Y-100750000D01*
X103482857Y-100726190D01*
X103530476Y-100726190D01*
X103601904Y-100750000D01*
X103625714Y-100773809D01*
X103840000Y-101226190D02*
X103840000Y-100726190D01*
X104125714Y-101226190D02*
X103911428Y-100940476D01*
X104125714Y-100726190D02*
X103840000Y-101011904D01*
D11*
X84027619Y-53622380D02*
X84599047Y-53622380D01*
X84313333Y-54622380D02*
X84313333Y-53622380D01*
X84932380Y-53622380D02*
X84932380Y-54431904D01*
X84980000Y-54527142D01*
X85027619Y-54574761D01*
X85122857Y-54622380D01*
X85313333Y-54622380D01*
X85408571Y-54574761D01*
X85456190Y-54527142D01*
X85503809Y-54431904D01*
X85503809Y-53622380D01*
X86551428Y-54622380D02*
X86218095Y-54146190D01*
X85980000Y-54622380D02*
X85980000Y-53622380D01*
X86360952Y-53622380D01*
X86456190Y-53670000D01*
X86503809Y-53717619D01*
X86551428Y-53812857D01*
X86551428Y-53955714D01*
X86503809Y-54050952D01*
X86456190Y-54098571D01*
X86360952Y-54146190D01*
X85980000Y-54146190D01*
X87313333Y-54098571D02*
X86980000Y-54098571D01*
X86980000Y-54622380D02*
X86980000Y-53622380D01*
X87456190Y-53622380D01*
X87837142Y-54622380D02*
X87837142Y-53622380D01*
X88503809Y-53622380D02*
X88694285Y-53622380D01*
X88789523Y-53670000D01*
X88884761Y-53765238D01*
X88932380Y-53955714D01*
X88932380Y-54289047D01*
X88884761Y-54479523D01*
X88789523Y-54574761D01*
X88694285Y-54622380D01*
X88503809Y-54622380D01*
X88408571Y-54574761D01*
X88313333Y-54479523D01*
X88265714Y-54289047D01*
X88265714Y-53955714D01*
X88313333Y-53765238D01*
X88408571Y-53670000D01*
X88503809Y-53622380D01*
X90075238Y-53574761D02*
X89218095Y-54860476D01*
X90980000Y-54622380D02*
X90646666Y-54146190D01*
X90408571Y-54622380D02*
X90408571Y-53622380D01*
X90789523Y-53622380D01*
X90884761Y-53670000D01*
X90932380Y-53717619D01*
X90980000Y-53812857D01*
X90980000Y-53955714D01*
X90932380Y-54050952D01*
X90884761Y-54098571D01*
X90789523Y-54146190D01*
X90408571Y-54146190D01*
X91360952Y-54336666D02*
X91837142Y-54336666D01*
X91265714Y-54622380D02*
X91599047Y-53622380D01*
X91932380Y-54622380D01*
X92837142Y-54527142D02*
X92789523Y-54574761D01*
X92646666Y-54622380D01*
X92551428Y-54622380D01*
X92408571Y-54574761D01*
X92313333Y-54479523D01*
X92265714Y-54384285D01*
X92218095Y-54193809D01*
X92218095Y-54050952D01*
X92265714Y-53860476D01*
X92313333Y-53765238D01*
X92408571Y-53670000D01*
X92551428Y-53622380D01*
X92646666Y-53622380D01*
X92789523Y-53670000D01*
X92837142Y-53717619D01*
X93265714Y-54622380D02*
X93265714Y-53622380D01*
X93837142Y-54622380D02*
X93408571Y-54050952D01*
X93837142Y-53622380D02*
X93265714Y-54193809D01*
X95360952Y-54098571D02*
X95027619Y-54098571D01*
X95027619Y-54622380D02*
X95027619Y-53622380D01*
X95503809Y-53622380D01*
X96027619Y-54622380D02*
X95932380Y-54574761D01*
X95884761Y-54479523D01*
X95884761Y-53622380D01*
X96789523Y-54574761D02*
X96694285Y-54622380D01*
X96503809Y-54622380D01*
X96408571Y-54574761D01*
X96360952Y-54479523D01*
X96360952Y-54098571D01*
X96408571Y-54003333D01*
X96503809Y-53955714D01*
X96694285Y-53955714D01*
X96789523Y-54003333D01*
X96837142Y-54098571D01*
X96837142Y-54193809D01*
X96360952Y-54289047D01*
X97170476Y-54622380D02*
X97694285Y-53955714D01*
X97170476Y-53955714D02*
X97694285Y-54622380D01*
X98837142Y-54622380D02*
X98837142Y-53622380D01*
X99218095Y-53622380D01*
X99313333Y-53670000D01*
X99360952Y-53717619D01*
X99408571Y-53812857D01*
X99408571Y-53955714D01*
X99360952Y-54050952D01*
X99313333Y-54098571D01*
X99218095Y-54146190D01*
X98837142Y-54146190D01*
X100408571Y-54527142D02*
X100360952Y-54574761D01*
X100218095Y-54622380D01*
X100122857Y-54622380D01*
X99980000Y-54574761D01*
X99884761Y-54479523D01*
X99837142Y-54384285D01*
X99789523Y-54193809D01*
X99789523Y-54050952D01*
X99837142Y-53860476D01*
X99884761Y-53765238D01*
X99980000Y-53670000D01*
X100122857Y-53622380D01*
X100218095Y-53622380D01*
X100360952Y-53670000D01*
X100408571Y-53717619D01*
X101170476Y-54098571D02*
X101313333Y-54146190D01*
X101360952Y-54193809D01*
X101408571Y-54289047D01*
X101408571Y-54431904D01*
X101360952Y-54527142D01*
X101313333Y-54574761D01*
X101218095Y-54622380D01*
X100837142Y-54622380D01*
X100837142Y-53622380D01*
X101170476Y-53622380D01*
X101265714Y-53670000D01*
X101313333Y-53717619D01*
X101360952Y-53812857D01*
X101360952Y-53908095D01*
X101313333Y-54003333D01*
X101265714Y-54050952D01*
X101170476Y-54098571D01*
X100837142Y-54098571D01*
X102932380Y-54098571D02*
X103075238Y-54146190D01*
X103122857Y-54193809D01*
X103170476Y-54289047D01*
X103170476Y-54431904D01*
X103122857Y-54527142D01*
X103075238Y-54574761D01*
X102980000Y-54622380D01*
X102599047Y-54622380D01*
X102599047Y-53622380D01*
X102932380Y-53622380D01*
X103027619Y-53670000D01*
X103075238Y-53717619D01*
X103122857Y-53812857D01*
X103122857Y-53908095D01*
X103075238Y-54003333D01*
X103027619Y-54050952D01*
X102932380Y-54098571D01*
X102599047Y-54098571D01*
X103599047Y-54622380D02*
X103599047Y-53955714D01*
X103599047Y-54146190D02*
X103646666Y-54050952D01*
X103694285Y-54003333D01*
X103789523Y-53955714D01*
X103884761Y-53955714D01*
X104599047Y-54574761D02*
X104503809Y-54622380D01*
X104313333Y-54622380D01*
X104218095Y-54574761D01*
X104170476Y-54479523D01*
X104170476Y-54098571D01*
X104218095Y-54003333D01*
X104313333Y-53955714D01*
X104503809Y-53955714D01*
X104599047Y-54003333D01*
X104646666Y-54098571D01*
X104646666Y-54193809D01*
X104170476Y-54289047D01*
X105503809Y-54622380D02*
X105503809Y-54098571D01*
X105456190Y-54003333D01*
X105360952Y-53955714D01*
X105170476Y-53955714D01*
X105075238Y-54003333D01*
X105503809Y-54574761D02*
X105408571Y-54622380D01*
X105170476Y-54622380D01*
X105075238Y-54574761D01*
X105027619Y-54479523D01*
X105027619Y-54384285D01*
X105075238Y-54289047D01*
X105170476Y-54241428D01*
X105408571Y-54241428D01*
X105503809Y-54193809D01*
X105980000Y-54622380D02*
X105980000Y-53622380D01*
X106075238Y-54241428D02*
X106360952Y-54622380D01*
X106360952Y-53955714D02*
X105980000Y-54336666D01*
X106932380Y-54622380D02*
X106837142Y-54574761D01*
X106789523Y-54527142D01*
X106741904Y-54431904D01*
X106741904Y-54146190D01*
X106789523Y-54050952D01*
X106837142Y-54003333D01*
X106932380Y-53955714D01*
X107075238Y-53955714D01*
X107170476Y-54003333D01*
X107218095Y-54050952D01*
X107265714Y-54146190D01*
X107265714Y-54431904D01*
X107218095Y-54527142D01*
X107170476Y-54574761D01*
X107075238Y-54622380D01*
X106932380Y-54622380D01*
X108122857Y-53955714D02*
X108122857Y-54622380D01*
X107694285Y-53955714D02*
X107694285Y-54479523D01*
X107741904Y-54574761D01*
X107837142Y-54622380D01*
X107980000Y-54622380D01*
X108075238Y-54574761D01*
X108122857Y-54527142D01*
X108456190Y-53955714D02*
X108837142Y-53955714D01*
X108599047Y-53622380D02*
X108599047Y-54479523D01*
X108646666Y-54574761D01*
X108741904Y-54622380D01*
X108837142Y-54622380D01*
X110265714Y-54098571D02*
X110408571Y-54146190D01*
X110456190Y-54193809D01*
X110503809Y-54289047D01*
X110503809Y-54431904D01*
X110456190Y-54527142D01*
X110408571Y-54574761D01*
X110313333Y-54622380D01*
X109932380Y-54622380D01*
X109932380Y-53622380D01*
X110265714Y-53622380D01*
X110360952Y-53670000D01*
X110408571Y-53717619D01*
X110456190Y-53812857D01*
X110456190Y-53908095D01*
X110408571Y-54003333D01*
X110360952Y-54050952D01*
X110265714Y-54098571D01*
X109932380Y-54098571D01*
X111075238Y-54622380D02*
X110980000Y-54574761D01*
X110932380Y-54527142D01*
X110884761Y-54431904D01*
X110884761Y-54146190D01*
X110932380Y-54050952D01*
X110980000Y-54003333D01*
X111075238Y-53955714D01*
X111218095Y-53955714D01*
X111313333Y-54003333D01*
X111360952Y-54050952D01*
X111408571Y-54146190D01*
X111408571Y-54431904D01*
X111360952Y-54527142D01*
X111313333Y-54574761D01*
X111218095Y-54622380D01*
X111075238Y-54622380D01*
X112265714Y-54622380D02*
X112265714Y-54098571D01*
X112218095Y-54003333D01*
X112122857Y-53955714D01*
X111932380Y-53955714D01*
X111837142Y-54003333D01*
X112265714Y-54574761D02*
X112170476Y-54622380D01*
X111932380Y-54622380D01*
X111837142Y-54574761D01*
X111789523Y-54479523D01*
X111789523Y-54384285D01*
X111837142Y-54289047D01*
X111932380Y-54241428D01*
X112170476Y-54241428D01*
X112265714Y-54193809D01*
X112741904Y-54622380D02*
X112741904Y-53955714D01*
X112741904Y-54146190D02*
X112789523Y-54050952D01*
X112837142Y-54003333D01*
X112932380Y-53955714D01*
X113027619Y-53955714D01*
X113789523Y-54622380D02*
X113789523Y-53622380D01*
X113789523Y-54574761D02*
X113694285Y-54622380D01*
X113503809Y-54622380D01*
X113408571Y-54574761D01*
X113360952Y-54527142D01*
X113313333Y-54431904D01*
X113313333Y-54146190D01*
X113360952Y-54050952D01*
X113408571Y-54003333D01*
X113503809Y-53955714D01*
X113694285Y-53955714D01*
X113789523Y-54003333D01*
D10*
X102524761Y-96606190D02*
X102810476Y-96606190D01*
X102667619Y-97106190D02*
X102667619Y-96606190D01*
X102905714Y-96606190D02*
X103191428Y-96606190D01*
X103048571Y-97106190D02*
X103048571Y-96606190D01*
X103358095Y-97106190D02*
X103358095Y-96606190D01*
X103477142Y-96606190D01*
X103548571Y-96630000D01*
X103596190Y-96677619D01*
X103620000Y-96725238D01*
X103643809Y-96820476D01*
X103643809Y-96891904D01*
X103620000Y-96987142D01*
X103596190Y-97034761D01*
X103548571Y-97082380D01*
X103477142Y-97106190D01*
X103358095Y-97106190D01*
X103953333Y-96606190D02*
X104048571Y-96606190D01*
X104096190Y-96630000D01*
X104143809Y-96677619D01*
X104167619Y-96772857D01*
X104167619Y-96939523D01*
X104143809Y-97034761D01*
X104096190Y-97082380D01*
X104048571Y-97106190D01*
X103953333Y-97106190D01*
X103905714Y-97082380D01*
X103858095Y-97034761D01*
X103834285Y-96939523D01*
X103834285Y-96772857D01*
X103858095Y-96677619D01*
X103905714Y-96630000D01*
X103953333Y-96606190D01*
X102155714Y-92286190D02*
X102441428Y-92286190D01*
X102298571Y-92786190D02*
X102298571Y-92286190D01*
X102536666Y-92595714D02*
X102560476Y-92571904D01*
X102608095Y-92548095D01*
X102703333Y-92595714D01*
X102750952Y-92571904D01*
X102774761Y-92548095D01*
X103250952Y-92738571D02*
X103227142Y-92762380D01*
X103155714Y-92786190D01*
X103108095Y-92786190D01*
X103036666Y-92762380D01*
X102989047Y-92714761D01*
X102965238Y-92667142D01*
X102941428Y-92571904D01*
X102941428Y-92500476D01*
X102965238Y-92405238D01*
X102989047Y-92357619D01*
X103036666Y-92310000D01*
X103108095Y-92286190D01*
X103155714Y-92286190D01*
X103227142Y-92310000D01*
X103250952Y-92333809D01*
X103393809Y-92286190D02*
X103679523Y-92286190D01*
X103536666Y-92786190D02*
X103536666Y-92286190D01*
X104131904Y-92786190D02*
X103965238Y-92548095D01*
X103846190Y-92786190D02*
X103846190Y-92286190D01*
X104036666Y-92286190D01*
X104084285Y-92310000D01*
X104108095Y-92333809D01*
X104131904Y-92381428D01*
X104131904Y-92452857D01*
X104108095Y-92500476D01*
X104084285Y-92524285D01*
X104036666Y-92548095D01*
X103846190Y-92548095D01*
X104584285Y-92786190D02*
X104346190Y-92786190D01*
X104346190Y-92286190D01*
D11*
%TO.C,J1*%
X90866666Y-56152380D02*
X90866666Y-56866666D01*
X90819047Y-57009523D01*
X90723809Y-57104761D01*
X90580952Y-57152380D01*
X90485714Y-57152380D01*
X91866666Y-57152380D02*
X91295238Y-57152380D01*
X91580952Y-57152380D02*
X91580952Y-56152380D01*
X91485714Y-56295238D01*
X91390476Y-56390476D01*
X91295238Y-56438095D01*
X91504761Y-85752380D02*
X91552380Y-85847619D01*
X91552380Y-86038095D01*
X91504761Y-86133333D01*
X91457142Y-86180952D01*
X91361904Y-86228571D01*
X91076190Y-86228571D01*
X90980952Y-86180952D01*
X90933333Y-86133333D01*
X90885714Y-86038095D01*
X90885714Y-85847619D01*
X90933333Y-85752380D01*
X91552380Y-85180952D02*
X91504761Y-85276190D01*
X91457142Y-85323809D01*
X91361904Y-85371428D01*
X91076190Y-85371428D01*
X90980952Y-85323809D01*
X90933333Y-85276190D01*
X90885714Y-85180952D01*
X90885714Y-85038095D01*
X90933333Y-84942857D01*
X90980952Y-84895238D01*
X91076190Y-84847619D01*
X91361904Y-84847619D01*
X91457142Y-84895238D01*
X91504761Y-84942857D01*
X91552380Y-85038095D01*
X91552380Y-85180952D01*
X90885714Y-84419047D02*
X91552380Y-84419047D01*
X90980952Y-84419047D02*
X90933333Y-84371428D01*
X90885714Y-84276190D01*
X90885714Y-84133333D01*
X90933333Y-84038095D01*
X91028571Y-83990476D01*
X91552380Y-83990476D01*
X90885714Y-83514285D02*
X91552380Y-83514285D01*
X90980952Y-83514285D02*
X90933333Y-83466666D01*
X90885714Y-83371428D01*
X90885714Y-83228571D01*
X90933333Y-83133333D01*
X91028571Y-83085714D01*
X91552380Y-83085714D01*
X91647619Y-82847619D02*
X91647619Y-82085714D01*
X91552380Y-81323809D02*
X91552380Y-81895238D01*
X91552380Y-81609523D02*
X90552380Y-81609523D01*
X90695238Y-81704761D01*
X90790476Y-81800000D01*
X90838095Y-81895238D01*
X90552380Y-80704761D02*
X90552380Y-80609523D01*
X90600000Y-80514285D01*
X90647619Y-80466666D01*
X90742857Y-80419047D01*
X90933333Y-80371428D01*
X91171428Y-80371428D01*
X91361904Y-80419047D01*
X91457142Y-80466666D01*
X91504761Y-80514285D01*
X91552380Y-80609523D01*
X91552380Y-80704761D01*
X91504761Y-80800000D01*
X91457142Y-80847619D01*
X91361904Y-80895238D01*
X91171428Y-80942857D01*
X90933333Y-80942857D01*
X90742857Y-80895238D01*
X90647619Y-80847619D01*
X90600000Y-80800000D01*
X90552380Y-80704761D01*
X90552380Y-79752380D02*
X90552380Y-79657142D01*
X90600000Y-79561904D01*
X90647619Y-79514285D01*
X90742857Y-79466666D01*
X90933333Y-79419047D01*
X91171428Y-79419047D01*
X91361904Y-79466666D01*
X91457142Y-79514285D01*
X91504761Y-79561904D01*
X91552380Y-79657142D01*
X91552380Y-79752380D01*
X91504761Y-79847619D01*
X91457142Y-79895238D01*
X91361904Y-79942857D01*
X91171428Y-79990476D01*
X90933333Y-79990476D01*
X90742857Y-79942857D01*
X90647619Y-79895238D01*
X90600000Y-79847619D01*
X90552380Y-79752380D01*
X90885714Y-78990476D02*
X91885714Y-78990476D01*
X90933333Y-78990476D02*
X90885714Y-78895238D01*
X90885714Y-78704761D01*
X90933333Y-78609523D01*
X90980952Y-78561904D01*
X91076190Y-78514285D01*
X91361904Y-78514285D01*
X91457142Y-78561904D01*
X91504761Y-78609523D01*
X91552380Y-78704761D01*
X91552380Y-78895238D01*
X91504761Y-78990476D01*
X91552380Y-78085714D02*
X90885714Y-78085714D01*
X90552380Y-78085714D02*
X90600000Y-78133333D01*
X90647619Y-78085714D01*
X90600000Y-78038095D01*
X90552380Y-78085714D01*
X90647619Y-78085714D01*
X90885714Y-77609523D02*
X91552380Y-77609523D01*
X90980952Y-77609523D02*
X90933333Y-77561904D01*
X90885714Y-77466666D01*
X90885714Y-77323809D01*
X90933333Y-77228571D01*
X91028571Y-77180952D01*
X91552380Y-77180952D01*
X91647619Y-76942857D02*
X91647619Y-76180952D01*
X90885714Y-75514285D02*
X91552380Y-75514285D01*
X90504761Y-75752380D02*
X91219047Y-75990476D01*
X91219047Y-75371428D01*
X91552380Y-74990476D02*
X90552380Y-74990476D01*
X90552380Y-74609523D01*
X90600000Y-74514285D01*
X90647619Y-74466666D01*
X90742857Y-74419047D01*
X90885714Y-74419047D01*
X90980952Y-74466666D01*
X91028571Y-74514285D01*
X91076190Y-74609523D01*
X91076190Y-74990476D01*
X90552380Y-74085714D02*
X91552380Y-73847619D01*
X90838095Y-73657142D01*
X91552380Y-73466666D01*
X90552380Y-73228571D01*
X91552380Y-72276190D02*
X91076190Y-72609523D01*
X91552380Y-72847619D02*
X90552380Y-72847619D01*
X90552380Y-72466666D01*
X90600000Y-72371428D01*
X90647619Y-72323809D01*
X90742857Y-72276190D01*
X90885714Y-72276190D01*
X90980952Y-72323809D01*
X91028571Y-72371428D01*
X91076190Y-72466666D01*
X91076190Y-72847619D01*
X91647619Y-72085714D02*
X91647619Y-71323809D01*
X90885714Y-70657142D02*
X91552380Y-70657142D01*
X90504761Y-70895238D02*
X91219047Y-71133333D01*
X91219047Y-70514285D01*
X91552380Y-70133333D02*
X90552380Y-70133333D01*
X91266666Y-69800000D01*
X90552380Y-69466666D01*
X91552380Y-69466666D01*
X91552380Y-68990476D02*
X90552380Y-68990476D01*
X91028571Y-68990476D02*
X91028571Y-68419047D01*
X91552380Y-68419047D02*
X90552380Y-68419047D01*
X89852380Y-56200000D02*
X90090476Y-56200000D01*
X89995238Y-56438095D02*
X90090476Y-56200000D01*
X89995238Y-55961904D01*
X90280952Y-56342857D02*
X90090476Y-56200000D01*
X90280952Y-56057142D01*
%TO.C,J2*%
X90866666Y-100952380D02*
X90866666Y-101666666D01*
X90819047Y-101809523D01*
X90723809Y-101904761D01*
X90580952Y-101952380D01*
X90485714Y-101952380D01*
X91295238Y-101047619D02*
X91342857Y-101000000D01*
X91438095Y-100952380D01*
X91676190Y-100952380D01*
X91771428Y-101000000D01*
X91819047Y-101047619D01*
X91866666Y-101142857D01*
X91866666Y-101238095D01*
X91819047Y-101380952D01*
X91247619Y-101952380D01*
X91866666Y-101952380D01*
X91904761Y-130152380D02*
X91952380Y-130247619D01*
X91952380Y-130438095D01*
X91904761Y-130533333D01*
X91857142Y-130580952D01*
X91761904Y-130628571D01*
X91476190Y-130628571D01*
X91380952Y-130580952D01*
X91333333Y-130533333D01*
X91285714Y-130438095D01*
X91285714Y-130247619D01*
X91333333Y-130152380D01*
X91952380Y-129580952D02*
X91904761Y-129676190D01*
X91857142Y-129723809D01*
X91761904Y-129771428D01*
X91476190Y-129771428D01*
X91380952Y-129723809D01*
X91333333Y-129676190D01*
X91285714Y-129580952D01*
X91285714Y-129438095D01*
X91333333Y-129342857D01*
X91380952Y-129295238D01*
X91476190Y-129247619D01*
X91761904Y-129247619D01*
X91857142Y-129295238D01*
X91904761Y-129342857D01*
X91952380Y-129438095D01*
X91952380Y-129580952D01*
X91285714Y-128819047D02*
X91952380Y-128819047D01*
X91380952Y-128819047D02*
X91333333Y-128771428D01*
X91285714Y-128676190D01*
X91285714Y-128533333D01*
X91333333Y-128438095D01*
X91428571Y-128390476D01*
X91952380Y-128390476D01*
X91285714Y-127914285D02*
X91952380Y-127914285D01*
X91380952Y-127914285D02*
X91333333Y-127866666D01*
X91285714Y-127771428D01*
X91285714Y-127628571D01*
X91333333Y-127533333D01*
X91428571Y-127485714D01*
X91952380Y-127485714D01*
X92047619Y-127247619D02*
X92047619Y-126485714D01*
X91952380Y-125723809D02*
X91952380Y-126295238D01*
X91952380Y-126009523D02*
X90952380Y-126009523D01*
X91095238Y-126104761D01*
X91190476Y-126200000D01*
X91238095Y-126295238D01*
X90952380Y-125104761D02*
X90952380Y-125009523D01*
X91000000Y-124914285D01*
X91047619Y-124866666D01*
X91142857Y-124819047D01*
X91333333Y-124771428D01*
X91571428Y-124771428D01*
X91761904Y-124819047D01*
X91857142Y-124866666D01*
X91904761Y-124914285D01*
X91952380Y-125009523D01*
X91952380Y-125104761D01*
X91904761Y-125200000D01*
X91857142Y-125247619D01*
X91761904Y-125295238D01*
X91571428Y-125342857D01*
X91333333Y-125342857D01*
X91142857Y-125295238D01*
X91047619Y-125247619D01*
X91000000Y-125200000D01*
X90952380Y-125104761D01*
X90952380Y-124152380D02*
X90952380Y-124057142D01*
X91000000Y-123961904D01*
X91047619Y-123914285D01*
X91142857Y-123866666D01*
X91333333Y-123819047D01*
X91571428Y-123819047D01*
X91761904Y-123866666D01*
X91857142Y-123914285D01*
X91904761Y-123961904D01*
X91952380Y-124057142D01*
X91952380Y-124152380D01*
X91904761Y-124247619D01*
X91857142Y-124295238D01*
X91761904Y-124342857D01*
X91571428Y-124390476D01*
X91333333Y-124390476D01*
X91142857Y-124342857D01*
X91047619Y-124295238D01*
X91000000Y-124247619D01*
X90952380Y-124152380D01*
X91285714Y-123390476D02*
X92285714Y-123390476D01*
X91333333Y-123390476D02*
X91285714Y-123295238D01*
X91285714Y-123104761D01*
X91333333Y-123009523D01*
X91380952Y-122961904D01*
X91476190Y-122914285D01*
X91761904Y-122914285D01*
X91857142Y-122961904D01*
X91904761Y-123009523D01*
X91952380Y-123104761D01*
X91952380Y-123295238D01*
X91904761Y-123390476D01*
X91952380Y-122485714D02*
X91285714Y-122485714D01*
X90952380Y-122485714D02*
X91000000Y-122533333D01*
X91047619Y-122485714D01*
X91000000Y-122438095D01*
X90952380Y-122485714D01*
X91047619Y-122485714D01*
X91285714Y-122009523D02*
X91952380Y-122009523D01*
X91380952Y-122009523D02*
X91333333Y-121961904D01*
X91285714Y-121866666D01*
X91285714Y-121723809D01*
X91333333Y-121628571D01*
X91428571Y-121580952D01*
X91952380Y-121580952D01*
X92047619Y-121342857D02*
X92047619Y-120580952D01*
X91285714Y-119914285D02*
X91952380Y-119914285D01*
X90904761Y-120152380D02*
X91619047Y-120390476D01*
X91619047Y-119771428D01*
X91952380Y-119390476D02*
X90952380Y-119390476D01*
X90952380Y-119009523D01*
X91000000Y-118914285D01*
X91047619Y-118866666D01*
X91142857Y-118819047D01*
X91285714Y-118819047D01*
X91380952Y-118866666D01*
X91428571Y-118914285D01*
X91476190Y-119009523D01*
X91476190Y-119390476D01*
X90952380Y-118485714D02*
X91952380Y-118247619D01*
X91238095Y-118057142D01*
X91952380Y-117866666D01*
X90952380Y-117628571D01*
X91952380Y-116676190D02*
X91476190Y-117009523D01*
X91952380Y-117247619D02*
X90952380Y-117247619D01*
X90952380Y-116866666D01*
X91000000Y-116771428D01*
X91047619Y-116723809D01*
X91142857Y-116676190D01*
X91285714Y-116676190D01*
X91380952Y-116723809D01*
X91428571Y-116771428D01*
X91476190Y-116866666D01*
X91476190Y-117247619D01*
X92047619Y-116485714D02*
X92047619Y-115723809D01*
X91285714Y-115057142D02*
X91952380Y-115057142D01*
X90904761Y-115295238D02*
X91619047Y-115533333D01*
X91619047Y-114914285D01*
X91952380Y-114533333D02*
X90952380Y-114533333D01*
X91666666Y-114200000D01*
X90952380Y-113866666D01*
X91952380Y-113866666D01*
X91952380Y-113390476D02*
X90952380Y-113390476D01*
X91428571Y-113390476D02*
X91428571Y-112819047D01*
X91952380Y-112819047D02*
X90952380Y-112819047D01*
X89852380Y-101100000D02*
X90090476Y-101100000D01*
X89995238Y-101338095D02*
X90090476Y-101100000D01*
X89995238Y-100861904D01*
X90280952Y-101242857D02*
X90090476Y-101100000D01*
X90280952Y-100957142D01*
%TO.C,J3*%
X106896666Y-107142380D02*
X106896666Y-107856666D01*
X106849047Y-107999523D01*
X106753809Y-108094761D01*
X106610952Y-108142380D01*
X106515714Y-108142380D01*
X107277619Y-107142380D02*
X107896666Y-107142380D01*
X107563333Y-107523333D01*
X107706190Y-107523333D01*
X107801428Y-107570952D01*
X107849047Y-107618571D01*
X107896666Y-107713809D01*
X107896666Y-107951904D01*
X107849047Y-108047142D01*
X107801428Y-108094761D01*
X107706190Y-108142380D01*
X107420476Y-108142380D01*
X107325238Y-108094761D01*
X107277619Y-108047142D01*
D12*
%TO.C,J1*%
X82998400Y-57203300D02*
X80297752Y-57203300D01*
X85598401Y-57203300D02*
X84445904Y-57203300D01*
X87045903Y-96446300D02*
X89746552Y-96446300D01*
X80297752Y-57203300D02*
X80297752Y-61350208D01*
X89746552Y-96446300D02*
X89746552Y-92299392D01*
X89746552Y-57203300D02*
X87045903Y-57203300D01*
X80297752Y-92299392D02*
X80297752Y-96446300D01*
X80297752Y-62799400D02*
X80297752Y-90850200D01*
X84445904Y-96446300D02*
X85598401Y-96446300D01*
X80297752Y-96446300D02*
X82998400Y-96446300D01*
X89746552Y-61350208D02*
X89746552Y-57203300D01*
X89746552Y-90850200D02*
X89746552Y-62799400D01*
X82403150Y-55425300D02*
G75*
G03*
X82403150Y-55425300I-381000J0D01*
G01*
%TO.C,J2*%
X80297752Y-102203300D02*
X80297752Y-106350208D01*
X89746552Y-106350208D02*
X89746552Y-102203300D01*
X89746552Y-102203300D02*
X87045903Y-102203300D01*
X89746552Y-135850200D02*
X89746552Y-107799400D01*
X80297752Y-107799400D02*
X80297752Y-135850200D01*
X87045903Y-141446300D02*
X89746552Y-141446300D01*
X85598401Y-102203300D02*
X84445904Y-102203300D01*
X80297752Y-141446300D02*
X82998400Y-141446300D01*
X84445904Y-141446300D02*
X85598401Y-141446300D01*
X80297752Y-137299392D02*
X80297752Y-141446300D01*
X89746552Y-141446300D02*
X89746552Y-137299392D01*
X82998400Y-102203300D02*
X80297752Y-102203300D01*
X82403150Y-100425300D02*
G75*
G03*
X82403150Y-100425300I-381000J0D01*
G01*
%TO.C,J3*%
X105170000Y-106690000D02*
X105170000Y-92570000D01*
X109290000Y-106690000D02*
X108230000Y-106690000D01*
X107230000Y-106690000D02*
X105170000Y-106690000D01*
X109290000Y-105630000D02*
X109290000Y-106690000D01*
X109290000Y-104630000D02*
X109290000Y-92570000D01*
X107230000Y-104630000D02*
X107230000Y-106690000D01*
X109290000Y-104630000D02*
X107230000Y-104630000D01*
X109290000Y-92570000D02*
X105170000Y-92570000D01*
%TD*%
M02*
