%TF.GenerationSoftware,KiCad,Pcbnew,(6.0.6)*%
%TF.CreationDate,2023-01-26T13:39:55-05:00*%
%TF.ProjectId,TURFIO_RACK_Flex_PCB_Breakout,54555246-494f-45f5-9241-434b5f466c65,rev?*%
%TF.SameCoordinates,Original*%
%TF.FileFunction,Copper,L1,Top*%
%TF.FilePolarity,Positive*%
%FSLAX46Y46*%
G04 Gerber Fmt 4.6, Leading zero omitted, Abs format (unit mm)*
G04 Created by KiCad (PCBNEW (6.0.6)) date 2023-01-26 13:39:55*
%MOMM*%
%LPD*%
G01*
G04 APERTURE LIST*
%TA.AperFunction,SMDPad,CuDef*%
%ADD10R,1.905000X0.304800*%
%TD*%
%TA.AperFunction,ComponentPad*%
%ADD11C,1.803400*%
%TD*%
%TA.AperFunction,ComponentPad*%
%ADD12C,1.600200*%
%TD*%
%TA.AperFunction,ComponentPad*%
%ADD13R,1.350000X1.350000*%
%TD*%
%TA.AperFunction,ComponentPad*%
%ADD14O,1.350000X1.350000*%
%TD*%
%TA.AperFunction,ViaPad*%
%ADD15C,0.800000*%
%TD*%
%TA.AperFunction,Conductor*%
%ADD16C,0.250000*%
%TD*%
G04 APERTURE END LIST*
D10*
%TO.P,J1,1*%
%TO.N,unconnected-(J1-Pad1)*%
X82022150Y-64574799D03*
%TO.P,J1,2*%
%TO.N,unconnected-(J1-Pad2)*%
X82022150Y-65074801D03*
%TO.P,J1,3*%
%TO.N,unconnected-(J1-Pad3)*%
X82022150Y-65574800D03*
%TO.P,J1,4*%
%TO.N,unconnected-(J1-Pad4)*%
X82022150Y-66074799D03*
%TO.P,J1,5*%
%TO.N,unconnected-(J1-Pad5)*%
X82022150Y-66574800D03*
%TO.P,J1,6*%
%TO.N,unconnected-(J1-Pad6)*%
X82022150Y-67074799D03*
%TO.P,J1,7*%
%TO.N,unconnected-(J1-Pad7)*%
X82022150Y-67574801D03*
%TO.P,J1,8*%
%TO.N,unconnected-(J1-Pad8)*%
X82022150Y-68074800D03*
%TO.P,J1,9*%
%TO.N,unconnected-(J1-Pad9)*%
X82022150Y-68574799D03*
%TO.P,J1,10*%
%TO.N,unconnected-(J1-Pad10)*%
X82022150Y-69074800D03*
%TO.P,J1,11*%
%TO.N,unconnected-(J1-Pad11)*%
X82022150Y-69574799D03*
%TO.P,J1,12*%
%TO.N,unconnected-(J1-Pad12)*%
X82022150Y-70074801D03*
%TO.P,J1,13*%
%TO.N,unconnected-(J1-Pad13)*%
X82022150Y-70574800D03*
%TO.P,J1,14*%
%TO.N,unconnected-(J1-Pad14)*%
X82022150Y-71074799D03*
%TO.P,J1,15*%
%TO.N,unconnected-(J1-Pad15)*%
X82022150Y-71574800D03*
%TO.P,J1,16*%
%TO.N,unconnected-(J1-Pad16)*%
X82022150Y-72074799D03*
%TO.P,J1,17*%
%TO.N,unconnected-(J1-Pad17)*%
X82022150Y-72574801D03*
%TO.P,J1,18*%
%TO.N,unconnected-(J1-Pad18)*%
X82022150Y-73074800D03*
%TO.P,J1,19*%
%TO.N,unconnected-(J1-Pad19)*%
X82022150Y-73574799D03*
%TO.P,J1,20*%
%TO.N,unconnected-(J1-Pad20)*%
X82022150Y-74074800D03*
%TO.P,J1,21*%
%TO.N,unconnected-(J1-Pad21)*%
X82022150Y-74574799D03*
%TO.P,J1,22*%
%TO.N,unconnected-(J1-Pad22)*%
X82022150Y-75074801D03*
%TO.P,J1,23*%
%TO.N,unconnected-(J1-Pad23)*%
X82022150Y-75574800D03*
%TO.P,J1,24*%
%TO.N,unconnected-(J1-Pad24)*%
X82022150Y-76074799D03*
%TO.P,J1,25*%
%TO.N,unconnected-(J1-Pad25)*%
X82022150Y-76574800D03*
%TO.P,J1,26*%
%TO.N,unconnected-(J1-Pad26)*%
X82022150Y-77074800D03*
%TO.P,J1,27*%
%TO.N,unconnected-(J1-Pad27)*%
X82022150Y-77574798D03*
%TO.P,J1,28*%
%TO.N,unconnected-(J1-Pad28)*%
X82022150Y-78074800D03*
%TO.P,J1,29*%
%TO.N,unconnected-(J1-Pad29)*%
X82022150Y-78574799D03*
%TO.P,J1,30*%
%TO.N,unconnected-(J1-Pad30)*%
X82022150Y-79074801D03*
%TO.P,J1,31*%
%TO.N,unconnected-(J1-Pad31)*%
X82022150Y-79574800D03*
%TO.P,J1,32*%
%TO.N,unconnected-(J1-Pad32)*%
X82022150Y-80074799D03*
%TO.P,J1,33*%
%TO.N,unconnected-(J1-Pad33)*%
X82022150Y-80574800D03*
%TO.P,J1,34*%
%TO.N,unconnected-(J1-Pad34)*%
X82022150Y-81074799D03*
%TO.P,J1,35*%
%TO.N,unconnected-(J1-Pad35)*%
X82022150Y-81574801D03*
%TO.P,J1,36*%
%TO.N,unconnected-(J1-Pad36)*%
X82022150Y-82074800D03*
%TO.P,J1,37*%
%TO.N,unconnected-(J1-Pad37)*%
X82022150Y-82574799D03*
%TO.P,J1,38*%
%TO.N,unconnected-(J1-Pad38)*%
X82022150Y-83074800D03*
%TO.P,J1,39*%
%TO.N,unconnected-(J1-Pad39)*%
X82022150Y-83574799D03*
%TO.P,J1,40*%
%TO.N,unconnected-(J1-Pad40)*%
X82022150Y-84074801D03*
%TO.P,J1,41*%
%TO.N,unconnected-(J1-Pad41)*%
X82022150Y-84574800D03*
%TO.P,J1,42*%
%TO.N,unconnected-(J1-Pad42)*%
X82022150Y-85074799D03*
%TO.P,J1,43*%
%TO.N,unconnected-(J1-Pad43)*%
X82022150Y-85574800D03*
%TO.P,J1,44*%
%TO.N,unconnected-(J1-Pad44)*%
X82022150Y-86074799D03*
%TO.P,J1,45*%
%TO.N,unconnected-(J1-Pad45)*%
X82022150Y-86574801D03*
%TO.P,J1,46*%
%TO.N,unconnected-(J1-Pad46)*%
X82022150Y-87074800D03*
%TO.P,J1,47*%
%TO.N,unconnected-(J1-Pad47)*%
X82022150Y-87574799D03*
%TO.P,J1,48*%
%TO.N,unconnected-(J1-Pad48)*%
X82022150Y-88074800D03*
%TO.P,J1,49*%
%TO.N,unconnected-(J1-Pad49)*%
X82022150Y-88574799D03*
%TO.P,J1,50*%
%TO.N,unconnected-(J1-Pad50)*%
X82022150Y-89074801D03*
%TO.P,J1,51*%
%TO.N,unconnected-(J1-Pad51)*%
X88022154Y-64574799D03*
%TO.P,J1,52*%
%TO.N,unconnected-(J1-Pad52)*%
X88022154Y-65074801D03*
%TO.P,J1,53*%
%TO.N,unconnected-(J1-Pad53)*%
X88022154Y-65574800D03*
%TO.P,J1,54*%
%TO.N,unconnected-(J1-Pad54)*%
X88022154Y-66074799D03*
%TO.P,J1,55*%
%TO.N,unconnected-(J1-Pad55)*%
X88022154Y-66574800D03*
%TO.P,J1,56*%
%TO.N,unconnected-(J1-Pad56)*%
X88022154Y-67074799D03*
%TO.P,J1,57*%
%TO.N,unconnected-(J1-Pad57)*%
X88022154Y-67574801D03*
%TO.P,J1,58*%
%TO.N,unconnected-(J1-Pad58)*%
X88022154Y-68074800D03*
%TO.P,J1,59*%
%TO.N,unconnected-(J1-Pad59)*%
X88022154Y-68574799D03*
%TO.P,J1,60*%
%TO.N,unconnected-(J1-Pad60)*%
X88022154Y-69074800D03*
%TO.P,J1,61*%
%TO.N,unconnected-(J1-Pad61)*%
X88022154Y-69574799D03*
%TO.P,J1,62*%
%TO.N,unconnected-(J1-Pad62)*%
X88022154Y-70074801D03*
%TO.P,J1,63*%
%TO.N,unconnected-(J1-Pad63)*%
X88022154Y-70574800D03*
%TO.P,J1,64*%
%TO.N,unconnected-(J1-Pad64)*%
X88022154Y-71074799D03*
%TO.P,J1,65*%
%TO.N,unconnected-(J1-Pad65)*%
X88022154Y-71574800D03*
%TO.P,J1,66*%
%TO.N,unconnected-(J1-Pad66)*%
X88022154Y-72074799D03*
%TO.P,J1,67*%
%TO.N,unconnected-(J1-Pad67)*%
X88022154Y-72574801D03*
%TO.P,J1,68*%
%TO.N,unconnected-(J1-Pad68)*%
X88022154Y-73074800D03*
%TO.P,J1,69*%
%TO.N,unconnected-(J1-Pad69)*%
X88022154Y-73574799D03*
%TO.P,J1,70*%
%TO.N,unconnected-(J1-Pad70)*%
X88022154Y-74074800D03*
%TO.P,J1,71*%
%TO.N,unconnected-(J1-Pad71)*%
X88022154Y-74574799D03*
%TO.P,J1,72*%
%TO.N,unconnected-(J1-Pad72)*%
X88022154Y-75074801D03*
%TO.P,J1,73*%
%TO.N,unconnected-(J1-Pad73)*%
X88022154Y-75574800D03*
%TO.P,J1,74*%
%TO.N,unconnected-(J1-Pad74)*%
X88022154Y-76074799D03*
%TO.P,J1,75*%
%TO.N,unconnected-(J1-Pad75)*%
X88022154Y-76574800D03*
%TO.P,J1,76*%
%TO.N,unconnected-(J1-Pad76)*%
X88022154Y-77074800D03*
%TO.P,J1,77*%
%TO.N,unconnected-(J1-Pad77)*%
X88022154Y-77574798D03*
%TO.P,J1,78*%
%TO.N,unconnected-(J1-Pad78)*%
X88022154Y-78074800D03*
%TO.P,J1,79*%
%TO.N,unconnected-(J1-Pad79)*%
X88022154Y-78574799D03*
%TO.P,J1,80*%
%TO.N,unconnected-(J1-Pad80)*%
X88022154Y-79074801D03*
%TO.P,J1,81*%
%TO.N,unconnected-(J1-Pad81)*%
X88022154Y-79574800D03*
%TO.P,J1,82*%
%TO.N,unconnected-(J1-Pad82)*%
X88022154Y-80074799D03*
%TO.P,J1,83*%
%TO.N,unconnected-(J1-Pad83)*%
X88022154Y-80574800D03*
%TO.P,J1,84*%
%TO.N,unconnected-(J1-Pad84)*%
X88022154Y-81074799D03*
%TO.P,J1,85*%
%TO.N,unconnected-(J1-Pad85)*%
X88022154Y-81574801D03*
%TO.P,J1,86*%
%TO.N,unconnected-(J1-Pad86)*%
X88022154Y-82074800D03*
%TO.P,J1,87*%
%TO.N,unconnected-(J1-Pad87)*%
X88022154Y-82574799D03*
%TO.P,J1,88*%
%TO.N,unconnected-(J1-Pad88)*%
X88022154Y-83074800D03*
%TO.P,J1,89*%
%TO.N,unconnected-(J1-Pad89)*%
X88022154Y-83574799D03*
%TO.P,J1,90*%
%TO.N,unconnected-(J1-Pad90)*%
X88022154Y-84074801D03*
%TO.P,J1,91*%
%TO.N,unconnected-(J1-Pad91)*%
X88022154Y-84574800D03*
%TO.P,J1,92*%
%TO.N,unconnected-(J1-Pad92)*%
X88022154Y-85074799D03*
%TO.P,J1,93*%
%TO.N,unconnected-(J1-Pad93)*%
X88022154Y-85574800D03*
%TO.P,J1,94*%
%TO.N,unconnected-(J1-Pad94)*%
X88022154Y-86074799D03*
%TO.P,J1,95*%
%TO.N,unconnected-(J1-Pad95)*%
X88022154Y-86574801D03*
%TO.P,J1,96*%
%TO.N,unconnected-(J1-Pad96)*%
X88022154Y-87074800D03*
%TO.P,J1,97*%
%TO.N,unconnected-(J1-Pad97)*%
X88022154Y-87574799D03*
%TO.P,J1,98*%
%TO.N,unconnected-(J1-Pad98)*%
X88022154Y-88074800D03*
%TO.P,J1,99*%
%TO.N,unconnected-(J1-Pad99)*%
X88022154Y-88574799D03*
%TO.P,J1,100*%
%TO.N,unconnected-(J1-Pad100)*%
X88022154Y-89074801D03*
D11*
%TO.P,J1,101,P1*%
%TO.N,unconnected-(J1-Pad101)*%
X81297153Y-62074804D03*
%TO.P,J1,102,P2*%
%TO.N,unconnected-(J1-Pad102)*%
X81297153Y-91574796D03*
%TO.P,J1,103,P3*%
%TO.N,unconnected-(J1-Pad103)*%
X88747151Y-62074804D03*
%TO.P,J1,104,P4*%
%TO.N,unconnected-(J1-Pad104)*%
X88747151Y-91574796D03*
D12*
%TO.P,J1,105,MH1*%
%TO.N,unconnected-(J1-Pad105)*%
X86322152Y-58074799D03*
%TO.P,J1,106,MH2*%
%TO.N,unconnected-(J1-Pad106)*%
X86322152Y-95574801D03*
%TO.P,J1,107,MH3*%
%TO.N,unconnected-(J1-Pad107)*%
X83722152Y-58074799D03*
%TO.P,J1,108,MH4*%
%TO.N,unconnected-(J1-Pad108)*%
X83722152Y-95574801D03*
%TD*%
D10*
%TO.P,J2,1*%
%TO.N,unconnected-(J2-Pad1)*%
X82022150Y-109574799D03*
%TO.P,J2,2*%
%TO.N,unconnected-(J2-Pad2)*%
X82022150Y-110074801D03*
%TO.P,J2,3*%
%TO.N,unconnected-(J2-Pad3)*%
X82022150Y-110574800D03*
%TO.P,J2,4*%
%TO.N,unconnected-(J2-Pad4)*%
X82022150Y-111074799D03*
%TO.P,J2,5*%
%TO.N,unconnected-(J2-Pad5)*%
X82022150Y-111574800D03*
%TO.P,J2,6*%
%TO.N,unconnected-(J2-Pad6)*%
X82022150Y-112074799D03*
%TO.P,J2,7*%
%TO.N,unconnected-(J2-Pad7)*%
X82022150Y-112574801D03*
%TO.P,J2,8*%
%TO.N,unconnected-(J2-Pad8)*%
X82022150Y-113074800D03*
%TO.P,J2,9*%
%TO.N,unconnected-(J2-Pad9)*%
X82022150Y-113574799D03*
%TO.P,J2,10*%
%TO.N,unconnected-(J2-Pad10)*%
X82022150Y-114074800D03*
%TO.P,J2,11*%
%TO.N,unconnected-(J2-Pad11)*%
X82022150Y-114574799D03*
%TO.P,J2,12*%
%TO.N,unconnected-(J2-Pad12)*%
X82022150Y-115074801D03*
%TO.P,J2,13*%
%TO.N,unconnected-(J2-Pad13)*%
X82022150Y-115574800D03*
%TO.P,J2,14*%
%TO.N,unconnected-(J2-Pad14)*%
X82022150Y-116074799D03*
%TO.P,J2,15*%
%TO.N,unconnected-(J2-Pad15)*%
X82022150Y-116574800D03*
%TO.P,J2,16*%
%TO.N,unconnected-(J2-Pad16)*%
X82022150Y-117074799D03*
%TO.P,J2,17*%
%TO.N,unconnected-(J2-Pad17)*%
X82022150Y-117574801D03*
%TO.P,J2,18*%
%TO.N,unconnected-(J2-Pad18)*%
X82022150Y-118074800D03*
%TO.P,J2,19*%
%TO.N,unconnected-(J2-Pad19)*%
X82022150Y-118574799D03*
%TO.P,J2,20*%
%TO.N,unconnected-(J2-Pad20)*%
X82022150Y-119074800D03*
%TO.P,J2,21*%
%TO.N,unconnected-(J2-Pad21)*%
X82022150Y-119574799D03*
%TO.P,J2,22*%
%TO.N,unconnected-(J2-Pad22)*%
X82022150Y-120074801D03*
%TO.P,J2,23*%
%TO.N,unconnected-(J2-Pad23)*%
X82022150Y-120574800D03*
%TO.P,J2,24*%
%TO.N,unconnected-(J2-Pad24)*%
X82022150Y-121074799D03*
%TO.P,J2,25*%
%TO.N,unconnected-(J2-Pad25)*%
X82022150Y-121574800D03*
%TO.P,J2,26*%
%TO.N,unconnected-(J2-Pad26)*%
X82022150Y-122074800D03*
%TO.P,J2,27*%
%TO.N,unconnected-(J2-Pad27)*%
X82022150Y-122574798D03*
%TO.P,J2,28*%
%TO.N,unconnected-(J2-Pad28)*%
X82022150Y-123074800D03*
%TO.P,J2,29*%
%TO.N,unconnected-(J2-Pad29)*%
X82022150Y-123574799D03*
%TO.P,J2,30*%
%TO.N,unconnected-(J2-Pad30)*%
X82022150Y-124074801D03*
%TO.P,J2,31*%
%TO.N,unconnected-(J2-Pad31)*%
X82022150Y-124574800D03*
%TO.P,J2,32*%
%TO.N,unconnected-(J2-Pad32)*%
X82022150Y-125074799D03*
%TO.P,J2,33*%
%TO.N,unconnected-(J2-Pad33)*%
X82022150Y-125574800D03*
%TO.P,J2,34*%
%TO.N,unconnected-(J2-Pad34)*%
X82022150Y-126074799D03*
%TO.P,J2,35*%
%TO.N,unconnected-(J2-Pad35)*%
X82022150Y-126574801D03*
%TO.P,J2,36*%
%TO.N,unconnected-(J2-Pad36)*%
X82022150Y-127074800D03*
%TO.P,J2,37*%
%TO.N,unconnected-(J2-Pad37)*%
X82022150Y-127574799D03*
%TO.P,J2,38*%
%TO.N,unconnected-(J2-Pad38)*%
X82022150Y-128074800D03*
%TO.P,J2,39*%
%TO.N,unconnected-(J2-Pad39)*%
X82022150Y-128574799D03*
%TO.P,J2,40*%
%TO.N,unconnected-(J2-Pad40)*%
X82022150Y-129074801D03*
%TO.P,J2,41*%
%TO.N,unconnected-(J2-Pad41)*%
X82022150Y-129574800D03*
%TO.P,J2,42*%
%TO.N,unconnected-(J2-Pad42)*%
X82022150Y-130074799D03*
%TO.P,J2,43*%
%TO.N,unconnected-(J2-Pad43)*%
X82022150Y-130574800D03*
%TO.P,J2,44*%
%TO.N,unconnected-(J2-Pad44)*%
X82022150Y-131074799D03*
%TO.P,J2,45*%
%TO.N,unconnected-(J2-Pad45)*%
X82022150Y-131574801D03*
%TO.P,J2,46*%
%TO.N,unconnected-(J2-Pad46)*%
X82022150Y-132074800D03*
%TO.P,J2,47*%
%TO.N,unconnected-(J2-Pad47)*%
X82022150Y-132574799D03*
%TO.P,J2,48*%
%TO.N,unconnected-(J2-Pad48)*%
X82022150Y-133074800D03*
%TO.P,J2,49*%
%TO.N,unconnected-(J2-Pad49)*%
X82022150Y-133574799D03*
%TO.P,J2,50*%
%TO.N,unconnected-(J2-Pad50)*%
X82022150Y-134074801D03*
%TO.P,J2,51*%
%TO.N,/T~CTRL*%
X88022154Y-109574799D03*
%TO.P,J2,52*%
%TO.N,/TTDI*%
X88022154Y-110074801D03*
%TO.P,J2,53*%
%TO.N,/TTDO*%
X88022154Y-110574800D03*
%TO.P,J2,54*%
%TO.N,/TTCK*%
X88022154Y-111074799D03*
%TO.P,J2,55*%
%TO.N,/TTMS*%
X88022154Y-111574800D03*
%TO.P,J2,56*%
%TO.N,unconnected-(J2-Pad56)*%
X88022154Y-112074799D03*
%TO.P,J2,57*%
%TO.N,unconnected-(J2-Pad57)*%
X88022154Y-112574801D03*
%TO.P,J2,58*%
%TO.N,unconnected-(J2-Pad58)*%
X88022154Y-113074800D03*
%TO.P,J2,59*%
%TO.N,unconnected-(J2-Pad59)*%
X88022154Y-113574799D03*
%TO.P,J2,60*%
%TO.N,unconnected-(J2-Pad60)*%
X88022154Y-114074800D03*
%TO.P,J2,61*%
%TO.N,unconnected-(J2-Pad61)*%
X88022154Y-114574799D03*
%TO.P,J2,62*%
%TO.N,unconnected-(J2-Pad62)*%
X88022154Y-115074801D03*
%TO.P,J2,63*%
%TO.N,unconnected-(J2-Pad63)*%
X88022154Y-115574800D03*
%TO.P,J2,64*%
%TO.N,unconnected-(J2-Pad64)*%
X88022154Y-116074799D03*
%TO.P,J2,65*%
%TO.N,unconnected-(J2-Pad65)*%
X88022154Y-116574800D03*
%TO.P,J2,66*%
%TO.N,unconnected-(J2-Pad66)*%
X88022154Y-117074799D03*
%TO.P,J2,67*%
%TO.N,unconnected-(J2-Pad67)*%
X88022154Y-117574801D03*
%TO.P,J2,68*%
%TO.N,unconnected-(J2-Pad68)*%
X88022154Y-118074800D03*
%TO.P,J2,69*%
%TO.N,unconnected-(J2-Pad69)*%
X88022154Y-118574799D03*
%TO.P,J2,70*%
%TO.N,unconnected-(J2-Pad70)*%
X88022154Y-119074800D03*
%TO.P,J2,71*%
%TO.N,unconnected-(J2-Pad71)*%
X88022154Y-119574799D03*
%TO.P,J2,72*%
%TO.N,unconnected-(J2-Pad72)*%
X88022154Y-120074801D03*
%TO.P,J2,73*%
%TO.N,unconnected-(J2-Pad73)*%
X88022154Y-120574800D03*
%TO.P,J2,74*%
%TO.N,unconnected-(J2-Pad74)*%
X88022154Y-121074799D03*
%TO.P,J2,75*%
%TO.N,unconnected-(J2-Pad75)*%
X88022154Y-121574800D03*
%TO.P,J2,76*%
%TO.N,unconnected-(J2-Pad76)*%
X88022154Y-122074800D03*
%TO.P,J2,77*%
%TO.N,unconnected-(J2-Pad77)*%
X88022154Y-122574798D03*
%TO.P,J2,78*%
%TO.N,unconnected-(J2-Pad78)*%
X88022154Y-123074800D03*
%TO.P,J2,79*%
%TO.N,unconnected-(J2-Pad79)*%
X88022154Y-123574799D03*
%TO.P,J2,80*%
%TO.N,unconnected-(J2-Pad80)*%
X88022154Y-124074801D03*
%TO.P,J2,81*%
%TO.N,unconnected-(J2-Pad81)*%
X88022154Y-124574800D03*
%TO.P,J2,82*%
%TO.N,unconnected-(J2-Pad82)*%
X88022154Y-125074799D03*
%TO.P,J2,83*%
%TO.N,unconnected-(J2-Pad83)*%
X88022154Y-125574800D03*
%TO.P,J2,84*%
%TO.N,unconnected-(J2-Pad84)*%
X88022154Y-126074799D03*
%TO.P,J2,85*%
%TO.N,unconnected-(J2-Pad85)*%
X88022154Y-126574801D03*
%TO.P,J2,86*%
%TO.N,unconnected-(J2-Pad86)*%
X88022154Y-127074800D03*
%TO.P,J2,87*%
%TO.N,unconnected-(J2-Pad87)*%
X88022154Y-127574799D03*
%TO.P,J2,88*%
%TO.N,unconnected-(J2-Pad88)*%
X88022154Y-128074800D03*
%TO.P,J2,89*%
%TO.N,unconnected-(J2-Pad89)*%
X88022154Y-128574799D03*
%TO.P,J2,90*%
%TO.N,unconnected-(J2-Pad90)*%
X88022154Y-129074801D03*
%TO.P,J2,91*%
%TO.N,unconnected-(J2-Pad91)*%
X88022154Y-129574800D03*
%TO.P,J2,92*%
%TO.N,unconnected-(J2-Pad92)*%
X88022154Y-130074799D03*
%TO.P,J2,93*%
%TO.N,unconnected-(J2-Pad93)*%
X88022154Y-130574800D03*
%TO.P,J2,94*%
%TO.N,unconnected-(J2-Pad94)*%
X88022154Y-131074799D03*
%TO.P,J2,95*%
%TO.N,unconnected-(J2-Pad95)*%
X88022154Y-131574801D03*
%TO.P,J2,96*%
%TO.N,unconnected-(J2-Pad96)*%
X88022154Y-132074800D03*
%TO.P,J2,97*%
%TO.N,unconnected-(J2-Pad97)*%
X88022154Y-132574799D03*
%TO.P,J2,98*%
%TO.N,unconnected-(J2-Pad98)*%
X88022154Y-133074800D03*
%TO.P,J2,99*%
%TO.N,unconnected-(J2-Pad99)*%
X88022154Y-133574799D03*
%TO.P,J2,100*%
%TO.N,unconnected-(J2-Pad100)*%
X88022154Y-134074801D03*
D11*
%TO.P,J2,101,P1*%
%TO.N,unconnected-(J2-Pad101)*%
X81297153Y-107074804D03*
%TO.P,J2,102,P2*%
%TO.N,unconnected-(J2-Pad102)*%
X81297153Y-136574796D03*
%TO.P,J2,103,P3*%
%TO.N,GND*%
X88747151Y-107074804D03*
%TO.P,J2,104,P4*%
X88747151Y-136574796D03*
D12*
%TO.P,J2,105,MH1*%
%TO.N,unconnected-(J2-Pad105)*%
X86322152Y-103074799D03*
%TO.P,J2,106,MH2*%
%TO.N,unconnected-(J2-Pad106)*%
X86322152Y-140574801D03*
%TO.P,J2,107,MH3*%
%TO.N,unconnected-(J2-Pad107)*%
X83722152Y-103074799D03*
%TO.P,J2,108,MH4*%
%TO.N,unconnected-(J2-Pad108)*%
X83722152Y-140574801D03*
%TD*%
D13*
%TO.P,J3,1,Pin_1*%
%TO.N,GND*%
X108230000Y-105630000D03*
D14*
%TO.P,J3,2,Pin_2*%
%TO.N,unconnected-(J3-Pad2)*%
X106230000Y-105630000D03*
%TO.P,J3,3,Pin_3*%
%TO.N,GND*%
X108230000Y-103630000D03*
%TO.P,J3,4,Pin_4*%
%TO.N,/TTMS*%
X106230000Y-103630000D03*
%TO.P,J3,5,Pin_5*%
%TO.N,GND*%
X108230000Y-101630000D03*
%TO.P,J3,6,Pin_6*%
%TO.N,/TTCK*%
X106230000Y-101630000D03*
%TO.P,J3,7,Pin_7*%
%TO.N,GND*%
X108230000Y-99630000D03*
%TO.P,J3,8,Pin_8*%
%TO.N,/TTDI*%
X106230000Y-99630000D03*
%TO.P,J3,9,Pin_9*%
%TO.N,GND*%
X108230000Y-97630000D03*
%TO.P,J3,10,Pin_10*%
%TO.N,/TTDO*%
X106230000Y-97630000D03*
%TO.P,J3,11,Pin_11*%
%TO.N,GND*%
X108230000Y-95630000D03*
%TO.P,J3,12,Pin_12*%
%TO.N,unconnected-(J3-Pad12)*%
X106230000Y-95630000D03*
%TO.P,J3,13,Pin_13*%
%TO.N,GND*%
X108230000Y-93630000D03*
%TO.P,J3,14,Pin_14*%
%TO.N,/T~CTRL*%
X106230000Y-93630000D03*
%TD*%
D15*
%TO.N,/TTDO*%
X98200000Y-98620000D03*
X97950000Y-103210000D03*
%TD*%
D16*
%TO.N,/T~CTRL*%
X94930000Y-105210000D02*
X94930000Y-99070000D01*
X100370000Y-93630000D02*
X106230000Y-93630000D01*
X90565201Y-109574799D02*
X94930000Y-105210000D01*
X88022154Y-109574799D02*
X90565201Y-109574799D01*
X94930000Y-99070000D02*
X100370000Y-93630000D01*
%TO.N,/TTDI*%
X99310000Y-99630000D02*
X106230000Y-99630000D01*
X96420000Y-102520000D02*
X99310000Y-99630000D01*
X88022154Y-110074801D02*
X91765199Y-110074801D01*
X91765199Y-110074801D02*
X96420000Y-105420000D01*
X96420000Y-105420000D02*
X96420000Y-102520000D01*
%TO.N,/TTDO*%
X97950000Y-104910000D02*
X97950000Y-103210000D01*
X96750000Y-106110000D02*
X97950000Y-104910000D01*
X92285200Y-110574800D02*
X96750000Y-106110000D01*
X99190000Y-97630000D02*
X106230000Y-97630000D01*
X98200000Y-98620000D02*
X99190000Y-97630000D01*
X88022154Y-110574800D02*
X92285200Y-110574800D01*
%TO.N,/TTCK*%
X98940000Y-104670000D02*
X101980000Y-101630000D01*
X98940000Y-104690000D02*
X98940000Y-104670000D01*
X92555201Y-111074799D02*
X98940000Y-104690000D01*
X88022154Y-111074799D02*
X92555201Y-111074799D01*
X101980000Y-101630000D02*
X106230000Y-101630000D01*
%TO.N,/TTMS*%
X88022154Y-111574800D02*
X92895200Y-111574800D01*
X92895200Y-111574800D02*
X100840000Y-103630000D01*
X100840000Y-103630000D02*
X106230000Y-103630000D01*
%TD*%
%TA.AperFunction,Conductor*%
%TO.N,GND*%
G36*
X115873621Y-52088502D02*
G01*
X115920114Y-52142158D01*
X115931500Y-52194500D01*
X115931500Y-145885500D01*
X115911498Y-145953621D01*
X115857842Y-146000114D01*
X115805500Y-146011500D01*
X75144500Y-146011500D01*
X75076379Y-145991498D01*
X75029886Y-145937842D01*
X75018500Y-145885500D01*
X75018500Y-140574801D01*
X82408553Y-140574801D01*
X82428510Y-140802905D01*
X82487773Y-141024078D01*
X82490095Y-141029059D01*
X82490096Y-141029060D01*
X82582216Y-141226613D01*
X82582219Y-141226618D01*
X82584542Y-141231600D01*
X82715877Y-141419166D01*
X82877787Y-141581076D01*
X83065352Y-141712411D01*
X83070334Y-141714734D01*
X83070339Y-141714737D01*
X83267893Y-141806857D01*
X83272875Y-141809180D01*
X83278183Y-141810602D01*
X83278185Y-141810603D01*
X83488733Y-141867019D01*
X83488735Y-141867019D01*
X83494048Y-141868443D01*
X83722152Y-141888400D01*
X83950256Y-141868443D01*
X83955569Y-141867019D01*
X83955571Y-141867019D01*
X84166119Y-141810603D01*
X84166121Y-141810602D01*
X84171429Y-141809180D01*
X84176411Y-141806857D01*
X84373965Y-141714737D01*
X84373970Y-141714734D01*
X84378952Y-141712411D01*
X84566517Y-141581076D01*
X84728427Y-141419166D01*
X84859762Y-141231600D01*
X84862085Y-141226618D01*
X84862088Y-141226613D01*
X84907957Y-141128245D01*
X84954874Y-141074960D01*
X85023151Y-141055499D01*
X85091111Y-141076041D01*
X85136347Y-141128245D01*
X85182216Y-141226613D01*
X85182219Y-141226618D01*
X85184542Y-141231600D01*
X85315877Y-141419166D01*
X85477787Y-141581076D01*
X85665352Y-141712411D01*
X85670334Y-141714734D01*
X85670339Y-141714737D01*
X85867893Y-141806857D01*
X85872875Y-141809180D01*
X85878183Y-141810602D01*
X85878185Y-141810603D01*
X86088733Y-141867019D01*
X86088735Y-141867019D01*
X86094048Y-141868443D01*
X86322152Y-141888400D01*
X86550256Y-141868443D01*
X86555569Y-141867019D01*
X86555571Y-141867019D01*
X86766119Y-141810603D01*
X86766121Y-141810602D01*
X86771429Y-141809180D01*
X86776411Y-141806857D01*
X86973965Y-141714737D01*
X86973970Y-141714734D01*
X86978952Y-141712411D01*
X87166517Y-141581076D01*
X87328427Y-141419166D01*
X87459762Y-141231600D01*
X87462085Y-141226618D01*
X87462088Y-141226613D01*
X87554208Y-141029060D01*
X87554209Y-141029059D01*
X87556531Y-141024078D01*
X87615794Y-140802905D01*
X87635751Y-140574801D01*
X87615794Y-140346697D01*
X87556531Y-140125524D01*
X87541879Y-140094103D01*
X87462088Y-139922989D01*
X87462085Y-139922984D01*
X87459762Y-139918002D01*
X87328427Y-139730436D01*
X87166517Y-139568526D01*
X86978952Y-139437191D01*
X86973970Y-139434868D01*
X86973965Y-139434865D01*
X86776411Y-139342745D01*
X86776410Y-139342745D01*
X86771429Y-139340422D01*
X86766121Y-139339000D01*
X86766119Y-139338999D01*
X86555571Y-139282583D01*
X86555569Y-139282583D01*
X86550256Y-139281159D01*
X86322152Y-139261202D01*
X86094048Y-139281159D01*
X86088735Y-139282583D01*
X86088733Y-139282583D01*
X85878185Y-139338999D01*
X85878183Y-139339000D01*
X85872875Y-139340422D01*
X85867894Y-139342744D01*
X85867893Y-139342745D01*
X85670340Y-139434865D01*
X85670335Y-139434868D01*
X85665353Y-139437191D01*
X85660846Y-139440347D01*
X85660844Y-139440348D01*
X85482298Y-139565367D01*
X85482295Y-139565369D01*
X85477787Y-139568526D01*
X85315877Y-139730436D01*
X85184542Y-139918002D01*
X85182219Y-139922984D01*
X85182216Y-139922989D01*
X85136347Y-140021357D01*
X85089430Y-140074642D01*
X85021153Y-140094103D01*
X84953193Y-140073561D01*
X84907957Y-140021357D01*
X84862088Y-139922989D01*
X84862085Y-139922984D01*
X84859762Y-139918002D01*
X84728427Y-139730436D01*
X84566517Y-139568526D01*
X84378952Y-139437191D01*
X84373970Y-139434868D01*
X84373965Y-139434865D01*
X84176411Y-139342745D01*
X84176410Y-139342745D01*
X84171429Y-139340422D01*
X84166121Y-139339000D01*
X84166119Y-139338999D01*
X83955571Y-139282583D01*
X83955569Y-139282583D01*
X83950256Y-139281159D01*
X83722152Y-139261202D01*
X83494048Y-139281159D01*
X83488735Y-139282583D01*
X83488733Y-139282583D01*
X83278185Y-139338999D01*
X83278183Y-139339000D01*
X83272875Y-139340422D01*
X83267894Y-139342744D01*
X83267893Y-139342745D01*
X83070340Y-139434865D01*
X83070335Y-139434868D01*
X83065353Y-139437191D01*
X83060846Y-139440347D01*
X83060844Y-139440348D01*
X82882298Y-139565367D01*
X82882295Y-139565369D01*
X82877787Y-139568526D01*
X82715877Y-139730436D01*
X82584542Y-139918002D01*
X82582219Y-139922984D01*
X82582216Y-139922989D01*
X82502425Y-140094103D01*
X82487773Y-140125524D01*
X82428510Y-140346697D01*
X82408553Y-140574801D01*
X75018500Y-140574801D01*
X75018500Y-136540224D01*
X79882542Y-136540224D01*
X79895891Y-136771731D01*
X79946871Y-136997949D01*
X80034115Y-137212803D01*
X80155278Y-137410523D01*
X80307106Y-137585798D01*
X80485523Y-137733923D01*
X80489975Y-137736525D01*
X80489980Y-137736528D01*
X80681279Y-137848314D01*
X80685737Y-137850919D01*
X80902371Y-137933643D01*
X80907439Y-137934674D01*
X80907442Y-137934675D01*
X81019243Y-137957421D01*
X81129607Y-137979875D01*
X81134780Y-137980065D01*
X81134783Y-137980065D01*
X81356179Y-137988183D01*
X81356183Y-137988183D01*
X81361343Y-137988372D01*
X81366463Y-137987716D01*
X81366465Y-137987716D01*
X81437262Y-137978647D01*
X81591355Y-137958907D01*
X81596304Y-137957422D01*
X81596310Y-137957421D01*
X81808523Y-137893754D01*
X81813466Y-137892271D01*
X82021711Y-137790253D01*
X82105309Y-137730623D01*
X82206285Y-137658598D01*
X82206290Y-137658594D01*
X82210497Y-137655593D01*
X82374755Y-137491907D01*
X82510073Y-137303592D01*
X82552769Y-137217204D01*
X82610523Y-137100346D01*
X82610524Y-137100344D01*
X82612817Y-137095704D01*
X82644053Y-136992895D01*
X82678725Y-136878780D01*
X82678726Y-136878774D01*
X82680229Y-136873828D01*
X82710497Y-136643920D01*
X82712186Y-136574796D01*
X82705887Y-136498182D01*
X82693609Y-136348835D01*
X82693608Y-136348829D01*
X82693185Y-136343684D01*
X82636693Y-136118779D01*
X82544226Y-135906121D01*
X82418269Y-135711420D01*
X82390180Y-135680550D01*
X82265681Y-135543728D01*
X82265679Y-135543727D01*
X82262203Y-135539906D01*
X82258152Y-135536707D01*
X82258148Y-135536703D01*
X82084278Y-135399390D01*
X82080220Y-135396185D01*
X81877208Y-135284116D01*
X81758773Y-135242176D01*
X81663492Y-135208435D01*
X81663488Y-135208434D01*
X81658617Y-135206709D01*
X81653524Y-135205802D01*
X81653521Y-135205801D01*
X81435408Y-135166949D01*
X81435402Y-135166948D01*
X81430319Y-135166043D01*
X81341785Y-135164961D01*
X81203614Y-135163273D01*
X81203612Y-135163273D01*
X81198445Y-135163210D01*
X80969222Y-135198286D01*
X80748806Y-135270329D01*
X80744218Y-135272717D01*
X80744214Y-135272719D01*
X80547704Y-135375016D01*
X80543115Y-135377405D01*
X80538982Y-135380508D01*
X80538979Y-135380510D01*
X80361810Y-135513532D01*
X80357675Y-135516637D01*
X80197466Y-135684287D01*
X80066789Y-135875852D01*
X79969154Y-136086188D01*
X79907184Y-136309645D01*
X79882542Y-136540224D01*
X75018500Y-136540224D01*
X75018500Y-134275335D01*
X80561150Y-134275335D01*
X80567905Y-134337517D01*
X80619035Y-134473906D01*
X80706389Y-134590462D01*
X80822945Y-134677816D01*
X80959334Y-134728946D01*
X81021516Y-134735701D01*
X83022784Y-134735701D01*
X83084966Y-134728946D01*
X83221355Y-134677816D01*
X83337911Y-134590462D01*
X83425265Y-134473906D01*
X83476395Y-134337517D01*
X83483150Y-134275335D01*
X86561154Y-134275335D01*
X86567909Y-134337517D01*
X86619039Y-134473906D01*
X86706393Y-134590462D01*
X86822949Y-134677816D01*
X86959338Y-134728946D01*
X87021520Y-134735701D01*
X89022788Y-134735701D01*
X89084970Y-134728946D01*
X89221359Y-134677816D01*
X89337915Y-134590462D01*
X89425269Y-134473906D01*
X89476399Y-134337517D01*
X89483154Y-134275335D01*
X89483154Y-133874267D01*
X89479258Y-133838405D01*
X89479258Y-133811195D01*
X89483154Y-133775333D01*
X89483154Y-133374265D01*
X89482785Y-133370864D01*
X89479259Y-133338406D01*
X89479259Y-133311192D01*
X89482785Y-133278734D01*
X89482785Y-133278727D01*
X89483154Y-133275334D01*
X89483154Y-132874266D01*
X89479258Y-132838404D01*
X89479258Y-132811194D01*
X89483154Y-132775333D01*
X89483154Y-132374265D01*
X89482785Y-132370865D01*
X89479259Y-132338407D01*
X89479259Y-132311193D01*
X89482785Y-132278735D01*
X89482785Y-132278726D01*
X89483154Y-132275334D01*
X89483154Y-131874266D01*
X89482785Y-131870865D01*
X89479259Y-131838407D01*
X89479259Y-131811193D01*
X89482785Y-131778735D01*
X89482785Y-131778728D01*
X89483154Y-131775335D01*
X89483154Y-131374267D01*
X89479258Y-131338405D01*
X89479258Y-131311195D01*
X89483154Y-131275333D01*
X89483154Y-130874265D01*
X89482785Y-130870864D01*
X89479259Y-130838406D01*
X89479259Y-130811192D01*
X89482785Y-130778734D01*
X89482785Y-130778727D01*
X89483154Y-130775334D01*
X89483154Y-130374266D01*
X89479258Y-130338405D01*
X89479258Y-130311195D01*
X89483154Y-130275333D01*
X89483154Y-129874265D01*
X89482785Y-129870864D01*
X89479259Y-129838406D01*
X89479259Y-129811192D01*
X89482785Y-129778734D01*
X89482785Y-129778727D01*
X89483154Y-129775334D01*
X89483154Y-129374266D01*
X89482785Y-129370865D01*
X89479259Y-129338407D01*
X89479259Y-129311193D01*
X89482785Y-129278735D01*
X89482785Y-129278728D01*
X89483154Y-129275335D01*
X89483154Y-128874267D01*
X89479258Y-128838405D01*
X89479258Y-128811195D01*
X89483154Y-128775333D01*
X89483154Y-128374265D01*
X89482785Y-128370864D01*
X89479259Y-128338406D01*
X89479259Y-128311192D01*
X89482785Y-128278734D01*
X89482785Y-128278727D01*
X89483154Y-128275334D01*
X89483154Y-127874266D01*
X89479258Y-127838404D01*
X89479258Y-127811194D01*
X89483154Y-127775333D01*
X89483154Y-127374265D01*
X89482785Y-127370864D01*
X89479259Y-127338406D01*
X89479259Y-127311192D01*
X89482785Y-127278734D01*
X89482785Y-127278727D01*
X89483154Y-127275334D01*
X89483154Y-126874266D01*
X89482785Y-126870865D01*
X89479259Y-126838407D01*
X89479259Y-126811193D01*
X89482785Y-126778735D01*
X89482785Y-126778728D01*
X89483154Y-126775335D01*
X89483154Y-126374267D01*
X89479258Y-126338405D01*
X89479258Y-126311195D01*
X89483154Y-126275333D01*
X89483154Y-125874265D01*
X89482785Y-125870865D01*
X89479259Y-125838407D01*
X89479259Y-125811193D01*
X89482785Y-125778735D01*
X89482785Y-125778726D01*
X89483154Y-125775334D01*
X89483154Y-125374266D01*
X89479258Y-125338404D01*
X89479258Y-125311194D01*
X89483154Y-125275333D01*
X89483154Y-124874265D01*
X89482785Y-124870864D01*
X89479259Y-124838406D01*
X89479259Y-124811192D01*
X89482785Y-124778734D01*
X89482785Y-124778727D01*
X89483154Y-124775334D01*
X89483154Y-124374266D01*
X89482785Y-124370865D01*
X89479259Y-124338407D01*
X89479259Y-124311193D01*
X89482785Y-124278735D01*
X89482785Y-124278728D01*
X89483154Y-124275335D01*
X89483154Y-123874267D01*
X89479258Y-123838405D01*
X89479258Y-123811195D01*
X89483154Y-123775333D01*
X89483154Y-123374265D01*
X89482785Y-123370865D01*
X89479259Y-123338407D01*
X89479259Y-123311193D01*
X89482785Y-123278735D01*
X89482785Y-123278726D01*
X89483154Y-123275334D01*
X89483154Y-122874266D01*
X89479258Y-122838404D01*
X89479258Y-122811194D01*
X89483154Y-122775332D01*
X89483154Y-122374264D01*
X89482785Y-122370864D01*
X89479259Y-122338406D01*
X89479259Y-122311192D01*
X89482785Y-122278734D01*
X89482785Y-122278727D01*
X89483154Y-122275334D01*
X89483154Y-121874266D01*
X89479258Y-121838405D01*
X89479258Y-121811195D01*
X89483154Y-121775334D01*
X89483154Y-121374266D01*
X89479258Y-121338405D01*
X89479258Y-121311195D01*
X89483154Y-121275333D01*
X89483154Y-120874265D01*
X89482785Y-120870865D01*
X89479259Y-120838407D01*
X89479259Y-120811193D01*
X89482785Y-120778735D01*
X89482785Y-120778726D01*
X89483154Y-120775334D01*
X89483154Y-120374266D01*
X89482785Y-120370866D01*
X89479259Y-120338408D01*
X89479259Y-120311194D01*
X89482785Y-120278736D01*
X89482785Y-120278727D01*
X89483154Y-120275335D01*
X89483154Y-119874267D01*
X89479258Y-119838405D01*
X89479258Y-119811195D01*
X89483154Y-119775333D01*
X89483154Y-119374265D01*
X89482785Y-119370864D01*
X89479259Y-119338406D01*
X89479259Y-119311192D01*
X89482785Y-119278734D01*
X89482785Y-119278727D01*
X89483154Y-119275334D01*
X89483154Y-118874266D01*
X89479258Y-118838405D01*
X89479258Y-118811195D01*
X89483154Y-118775333D01*
X89483154Y-118374265D01*
X89482785Y-118370865D01*
X89479259Y-118338407D01*
X89479259Y-118311193D01*
X89482785Y-118278735D01*
X89482785Y-118278726D01*
X89483154Y-118275334D01*
X89483154Y-117874266D01*
X89482785Y-117870865D01*
X89479259Y-117838407D01*
X89479259Y-117811193D01*
X89482785Y-117778735D01*
X89482785Y-117778728D01*
X89483154Y-117775335D01*
X89483154Y-117374267D01*
X89479258Y-117338405D01*
X89479258Y-117311195D01*
X89483154Y-117275333D01*
X89483154Y-116874265D01*
X89482785Y-116870865D01*
X89479259Y-116838407D01*
X89479259Y-116811193D01*
X89482785Y-116778735D01*
X89482785Y-116778726D01*
X89483154Y-116775334D01*
X89483154Y-116374266D01*
X89479258Y-116338404D01*
X89479258Y-116311194D01*
X89483154Y-116275333D01*
X89483154Y-115874265D01*
X89482785Y-115870864D01*
X89479259Y-115838406D01*
X89479259Y-115811192D01*
X89482785Y-115778734D01*
X89482785Y-115778727D01*
X89483154Y-115775334D01*
X89483154Y-115374266D01*
X89482785Y-115370865D01*
X89479259Y-115338407D01*
X89479259Y-115311193D01*
X89482785Y-115278735D01*
X89482785Y-115278728D01*
X89483154Y-115275335D01*
X89483154Y-114874267D01*
X89479258Y-114838405D01*
X89479258Y-114811195D01*
X89483154Y-114775333D01*
X89483154Y-114374265D01*
X89482785Y-114370865D01*
X89479259Y-114338407D01*
X89479259Y-114311193D01*
X89482785Y-114278735D01*
X89482785Y-114278726D01*
X89483154Y-114275334D01*
X89483154Y-113874266D01*
X89479258Y-113838405D01*
X89479258Y-113811195D01*
X89483154Y-113775333D01*
X89483154Y-113374265D01*
X89482785Y-113370864D01*
X89479259Y-113338406D01*
X89479259Y-113311192D01*
X89482785Y-113278734D01*
X89482785Y-113278727D01*
X89483154Y-113275334D01*
X89483154Y-112874266D01*
X89482785Y-112870866D01*
X89479259Y-112838408D01*
X89479259Y-112811194D01*
X89482785Y-112778736D01*
X89482785Y-112778727D01*
X89483154Y-112775335D01*
X89483154Y-112374267D01*
X89480290Y-112347908D01*
X89492817Y-112278028D01*
X89541137Y-112226011D01*
X89605553Y-112208300D01*
X92816433Y-112208300D01*
X92827616Y-112208827D01*
X92835109Y-112210502D01*
X92843035Y-112210253D01*
X92843036Y-112210253D01*
X92903186Y-112208362D01*
X92907145Y-112208300D01*
X92935056Y-112208300D01*
X92938991Y-112207803D01*
X92939056Y-112207795D01*
X92950893Y-112206862D01*
X92983151Y-112205848D01*
X92987170Y-112205722D01*
X92995089Y-112205473D01*
X93014543Y-112199821D01*
X93033900Y-112195813D01*
X93046130Y-112194268D01*
X93046131Y-112194268D01*
X93053997Y-112193274D01*
X93061368Y-112190355D01*
X93061370Y-112190355D01*
X93095112Y-112176996D01*
X93106342Y-112173151D01*
X93141183Y-112163029D01*
X93141184Y-112163029D01*
X93148793Y-112160818D01*
X93155612Y-112156785D01*
X93155617Y-112156783D01*
X93166228Y-112150507D01*
X93183976Y-112141812D01*
X93202817Y-112134352D01*
X93238587Y-112108364D01*
X93248507Y-112101848D01*
X93279735Y-112083380D01*
X93279738Y-112083378D01*
X93286562Y-112079342D01*
X93300883Y-112065021D01*
X93315917Y-112052180D01*
X93325894Y-112044931D01*
X93332307Y-112040272D01*
X93360498Y-112006195D01*
X93368488Y-111997416D01*
X101065500Y-104300405D01*
X101127812Y-104266379D01*
X101154595Y-104263500D01*
X105163139Y-104263500D01*
X105231260Y-104283502D01*
X105266036Y-104316779D01*
X105326204Y-104401914D01*
X105330342Y-104405945D01*
X105469741Y-104541741D01*
X105504579Y-104603602D01*
X105500442Y-104674478D01*
X105464899Y-104726726D01*
X105367842Y-104811842D01*
X105364270Y-104816373D01*
X105248263Y-104963527D01*
X105233181Y-104982658D01*
X105131905Y-105175154D01*
X105130192Y-105180671D01*
X105081150Y-105338611D01*
X105067403Y-105382882D01*
X105041837Y-105598887D01*
X105056063Y-105815933D01*
X105057484Y-105821529D01*
X105057485Y-105821534D01*
X105106249Y-106013540D01*
X105109605Y-106026753D01*
X105200668Y-106224285D01*
X105326204Y-106401914D01*
X105482009Y-106553692D01*
X105662863Y-106674536D01*
X105668171Y-106676817D01*
X105668172Y-106676817D01*
X105857409Y-106758119D01*
X105857412Y-106758120D01*
X105862712Y-106760397D01*
X105868342Y-106761671D01*
X105966464Y-106783874D01*
X106074860Y-106808402D01*
X106080631Y-106808629D01*
X106080633Y-106808629D01*
X106153620Y-106811496D01*
X106292205Y-106816941D01*
X106507466Y-106785730D01*
X106512930Y-106783875D01*
X106512935Y-106783874D01*
X106707963Y-106717671D01*
X106707968Y-106717669D01*
X106713435Y-106715813D01*
X106903213Y-106609532D01*
X107070446Y-106470446D01*
X107209532Y-106303213D01*
X107315813Y-106113435D01*
X107317669Y-106107968D01*
X107317671Y-106107963D01*
X107383874Y-105912935D01*
X107383875Y-105912930D01*
X107385730Y-105907466D01*
X107416941Y-105692205D01*
X107418570Y-105630000D01*
X107398667Y-105413400D01*
X107391545Y-105388145D01*
X107341195Y-105209619D01*
X107339626Y-105204055D01*
X107243423Y-105008974D01*
X107113280Y-104834691D01*
X106991078Y-104721729D01*
X106954633Y-104660800D01*
X106956914Y-104589840D01*
X106996038Y-104532330D01*
X107066008Y-104474137D01*
X107070446Y-104470446D01*
X107209532Y-104303213D01*
X107315813Y-104113435D01*
X107317669Y-104107968D01*
X107317671Y-104107963D01*
X107383874Y-103912935D01*
X107383875Y-103912930D01*
X107385730Y-103907466D01*
X107416941Y-103692205D01*
X107418570Y-103630000D01*
X107398667Y-103413400D01*
X107339626Y-103204055D01*
X107243423Y-103008974D01*
X107113280Y-102834691D01*
X107055636Y-102781405D01*
X106991078Y-102721729D01*
X106954633Y-102660800D01*
X106956914Y-102589840D01*
X106996038Y-102532330D01*
X107034980Y-102499943D01*
X107070446Y-102470446D01*
X107209532Y-102303213D01*
X107294424Y-102151628D01*
X107312989Y-102118478D01*
X107312990Y-102118476D01*
X107315813Y-102113435D01*
X107317669Y-102107968D01*
X107317671Y-102107963D01*
X107383874Y-101912935D01*
X107383875Y-101912930D01*
X107385730Y-101907466D01*
X107416941Y-101692205D01*
X107418570Y-101630000D01*
X107398667Y-101413400D01*
X107339626Y-101204055D01*
X107252707Y-101027800D01*
X107245978Y-101014155D01*
X107243423Y-101008974D01*
X107235043Y-100997751D01*
X107116733Y-100839315D01*
X107116732Y-100839314D01*
X107113280Y-100834691D01*
X106991078Y-100721729D01*
X106954633Y-100660800D01*
X106956914Y-100589840D01*
X106996038Y-100532330D01*
X107066008Y-100474137D01*
X107070446Y-100470446D01*
X107209532Y-100303213D01*
X107315813Y-100113435D01*
X107317669Y-100107968D01*
X107317671Y-100107963D01*
X107383874Y-99912935D01*
X107383875Y-99912930D01*
X107385730Y-99907466D01*
X107416941Y-99692205D01*
X107418570Y-99630000D01*
X107398667Y-99413400D01*
X107339626Y-99204055D01*
X107243423Y-99008974D01*
X107235043Y-98997751D01*
X107116733Y-98839315D01*
X107116732Y-98839314D01*
X107113280Y-98834691D01*
X107086492Y-98809928D01*
X106991078Y-98721729D01*
X106954633Y-98660800D01*
X106956914Y-98589840D01*
X106996038Y-98532330D01*
X107066008Y-98474137D01*
X107070446Y-98470446D01*
X107209532Y-98303213D01*
X107315813Y-98113435D01*
X107317669Y-98107968D01*
X107317671Y-98107963D01*
X107383874Y-97912935D01*
X107383875Y-97912930D01*
X107385730Y-97907466D01*
X107416941Y-97692205D01*
X107418570Y-97630000D01*
X107398667Y-97413400D01*
X107339626Y-97204055D01*
X107252707Y-97027801D01*
X107245978Y-97014155D01*
X107243423Y-97008974D01*
X107138842Y-96868922D01*
X107116733Y-96839315D01*
X107116732Y-96839314D01*
X107113280Y-96834691D01*
X107085683Y-96809180D01*
X106991078Y-96721729D01*
X106954633Y-96660800D01*
X106956914Y-96589840D01*
X106996038Y-96532330D01*
X107066008Y-96474137D01*
X107070446Y-96470446D01*
X107209532Y-96303213D01*
X107315813Y-96113435D01*
X107317669Y-96107968D01*
X107317671Y-96107963D01*
X107383874Y-95912935D01*
X107383875Y-95912930D01*
X107385730Y-95907466D01*
X107416941Y-95692205D01*
X107418570Y-95630000D01*
X107398667Y-95413400D01*
X107381401Y-95352177D01*
X107341195Y-95209619D01*
X107339626Y-95204055D01*
X107243423Y-95008974D01*
X107113280Y-94834691D01*
X106991078Y-94721729D01*
X106954633Y-94660800D01*
X106956914Y-94589840D01*
X106996038Y-94532330D01*
X107066008Y-94474137D01*
X107070446Y-94470446D01*
X107209532Y-94303213D01*
X107315813Y-94113435D01*
X107317669Y-94107968D01*
X107317671Y-94107963D01*
X107383874Y-93912935D01*
X107383875Y-93912930D01*
X107385730Y-93907466D01*
X107416941Y-93692205D01*
X107418570Y-93630000D01*
X107398667Y-93413400D01*
X107339626Y-93204055D01*
X107252708Y-93027802D01*
X107245978Y-93014155D01*
X107243423Y-93008974D01*
X107234480Y-92996997D01*
X107116733Y-92839315D01*
X107116732Y-92839314D01*
X107113280Y-92834691D01*
X106953556Y-92687044D01*
X106769599Y-92570976D01*
X106567572Y-92490376D01*
X106354239Y-92447941D01*
X106348464Y-92447865D01*
X106348460Y-92447865D01*
X106239419Y-92446438D01*
X106136746Y-92445094D01*
X106131049Y-92446073D01*
X106131048Y-92446073D01*
X105928065Y-92480952D01*
X105928062Y-92480953D01*
X105922375Y-92481930D01*
X105718307Y-92557214D01*
X105531376Y-92668427D01*
X105367842Y-92811842D01*
X105364270Y-92816373D01*
X105260104Y-92948506D01*
X105202222Y-92989619D01*
X105161154Y-92996500D01*
X100448768Y-92996500D01*
X100437585Y-92995973D01*
X100430092Y-92994298D01*
X100422166Y-92994547D01*
X100422165Y-92994547D01*
X100362002Y-92996438D01*
X100358044Y-92996500D01*
X100330144Y-92996500D01*
X100326154Y-92997004D01*
X100314320Y-92997936D01*
X100270111Y-92999326D01*
X100262497Y-93001538D01*
X100262492Y-93001539D01*
X100250659Y-93004977D01*
X100231296Y-93008988D01*
X100211203Y-93011526D01*
X100203836Y-93014443D01*
X100203831Y-93014444D01*
X100170092Y-93027802D01*
X100158865Y-93031646D01*
X100116407Y-93043982D01*
X100109581Y-93048019D01*
X100098972Y-93054293D01*
X100081224Y-93062988D01*
X100062383Y-93070448D01*
X100055967Y-93075110D01*
X100055966Y-93075110D01*
X100026613Y-93096436D01*
X100016693Y-93102952D01*
X99985465Y-93121420D01*
X99985462Y-93121422D01*
X99978638Y-93125458D01*
X99964317Y-93139779D01*
X99949284Y-93152619D01*
X99932893Y-93164528D01*
X99927842Y-93170634D01*
X99904702Y-93198605D01*
X99896712Y-93207384D01*
X94537747Y-98566348D01*
X94529461Y-98573888D01*
X94522982Y-98578000D01*
X94517557Y-98583777D01*
X94476357Y-98627651D01*
X94473602Y-98630493D01*
X94453865Y-98650230D01*
X94451385Y-98653427D01*
X94443682Y-98662447D01*
X94413414Y-98694679D01*
X94409595Y-98701625D01*
X94409593Y-98701628D01*
X94403652Y-98712434D01*
X94392801Y-98728953D01*
X94380386Y-98744959D01*
X94377241Y-98752228D01*
X94377238Y-98752232D01*
X94362826Y-98785537D01*
X94357609Y-98796187D01*
X94336305Y-98834940D01*
X94334334Y-98842615D01*
X94334334Y-98842616D01*
X94331267Y-98854562D01*
X94324863Y-98873266D01*
X94316819Y-98891855D01*
X94315580Y-98899678D01*
X94315577Y-98899688D01*
X94309901Y-98935524D01*
X94307495Y-98947144D01*
X94298472Y-98982289D01*
X94296500Y-98989970D01*
X94296500Y-99010224D01*
X94294949Y-99029934D01*
X94291780Y-99049943D01*
X94292526Y-99057835D01*
X94295941Y-99093961D01*
X94296500Y-99105819D01*
X94296500Y-104895406D01*
X94276498Y-104963527D01*
X94259595Y-104984501D01*
X90339701Y-108904394D01*
X90277389Y-108938420D01*
X90250606Y-108941299D01*
X89162882Y-108941299D01*
X89118652Y-108933281D01*
X89084970Y-108920654D01*
X89022788Y-108913899D01*
X87021520Y-108913899D01*
X86959338Y-108920654D01*
X86822949Y-108971784D01*
X86706393Y-109059138D01*
X86619039Y-109175694D01*
X86567909Y-109312083D01*
X86561154Y-109374265D01*
X86561154Y-109775333D01*
X86565050Y-109811195D01*
X86565050Y-109838405D01*
X86561154Y-109874267D01*
X86561154Y-110275335D01*
X86561523Y-110278727D01*
X86561523Y-110278736D01*
X86565049Y-110311194D01*
X86565049Y-110338408D01*
X86561523Y-110370866D01*
X86561154Y-110374266D01*
X86561154Y-110775334D01*
X86561523Y-110778726D01*
X86561523Y-110778735D01*
X86565049Y-110811193D01*
X86565049Y-110838407D01*
X86561523Y-110870865D01*
X86561154Y-110874265D01*
X86561154Y-111275333D01*
X86565050Y-111311194D01*
X86565050Y-111338404D01*
X86561154Y-111374266D01*
X86561154Y-111775334D01*
X86561523Y-111778727D01*
X86561523Y-111778734D01*
X86565049Y-111811192D01*
X86565049Y-111838406D01*
X86561523Y-111870864D01*
X86561154Y-111874265D01*
X86561154Y-112275333D01*
X86565050Y-112311195D01*
X86565050Y-112338405D01*
X86561154Y-112374267D01*
X86561154Y-112775335D01*
X86561523Y-112778727D01*
X86561523Y-112778736D01*
X86565049Y-112811194D01*
X86565049Y-112838408D01*
X86561523Y-112870866D01*
X86561154Y-112874266D01*
X86561154Y-113275334D01*
X86561523Y-113278727D01*
X86561523Y-113278734D01*
X86565049Y-113311192D01*
X86565049Y-113338406D01*
X86561523Y-113370864D01*
X86561154Y-113374265D01*
X86561154Y-113775333D01*
X86565050Y-113811195D01*
X86565050Y-113838405D01*
X86561154Y-113874266D01*
X86561154Y-114275334D01*
X86561523Y-114278726D01*
X86561523Y-114278735D01*
X86565049Y-114311193D01*
X86565049Y-114338407D01*
X86561523Y-114370865D01*
X86561154Y-114374265D01*
X86561154Y-114775333D01*
X86565050Y-114811195D01*
X86565050Y-114838405D01*
X86561154Y-114874267D01*
X86561154Y-115275335D01*
X86561523Y-115278728D01*
X86561523Y-115278735D01*
X86565049Y-115311193D01*
X86565049Y-115338407D01*
X86561523Y-115370865D01*
X86561154Y-115374266D01*
X86561154Y-115775334D01*
X86561523Y-115778727D01*
X86561523Y-115778734D01*
X86565049Y-115811192D01*
X86565049Y-115838406D01*
X86561523Y-115870864D01*
X86561154Y-115874265D01*
X86561154Y-116275333D01*
X86565050Y-116311194D01*
X86565050Y-116338404D01*
X86561154Y-116374266D01*
X86561154Y-116775334D01*
X86561523Y-116778726D01*
X86561523Y-116778735D01*
X86565049Y-116811193D01*
X86565049Y-116838407D01*
X86561523Y-116870865D01*
X86561154Y-116874265D01*
X86561154Y-117275333D01*
X86565050Y-117311195D01*
X86565050Y-117338405D01*
X86561154Y-117374267D01*
X86561154Y-117775335D01*
X86561523Y-117778728D01*
X86561523Y-117778735D01*
X86565049Y-117811193D01*
X86565049Y-117838407D01*
X86561523Y-117870865D01*
X86561154Y-117874266D01*
X86561154Y-118275334D01*
X86561523Y-118278726D01*
X86561523Y-118278735D01*
X86565049Y-118311193D01*
X86565049Y-118338407D01*
X86561523Y-118370865D01*
X86561154Y-118374265D01*
X86561154Y-118775333D01*
X86565050Y-118811195D01*
X86565050Y-118838405D01*
X86561154Y-118874266D01*
X86561154Y-119275334D01*
X86561523Y-119278727D01*
X86561523Y-119278734D01*
X86565049Y-119311192D01*
X86565049Y-119338406D01*
X86561523Y-119370864D01*
X86561154Y-119374265D01*
X86561154Y-119775333D01*
X86565050Y-119811195D01*
X86565050Y-119838405D01*
X86561154Y-119874267D01*
X86561154Y-120275335D01*
X86561523Y-120278727D01*
X86561523Y-120278736D01*
X86565049Y-120311194D01*
X86565049Y-120338408D01*
X86561523Y-120370866D01*
X86561154Y-120374266D01*
X86561154Y-120775334D01*
X86561523Y-120778726D01*
X86561523Y-120778735D01*
X86565049Y-120811193D01*
X86565049Y-120838407D01*
X86561523Y-120870865D01*
X86561154Y-120874265D01*
X86561154Y-121275333D01*
X86565050Y-121311195D01*
X86565050Y-121338405D01*
X86561154Y-121374266D01*
X86561154Y-121775334D01*
X86565050Y-121811195D01*
X86565050Y-121838405D01*
X86561154Y-121874266D01*
X86561154Y-122275334D01*
X86561523Y-122278727D01*
X86561523Y-122278734D01*
X86565049Y-122311192D01*
X86565049Y-122338406D01*
X86561523Y-122370864D01*
X86561154Y-122374264D01*
X86561154Y-122775332D01*
X86565050Y-122811194D01*
X86565050Y-122838404D01*
X86561154Y-122874266D01*
X86561154Y-123275334D01*
X86561523Y-123278726D01*
X86561523Y-123278735D01*
X86565049Y-123311193D01*
X86565049Y-123338407D01*
X86561523Y-123370865D01*
X86561154Y-123374265D01*
X86561154Y-123775333D01*
X86565050Y-123811195D01*
X86565050Y-123838405D01*
X86561154Y-123874267D01*
X86561154Y-124275335D01*
X86561523Y-124278728D01*
X86561523Y-124278735D01*
X86565049Y-124311193D01*
X86565049Y-124338407D01*
X86561523Y-124370865D01*
X86561154Y-124374266D01*
X86561154Y-124775334D01*
X86561523Y-124778727D01*
X86561523Y-124778734D01*
X86565049Y-124811192D01*
X86565049Y-124838406D01*
X86561523Y-124870864D01*
X86561154Y-124874265D01*
X86561154Y-125275333D01*
X86565050Y-125311194D01*
X86565050Y-125338404D01*
X86561154Y-125374266D01*
X86561154Y-125775334D01*
X86561523Y-125778726D01*
X86561523Y-125778735D01*
X86565049Y-125811193D01*
X86565049Y-125838407D01*
X86561523Y-125870865D01*
X86561154Y-125874265D01*
X86561154Y-126275333D01*
X86565050Y-126311195D01*
X86565050Y-126338405D01*
X86561154Y-126374267D01*
X86561154Y-126775335D01*
X86561523Y-126778728D01*
X86561523Y-126778735D01*
X86565049Y-126811193D01*
X86565049Y-126838407D01*
X86561523Y-126870865D01*
X86561154Y-126874266D01*
X86561154Y-127275334D01*
X86561523Y-127278727D01*
X86561523Y-127278734D01*
X86565049Y-127311192D01*
X86565049Y-127338406D01*
X86561523Y-127370864D01*
X86561154Y-127374265D01*
X86561154Y-127775333D01*
X86565050Y-127811194D01*
X86565050Y-127838404D01*
X86561154Y-127874266D01*
X86561154Y-128275334D01*
X86561523Y-128278727D01*
X86561523Y-128278734D01*
X86565049Y-128311192D01*
X86565049Y-128338406D01*
X86561523Y-128370864D01*
X86561154Y-128374265D01*
X86561154Y-128775333D01*
X86565050Y-128811195D01*
X86565050Y-128838405D01*
X86561154Y-128874267D01*
X86561154Y-129275335D01*
X86561523Y-129278728D01*
X86561523Y-129278735D01*
X86565049Y-129311193D01*
X86565049Y-129338407D01*
X86561523Y-129370865D01*
X86561154Y-129374266D01*
X86561154Y-129775334D01*
X86561523Y-129778727D01*
X86561523Y-129778734D01*
X86565049Y-129811192D01*
X86565049Y-129838406D01*
X86561523Y-129870864D01*
X86561154Y-129874265D01*
X86561154Y-130275333D01*
X86565050Y-130311195D01*
X86565050Y-130338405D01*
X86561154Y-130374266D01*
X86561154Y-130775334D01*
X86561523Y-130778727D01*
X86561523Y-130778734D01*
X86565049Y-130811192D01*
X86565049Y-130838406D01*
X86561523Y-130870864D01*
X86561154Y-130874265D01*
X86561154Y-131275333D01*
X86565050Y-131311195D01*
X86565050Y-131338405D01*
X86561154Y-131374267D01*
X86561154Y-131775335D01*
X86561523Y-131778728D01*
X86561523Y-131778735D01*
X86565049Y-131811193D01*
X86565049Y-131838407D01*
X86561523Y-131870865D01*
X86561154Y-131874266D01*
X86561154Y-132275334D01*
X86561523Y-132278726D01*
X86561523Y-132278735D01*
X86565049Y-132311193D01*
X86565049Y-132338407D01*
X86561523Y-132370865D01*
X86561154Y-132374265D01*
X86561154Y-132775333D01*
X86565050Y-132811194D01*
X86565050Y-132838404D01*
X86561154Y-132874266D01*
X86561154Y-133275334D01*
X86561523Y-133278727D01*
X86561523Y-133278734D01*
X86565049Y-133311192D01*
X86565049Y-133338406D01*
X86561523Y-133370864D01*
X86561154Y-133374265D01*
X86561154Y-133775333D01*
X86565050Y-133811195D01*
X86565050Y-133838405D01*
X86561154Y-133874267D01*
X86561154Y-134275335D01*
X83483150Y-134275335D01*
X83483150Y-133874267D01*
X83479254Y-133838405D01*
X83479254Y-133811195D01*
X83483150Y-133775333D01*
X83483150Y-133374265D01*
X83482781Y-133370864D01*
X83479255Y-133338406D01*
X83479255Y-133311192D01*
X83482781Y-133278734D01*
X83482781Y-133278727D01*
X83483150Y-133275334D01*
X83483150Y-132874266D01*
X83479254Y-132838404D01*
X83479254Y-132811194D01*
X83483150Y-132775333D01*
X83483150Y-132374265D01*
X83482781Y-132370865D01*
X83479255Y-132338407D01*
X83479255Y-132311193D01*
X83482781Y-132278735D01*
X83482781Y-132278726D01*
X83483150Y-132275334D01*
X83483150Y-131874266D01*
X83482781Y-131870865D01*
X83479255Y-131838407D01*
X83479255Y-131811193D01*
X83482781Y-131778735D01*
X83482781Y-131778728D01*
X83483150Y-131775335D01*
X83483150Y-131374267D01*
X83479254Y-131338405D01*
X83479254Y-131311195D01*
X83483150Y-131275333D01*
X83483150Y-130874265D01*
X83482781Y-130870864D01*
X83479255Y-130838406D01*
X83479255Y-130811192D01*
X83482781Y-130778734D01*
X83482781Y-130778727D01*
X83483150Y-130775334D01*
X83483150Y-130374266D01*
X83479254Y-130338405D01*
X83479254Y-130311195D01*
X83483150Y-130275333D01*
X83483150Y-129874265D01*
X83482781Y-129870864D01*
X83479255Y-129838406D01*
X83479255Y-129811192D01*
X83482781Y-129778734D01*
X83482781Y-129778727D01*
X83483150Y-129775334D01*
X83483150Y-129374266D01*
X83482781Y-129370865D01*
X83479255Y-129338407D01*
X83479255Y-129311193D01*
X83482781Y-129278735D01*
X83482781Y-129278728D01*
X83483150Y-129275335D01*
X83483150Y-128874267D01*
X83479254Y-128838405D01*
X83479254Y-128811195D01*
X83483150Y-128775333D01*
X83483150Y-128374265D01*
X83482781Y-128370864D01*
X83479255Y-128338406D01*
X83479255Y-128311192D01*
X83482781Y-128278734D01*
X83482781Y-128278727D01*
X83483150Y-128275334D01*
X83483150Y-127874266D01*
X83479254Y-127838404D01*
X83479254Y-127811194D01*
X83483150Y-127775333D01*
X83483150Y-127374265D01*
X83482781Y-127370864D01*
X83479255Y-127338406D01*
X83479255Y-127311192D01*
X83482781Y-127278734D01*
X83482781Y-127278727D01*
X83483150Y-127275334D01*
X83483150Y-126874266D01*
X83482781Y-126870865D01*
X83479255Y-126838407D01*
X83479255Y-126811193D01*
X83482781Y-126778735D01*
X83482781Y-126778728D01*
X83483150Y-126775335D01*
X83483150Y-126374267D01*
X83479254Y-126338405D01*
X83479254Y-126311195D01*
X83483150Y-126275333D01*
X83483150Y-125874265D01*
X83482781Y-125870865D01*
X83479255Y-125838407D01*
X83479255Y-125811193D01*
X83482781Y-125778735D01*
X83482781Y-125778726D01*
X83483150Y-125775334D01*
X83483150Y-125374266D01*
X83479254Y-125338404D01*
X83479254Y-125311194D01*
X83483150Y-125275333D01*
X83483150Y-124874265D01*
X83482781Y-124870864D01*
X83479255Y-124838406D01*
X83479255Y-124811192D01*
X83482781Y-124778734D01*
X83482781Y-124778727D01*
X83483150Y-124775334D01*
X83483150Y-124374266D01*
X83482781Y-124370865D01*
X83479255Y-124338407D01*
X83479255Y-124311193D01*
X83482781Y-124278735D01*
X83482781Y-124278728D01*
X83483150Y-124275335D01*
X83483150Y-123874267D01*
X83479254Y-123838405D01*
X83479254Y-123811195D01*
X83483150Y-123775333D01*
X83483150Y-123374265D01*
X83482781Y-123370865D01*
X83479255Y-123338407D01*
X83479255Y-123311193D01*
X83482781Y-123278735D01*
X83482781Y-123278726D01*
X83483150Y-123275334D01*
X83483150Y-122874266D01*
X83479254Y-122838404D01*
X83479254Y-122811194D01*
X83483150Y-122775332D01*
X83483150Y-122374264D01*
X83482781Y-122370864D01*
X83479255Y-122338406D01*
X83479255Y-122311192D01*
X83482781Y-122278734D01*
X83482781Y-122278727D01*
X83483150Y-122275334D01*
X83483150Y-121874266D01*
X83479254Y-121838405D01*
X83479254Y-121811195D01*
X83483150Y-121775334D01*
X83483150Y-121374266D01*
X83479254Y-121338405D01*
X83479254Y-121311195D01*
X83483150Y-121275333D01*
X83483150Y-120874265D01*
X83482781Y-120870865D01*
X83479255Y-120838407D01*
X83479255Y-120811193D01*
X83482781Y-120778735D01*
X83482781Y-120778726D01*
X83483150Y-120775334D01*
X83483150Y-120374266D01*
X83482781Y-120370866D01*
X83479255Y-120338408D01*
X83479255Y-120311194D01*
X83482781Y-120278736D01*
X83482781Y-120278727D01*
X83483150Y-120275335D01*
X83483150Y-119874267D01*
X83479254Y-119838405D01*
X83479254Y-119811195D01*
X83483150Y-119775333D01*
X83483150Y-119374265D01*
X83482781Y-119370864D01*
X83479255Y-119338406D01*
X83479255Y-119311192D01*
X83482781Y-119278734D01*
X83482781Y-119278727D01*
X83483150Y-119275334D01*
X83483150Y-118874266D01*
X83479254Y-118838405D01*
X83479254Y-118811195D01*
X83483150Y-118775333D01*
X83483150Y-118374265D01*
X83482781Y-118370865D01*
X83479255Y-118338407D01*
X83479255Y-118311193D01*
X83482781Y-118278735D01*
X83482781Y-118278726D01*
X83483150Y-118275334D01*
X83483150Y-117874266D01*
X83482781Y-117870865D01*
X83479255Y-117838407D01*
X83479255Y-117811193D01*
X83482781Y-117778735D01*
X83482781Y-117778728D01*
X83483150Y-117775335D01*
X83483150Y-117374267D01*
X83479254Y-117338405D01*
X83479254Y-117311195D01*
X83483150Y-117275333D01*
X83483150Y-116874265D01*
X83482781Y-116870865D01*
X83479255Y-116838407D01*
X83479255Y-116811193D01*
X83482781Y-116778735D01*
X83482781Y-116778726D01*
X83483150Y-116775334D01*
X83483150Y-116374266D01*
X83479254Y-116338404D01*
X83479254Y-116311194D01*
X83483150Y-116275333D01*
X83483150Y-115874265D01*
X83482781Y-115870864D01*
X83479255Y-115838406D01*
X83479255Y-115811192D01*
X83482781Y-115778734D01*
X83482781Y-115778727D01*
X83483150Y-115775334D01*
X83483150Y-115374266D01*
X83482781Y-115370865D01*
X83479255Y-115338407D01*
X83479255Y-115311193D01*
X83482781Y-115278735D01*
X83482781Y-115278728D01*
X83483150Y-115275335D01*
X83483150Y-114874267D01*
X83479254Y-114838405D01*
X83479254Y-114811195D01*
X83483150Y-114775333D01*
X83483150Y-114374265D01*
X83482781Y-114370865D01*
X83479255Y-114338407D01*
X83479255Y-114311193D01*
X83482781Y-114278735D01*
X83482781Y-114278726D01*
X83483150Y-114275334D01*
X83483150Y-113874266D01*
X83479254Y-113838405D01*
X83479254Y-113811195D01*
X83483150Y-113775333D01*
X83483150Y-113374265D01*
X83482781Y-113370864D01*
X83479255Y-113338406D01*
X83479255Y-113311192D01*
X83482781Y-113278734D01*
X83482781Y-113278727D01*
X83483150Y-113275334D01*
X83483150Y-112874266D01*
X83482781Y-112870866D01*
X83479255Y-112838408D01*
X83479255Y-112811194D01*
X83482781Y-112778736D01*
X83482781Y-112778727D01*
X83483150Y-112775335D01*
X83483150Y-112374267D01*
X83479254Y-112338405D01*
X83479254Y-112311195D01*
X83483150Y-112275333D01*
X83483150Y-111874265D01*
X83482781Y-111870864D01*
X83479255Y-111838406D01*
X83479255Y-111811192D01*
X83482781Y-111778734D01*
X83482781Y-111778727D01*
X83483150Y-111775334D01*
X83483150Y-111374266D01*
X83479254Y-111338404D01*
X83479254Y-111311194D01*
X83483150Y-111275333D01*
X83483150Y-110874265D01*
X83482781Y-110870865D01*
X83479255Y-110838407D01*
X83479255Y-110811193D01*
X83482781Y-110778735D01*
X83482781Y-110778726D01*
X83483150Y-110775334D01*
X83483150Y-110374266D01*
X83482781Y-110370866D01*
X83479255Y-110338408D01*
X83479255Y-110311194D01*
X83482781Y-110278736D01*
X83482781Y-110278727D01*
X83483150Y-110275335D01*
X83483150Y-109874267D01*
X83479254Y-109838405D01*
X83479254Y-109811195D01*
X83483150Y-109775333D01*
X83483150Y-109374265D01*
X83476395Y-109312083D01*
X83425265Y-109175694D01*
X83337911Y-109059138D01*
X83221355Y-108971784D01*
X83084966Y-108920654D01*
X83022784Y-108913899D01*
X81021516Y-108913899D01*
X80959334Y-108920654D01*
X80822945Y-108971784D01*
X80706389Y-109059138D01*
X80619035Y-109175694D01*
X80567905Y-109312083D01*
X80561150Y-109374265D01*
X80561150Y-109775333D01*
X80565046Y-109811195D01*
X80565046Y-109838405D01*
X80561150Y-109874267D01*
X80561150Y-110275335D01*
X80561519Y-110278727D01*
X80561519Y-110278736D01*
X80565045Y-110311194D01*
X80565045Y-110338408D01*
X80561519Y-110370866D01*
X80561150Y-110374266D01*
X80561150Y-110775334D01*
X80561519Y-110778726D01*
X80561519Y-110778735D01*
X80565045Y-110811193D01*
X80565045Y-110838407D01*
X80561519Y-110870865D01*
X80561150Y-110874265D01*
X80561150Y-111275333D01*
X80565046Y-111311194D01*
X80565046Y-111338404D01*
X80561150Y-111374266D01*
X80561150Y-111775334D01*
X80561519Y-111778727D01*
X80561519Y-111778734D01*
X80565045Y-111811192D01*
X80565045Y-111838406D01*
X80561519Y-111870864D01*
X80561150Y-111874265D01*
X80561150Y-112275333D01*
X80565046Y-112311195D01*
X80565046Y-112338405D01*
X80561150Y-112374267D01*
X80561150Y-112775335D01*
X80561519Y-112778727D01*
X80561519Y-112778736D01*
X80565045Y-112811194D01*
X80565045Y-112838408D01*
X80561519Y-112870866D01*
X80561150Y-112874266D01*
X80561150Y-113275334D01*
X80561519Y-113278727D01*
X80561519Y-113278734D01*
X80565045Y-113311192D01*
X80565045Y-113338406D01*
X80561519Y-113370864D01*
X80561150Y-113374265D01*
X80561150Y-113775333D01*
X80565046Y-113811195D01*
X80565046Y-113838405D01*
X80561150Y-113874266D01*
X80561150Y-114275334D01*
X80561519Y-114278726D01*
X80561519Y-114278735D01*
X80565045Y-114311193D01*
X80565045Y-114338407D01*
X80561519Y-114370865D01*
X80561150Y-114374265D01*
X80561150Y-114775333D01*
X80565046Y-114811195D01*
X80565046Y-114838405D01*
X80561150Y-114874267D01*
X80561150Y-115275335D01*
X80561519Y-115278728D01*
X80561519Y-115278735D01*
X80565045Y-115311193D01*
X80565045Y-115338407D01*
X80561519Y-115370865D01*
X80561150Y-115374266D01*
X80561150Y-115775334D01*
X80561519Y-115778727D01*
X80561519Y-115778734D01*
X80565045Y-115811192D01*
X80565045Y-115838406D01*
X80561519Y-115870864D01*
X80561150Y-115874265D01*
X80561150Y-116275333D01*
X80565046Y-116311194D01*
X80565046Y-116338404D01*
X80561150Y-116374266D01*
X80561150Y-116775334D01*
X80561519Y-116778726D01*
X80561519Y-116778735D01*
X80565045Y-116811193D01*
X80565045Y-116838407D01*
X80561519Y-116870865D01*
X80561150Y-116874265D01*
X80561150Y-117275333D01*
X80565046Y-117311195D01*
X80565046Y-117338405D01*
X80561150Y-117374267D01*
X80561150Y-117775335D01*
X80561519Y-117778728D01*
X80561519Y-117778735D01*
X80565045Y-117811193D01*
X80565045Y-117838407D01*
X80561519Y-117870865D01*
X80561150Y-117874266D01*
X80561150Y-118275334D01*
X80561519Y-118278726D01*
X80561519Y-118278735D01*
X80565045Y-118311193D01*
X80565045Y-118338407D01*
X80561519Y-118370865D01*
X80561150Y-118374265D01*
X80561150Y-118775333D01*
X80565046Y-118811195D01*
X80565046Y-118838405D01*
X80561150Y-118874266D01*
X80561150Y-119275334D01*
X80561519Y-119278727D01*
X80561519Y-119278734D01*
X80565045Y-119311192D01*
X80565045Y-119338406D01*
X80561519Y-119370864D01*
X80561150Y-119374265D01*
X80561150Y-119775333D01*
X80565046Y-119811195D01*
X80565046Y-119838405D01*
X80561150Y-119874267D01*
X80561150Y-120275335D01*
X80561519Y-120278727D01*
X80561519Y-120278736D01*
X80565045Y-120311194D01*
X80565045Y-120338408D01*
X80561519Y-120370866D01*
X80561150Y-120374266D01*
X80561150Y-120775334D01*
X80561519Y-120778726D01*
X80561519Y-120778735D01*
X80565045Y-120811193D01*
X80565045Y-120838407D01*
X80561519Y-120870865D01*
X80561150Y-120874265D01*
X80561150Y-121275333D01*
X80565046Y-121311195D01*
X80565046Y-121338405D01*
X80561150Y-121374266D01*
X80561150Y-121775334D01*
X80565046Y-121811195D01*
X80565046Y-121838405D01*
X80561150Y-121874266D01*
X80561150Y-122275334D01*
X80561519Y-122278727D01*
X80561519Y-122278734D01*
X80565045Y-122311192D01*
X80565045Y-122338406D01*
X80561519Y-122370864D01*
X80561150Y-122374264D01*
X80561150Y-122775332D01*
X80565046Y-122811194D01*
X80565046Y-122838404D01*
X80561150Y-122874266D01*
X80561150Y-123275334D01*
X80561519Y-123278726D01*
X80561519Y-123278735D01*
X80565045Y-123311193D01*
X80565045Y-123338407D01*
X80561519Y-123370865D01*
X80561150Y-123374265D01*
X80561150Y-123775333D01*
X80565046Y-123811195D01*
X80565046Y-123838405D01*
X80561150Y-123874267D01*
X80561150Y-124275335D01*
X80561519Y-124278728D01*
X80561519Y-124278735D01*
X80565045Y-124311193D01*
X80565045Y-124338407D01*
X80561519Y-124370865D01*
X80561150Y-124374266D01*
X80561150Y-124775334D01*
X80561519Y-124778727D01*
X80561519Y-124778734D01*
X80565045Y-124811192D01*
X80565045Y-124838406D01*
X80561519Y-124870864D01*
X80561150Y-124874265D01*
X80561150Y-125275333D01*
X80565046Y-125311195D01*
X80565046Y-125338405D01*
X80561150Y-125374266D01*
X80561150Y-125775334D01*
X80561519Y-125778726D01*
X80561519Y-125778735D01*
X80565045Y-125811193D01*
X80565045Y-125838407D01*
X80561519Y-125870865D01*
X80561150Y-125874265D01*
X80561150Y-126275333D01*
X80565046Y-126311195D01*
X80565046Y-126338405D01*
X80561150Y-126374267D01*
X80561150Y-126775335D01*
X80561519Y-126778728D01*
X80561519Y-126778735D01*
X80565045Y-126811193D01*
X80565045Y-126838407D01*
X80561519Y-126870865D01*
X80561150Y-126874266D01*
X80561150Y-127275334D01*
X80561519Y-127278727D01*
X80561519Y-127278734D01*
X80565045Y-127311192D01*
X80565045Y-127338406D01*
X80561519Y-127370864D01*
X80561150Y-127374265D01*
X80561150Y-127775333D01*
X80565046Y-127811195D01*
X80565046Y-127838405D01*
X80561150Y-127874266D01*
X80561150Y-128275334D01*
X80561519Y-128278727D01*
X80561519Y-128278734D01*
X80565045Y-128311192D01*
X80565045Y-128338406D01*
X80561519Y-128370864D01*
X80561150Y-128374265D01*
X80561150Y-128775333D01*
X80565046Y-128811195D01*
X80565046Y-128838405D01*
X80561150Y-128874267D01*
X80561150Y-129275335D01*
X80561519Y-129278728D01*
X80561519Y-129278735D01*
X80565045Y-129311193D01*
X80565045Y-129338407D01*
X80561519Y-129370865D01*
X80561150Y-129374266D01*
X80561150Y-129775334D01*
X80561519Y-129778726D01*
X80561519Y-129778735D01*
X80565045Y-129811193D01*
X80565045Y-129838407D01*
X80561519Y-129870864D01*
X80561150Y-129874265D01*
X80561150Y-130275333D01*
X80565046Y-130311194D01*
X80565046Y-130338404D01*
X80561150Y-130374266D01*
X80561150Y-130775334D01*
X80561519Y-130778727D01*
X80561519Y-130778734D01*
X80565045Y-130811192D01*
X80565045Y-130838406D01*
X80561519Y-130870864D01*
X80561150Y-130874265D01*
X80561150Y-131275333D01*
X80565046Y-131311195D01*
X80565046Y-131338405D01*
X80561150Y-131374267D01*
X80561150Y-131775335D01*
X80561519Y-131778727D01*
X80561519Y-131778736D01*
X80565045Y-131811194D01*
X80565045Y-131838408D01*
X80561519Y-131870865D01*
X80561150Y-131874266D01*
X80561150Y-132275334D01*
X80561519Y-132278726D01*
X80561519Y-132278735D01*
X80565045Y-132311193D01*
X80565045Y-132338407D01*
X80561519Y-132370865D01*
X80561150Y-132374265D01*
X80561150Y-132775333D01*
X80565046Y-132811194D01*
X80565046Y-132838404D01*
X80561150Y-132874266D01*
X80561150Y-133275334D01*
X80561519Y-133278727D01*
X80561519Y-133278734D01*
X80565045Y-133311192D01*
X80565045Y-133338406D01*
X80561519Y-133370864D01*
X80561150Y-133374265D01*
X80561150Y-133775333D01*
X80565046Y-133811195D01*
X80565046Y-133838405D01*
X80561150Y-133874267D01*
X80561150Y-134275335D01*
X75018500Y-134275335D01*
X75018500Y-107040232D01*
X79882542Y-107040232D01*
X79895891Y-107271739D01*
X79946871Y-107497957D01*
X80034115Y-107712811D01*
X80155278Y-107910531D01*
X80307106Y-108085806D01*
X80485523Y-108233931D01*
X80489975Y-108236533D01*
X80489980Y-108236536D01*
X80681279Y-108348322D01*
X80685737Y-108350927D01*
X80902371Y-108433651D01*
X80907439Y-108434682D01*
X80907442Y-108434683D01*
X81019243Y-108457429D01*
X81129607Y-108479883D01*
X81134780Y-108480073D01*
X81134783Y-108480073D01*
X81356179Y-108488191D01*
X81356183Y-108488191D01*
X81361343Y-108488380D01*
X81366463Y-108487724D01*
X81366465Y-108487724D01*
X81437262Y-108478655D01*
X81591355Y-108458915D01*
X81596304Y-108457430D01*
X81596310Y-108457429D01*
X81808523Y-108393762D01*
X81813466Y-108392279D01*
X82021711Y-108290261D01*
X82105309Y-108230631D01*
X82206285Y-108158606D01*
X82206290Y-108158602D01*
X82210497Y-108155601D01*
X82374755Y-107991915D01*
X82510073Y-107803600D01*
X82552769Y-107717212D01*
X82610523Y-107600354D01*
X82610524Y-107600352D01*
X82612817Y-107595712D01*
X82644053Y-107492903D01*
X82678725Y-107378788D01*
X82678726Y-107378782D01*
X82680229Y-107373836D01*
X82710497Y-107143928D01*
X82712186Y-107074804D01*
X82705887Y-106998190D01*
X82693609Y-106848843D01*
X82693608Y-106848837D01*
X82693185Y-106843692D01*
X82636693Y-106618787D01*
X82544226Y-106406129D01*
X82418269Y-106211428D01*
X82390180Y-106180558D01*
X82265681Y-106043736D01*
X82265679Y-106043735D01*
X82262203Y-106039914D01*
X82258152Y-106036715D01*
X82258148Y-106036711D01*
X82084278Y-105899398D01*
X82080220Y-105896193D01*
X81877208Y-105784124D01*
X81758773Y-105742184D01*
X81663492Y-105708443D01*
X81663488Y-105708442D01*
X81658617Y-105706717D01*
X81653524Y-105705810D01*
X81653521Y-105705809D01*
X81435408Y-105666957D01*
X81435402Y-105666956D01*
X81430319Y-105666051D01*
X81341785Y-105664969D01*
X81203614Y-105663281D01*
X81203612Y-105663281D01*
X81198445Y-105663218D01*
X80969222Y-105698294D01*
X80748806Y-105770337D01*
X80744218Y-105772725D01*
X80744214Y-105772727D01*
X80547704Y-105875024D01*
X80543115Y-105877413D01*
X80538982Y-105880516D01*
X80538979Y-105880518D01*
X80510698Y-105901752D01*
X80357675Y-106016645D01*
X80197466Y-106184295D01*
X80194552Y-106188567D01*
X80194551Y-106188568D01*
X80113313Y-106307659D01*
X80066789Y-106375860D01*
X80064609Y-106380557D01*
X79982752Y-106556902D01*
X79969154Y-106586196D01*
X79907184Y-106809653D01*
X79882542Y-107040232D01*
X75018500Y-107040232D01*
X75018500Y-103074799D01*
X82408553Y-103074799D01*
X82428510Y-103302903D01*
X82429934Y-103308216D01*
X82429934Y-103308218D01*
X82458118Y-103413400D01*
X82487773Y-103524076D01*
X82490095Y-103529057D01*
X82490096Y-103529058D01*
X82582216Y-103726611D01*
X82582219Y-103726616D01*
X82584542Y-103731598D01*
X82587698Y-103736105D01*
X82587699Y-103736107D01*
X82711228Y-103912524D01*
X82715877Y-103919164D01*
X82877787Y-104081074D01*
X83065352Y-104212409D01*
X83070334Y-104214732D01*
X83070339Y-104214735D01*
X83254061Y-104300405D01*
X83272875Y-104309178D01*
X83278183Y-104310600D01*
X83278185Y-104310601D01*
X83488733Y-104367017D01*
X83488735Y-104367017D01*
X83494048Y-104368441D01*
X83722152Y-104388398D01*
X83950256Y-104368441D01*
X83955569Y-104367017D01*
X83955571Y-104367017D01*
X84166119Y-104310601D01*
X84166121Y-104310600D01*
X84171429Y-104309178D01*
X84190243Y-104300405D01*
X84373965Y-104214735D01*
X84373970Y-104214732D01*
X84378952Y-104212409D01*
X84566517Y-104081074D01*
X84728427Y-103919164D01*
X84733077Y-103912524D01*
X84856605Y-103736107D01*
X84856606Y-103736105D01*
X84859762Y-103731598D01*
X84862085Y-103726616D01*
X84862088Y-103726611D01*
X84907957Y-103628243D01*
X84954874Y-103574958D01*
X85023151Y-103555497D01*
X85091111Y-103576039D01*
X85136347Y-103628243D01*
X85182216Y-103726611D01*
X85182219Y-103726616D01*
X85184542Y-103731598D01*
X85187698Y-103736105D01*
X85187699Y-103736107D01*
X85311228Y-103912524D01*
X85315877Y-103919164D01*
X85477787Y-104081074D01*
X85665352Y-104212409D01*
X85670334Y-104214732D01*
X85670339Y-104214735D01*
X85854061Y-104300405D01*
X85872875Y-104309178D01*
X85878183Y-104310600D01*
X85878185Y-104310601D01*
X86088733Y-104367017D01*
X86088735Y-104367017D01*
X86094048Y-104368441D01*
X86322152Y-104388398D01*
X86550256Y-104368441D01*
X86555569Y-104367017D01*
X86555571Y-104367017D01*
X86766119Y-104310601D01*
X86766121Y-104310600D01*
X86771429Y-104309178D01*
X86790243Y-104300405D01*
X86973965Y-104214735D01*
X86973970Y-104214732D01*
X86978952Y-104212409D01*
X87166517Y-104081074D01*
X87328427Y-103919164D01*
X87333077Y-103912524D01*
X87456605Y-103736107D01*
X87456606Y-103736105D01*
X87459762Y-103731598D01*
X87462085Y-103726616D01*
X87462088Y-103726611D01*
X87554208Y-103529058D01*
X87554209Y-103529057D01*
X87556531Y-103524076D01*
X87586187Y-103413400D01*
X87614370Y-103308218D01*
X87614370Y-103308216D01*
X87615794Y-103302903D01*
X87635751Y-103074799D01*
X87615794Y-102846695D01*
X87569268Y-102673056D01*
X87557954Y-102630832D01*
X87557953Y-102630830D01*
X87556531Y-102625522D01*
X87539892Y-102589840D01*
X87462088Y-102422987D01*
X87462085Y-102422982D01*
X87459762Y-102418000D01*
X87456605Y-102413491D01*
X87331586Y-102234945D01*
X87331584Y-102234942D01*
X87328427Y-102230434D01*
X87166517Y-102068524D01*
X87116894Y-102033777D01*
X87083953Y-102010712D01*
X86978952Y-101937189D01*
X86973970Y-101934866D01*
X86973965Y-101934863D01*
X86776411Y-101842743D01*
X86776410Y-101842743D01*
X86771429Y-101840420D01*
X86766121Y-101838998D01*
X86766119Y-101838997D01*
X86555571Y-101782581D01*
X86555569Y-101782581D01*
X86550256Y-101781157D01*
X86322152Y-101761200D01*
X86094048Y-101781157D01*
X86088735Y-101782581D01*
X86088733Y-101782581D01*
X85878185Y-101838997D01*
X85878183Y-101838998D01*
X85872875Y-101840420D01*
X85867894Y-101842742D01*
X85867893Y-101842743D01*
X85670340Y-101934863D01*
X85670335Y-101934866D01*
X85665353Y-101937189D01*
X85660846Y-101940345D01*
X85660844Y-101940346D01*
X85482298Y-102065365D01*
X85482295Y-102065367D01*
X85477787Y-102068524D01*
X85315877Y-102230434D01*
X85312720Y-102234942D01*
X85312718Y-102234945D01*
X85187699Y-102413491D01*
X85184542Y-102418000D01*
X85182219Y-102422982D01*
X85182216Y-102422987D01*
X85136347Y-102521355D01*
X85089430Y-102574640D01*
X85021153Y-102594101D01*
X84953193Y-102573559D01*
X84907957Y-102521355D01*
X84862088Y-102422987D01*
X84862085Y-102422982D01*
X84859762Y-102418000D01*
X84856605Y-102413491D01*
X84731586Y-102234945D01*
X84731584Y-102234942D01*
X84728427Y-102230434D01*
X84566517Y-102068524D01*
X84516894Y-102033777D01*
X84483953Y-102010712D01*
X84378952Y-101937189D01*
X84373970Y-101934866D01*
X84373965Y-101934863D01*
X84176411Y-101842743D01*
X84176410Y-101842743D01*
X84171429Y-101840420D01*
X84166121Y-101838998D01*
X84166119Y-101838997D01*
X83955571Y-101782581D01*
X83955569Y-101782581D01*
X83950256Y-101781157D01*
X83722152Y-101761200D01*
X83494048Y-101781157D01*
X83488735Y-101782581D01*
X83488733Y-101782581D01*
X83278185Y-101838997D01*
X83278183Y-101838998D01*
X83272875Y-101840420D01*
X83267894Y-101842742D01*
X83267893Y-101842743D01*
X83070340Y-101934863D01*
X83070335Y-101934866D01*
X83065353Y-101937189D01*
X83060846Y-101940345D01*
X83060844Y-101940346D01*
X82882298Y-102065365D01*
X82882295Y-102065367D01*
X82877787Y-102068524D01*
X82715877Y-102230434D01*
X82712720Y-102234942D01*
X82712718Y-102234945D01*
X82587699Y-102413491D01*
X82584542Y-102418000D01*
X82582219Y-102422982D01*
X82582216Y-102422987D01*
X82504412Y-102589840D01*
X82487773Y-102625522D01*
X82486351Y-102630830D01*
X82486350Y-102630832D01*
X82475036Y-102673056D01*
X82428510Y-102846695D01*
X82408553Y-103074799D01*
X75018500Y-103074799D01*
X75018500Y-95574801D01*
X82408553Y-95574801D01*
X82428510Y-95802905D01*
X82429934Y-95808218D01*
X82429934Y-95808220D01*
X82433502Y-95821534D01*
X82487773Y-96024078D01*
X82490095Y-96029059D01*
X82490096Y-96029060D01*
X82582216Y-96226613D01*
X82582219Y-96226618D01*
X82584542Y-96231600D01*
X82715877Y-96419166D01*
X82877787Y-96581076D01*
X83065352Y-96712411D01*
X83070334Y-96714734D01*
X83070339Y-96714737D01*
X83267893Y-96806857D01*
X83272875Y-96809180D01*
X83278183Y-96810602D01*
X83278185Y-96810603D01*
X83488733Y-96867019D01*
X83488735Y-96867019D01*
X83494048Y-96868443D01*
X83722152Y-96888400D01*
X83950256Y-96868443D01*
X83955569Y-96867019D01*
X83955571Y-96867019D01*
X84166119Y-96810603D01*
X84166121Y-96810602D01*
X84171429Y-96809180D01*
X84176411Y-96806857D01*
X84373965Y-96714737D01*
X84373970Y-96714734D01*
X84378952Y-96712411D01*
X84566517Y-96581076D01*
X84728427Y-96419166D01*
X84859762Y-96231600D01*
X84862085Y-96226618D01*
X84862088Y-96226613D01*
X84907957Y-96128245D01*
X84954874Y-96074960D01*
X85023151Y-96055499D01*
X85091111Y-96076041D01*
X85136347Y-96128245D01*
X85182216Y-96226613D01*
X85182219Y-96226618D01*
X85184542Y-96231600D01*
X85315877Y-96419166D01*
X85477787Y-96581076D01*
X85665352Y-96712411D01*
X85670334Y-96714734D01*
X85670339Y-96714737D01*
X85867893Y-96806857D01*
X85872875Y-96809180D01*
X85878183Y-96810602D01*
X85878185Y-96810603D01*
X86088733Y-96867019D01*
X86088735Y-96867019D01*
X86094048Y-96868443D01*
X86322152Y-96888400D01*
X86550256Y-96868443D01*
X86555569Y-96867019D01*
X86555571Y-96867019D01*
X86766119Y-96810603D01*
X86766121Y-96810602D01*
X86771429Y-96809180D01*
X86776411Y-96806857D01*
X86973965Y-96714737D01*
X86973970Y-96714734D01*
X86978952Y-96712411D01*
X87166517Y-96581076D01*
X87328427Y-96419166D01*
X87459762Y-96231600D01*
X87462085Y-96226618D01*
X87462088Y-96226613D01*
X87554208Y-96029060D01*
X87554209Y-96029059D01*
X87556531Y-96024078D01*
X87610803Y-95821534D01*
X87614370Y-95808220D01*
X87614370Y-95808218D01*
X87615794Y-95802905D01*
X87635751Y-95574801D01*
X87615794Y-95346697D01*
X87577573Y-95204055D01*
X87557954Y-95130834D01*
X87557953Y-95130832D01*
X87556531Y-95125524D01*
X87541879Y-95094103D01*
X87462088Y-94922989D01*
X87462085Y-94922984D01*
X87459762Y-94918002D01*
X87385428Y-94811842D01*
X87331586Y-94734947D01*
X87331584Y-94734944D01*
X87328427Y-94730436D01*
X87166517Y-94568526D01*
X87128265Y-94541741D01*
X87031716Y-94474137D01*
X86978952Y-94437191D01*
X86973970Y-94434868D01*
X86973965Y-94434865D01*
X86776411Y-94342745D01*
X86776410Y-94342745D01*
X86771429Y-94340422D01*
X86766121Y-94339000D01*
X86766119Y-94338999D01*
X86555571Y-94282583D01*
X86555569Y-94282583D01*
X86550256Y-94281159D01*
X86322152Y-94261202D01*
X86094048Y-94281159D01*
X86088735Y-94282583D01*
X86088733Y-94282583D01*
X85878185Y-94338999D01*
X85878183Y-94339000D01*
X85872875Y-94340422D01*
X85867894Y-94342744D01*
X85867893Y-94342745D01*
X85670340Y-94434865D01*
X85670335Y-94434868D01*
X85665353Y-94437191D01*
X85660846Y-94440347D01*
X85660844Y-94440348D01*
X85482298Y-94565367D01*
X85482295Y-94565369D01*
X85477787Y-94568526D01*
X85315877Y-94730436D01*
X85312720Y-94734944D01*
X85312718Y-94734947D01*
X85258876Y-94811842D01*
X85184542Y-94918002D01*
X85182219Y-94922984D01*
X85182216Y-94922989D01*
X85136347Y-95021357D01*
X85089430Y-95074642D01*
X85021153Y-95094103D01*
X84953193Y-95073561D01*
X84907957Y-95021357D01*
X84862088Y-94922989D01*
X84862085Y-94922984D01*
X84859762Y-94918002D01*
X84785428Y-94811842D01*
X84731586Y-94734947D01*
X84731584Y-94734944D01*
X84728427Y-94730436D01*
X84566517Y-94568526D01*
X84528265Y-94541741D01*
X84431716Y-94474137D01*
X84378952Y-94437191D01*
X84373970Y-94434868D01*
X84373965Y-94434865D01*
X84176411Y-94342745D01*
X84176410Y-94342745D01*
X84171429Y-94340422D01*
X84166121Y-94339000D01*
X84166119Y-94338999D01*
X83955571Y-94282583D01*
X83955569Y-94282583D01*
X83950256Y-94281159D01*
X83722152Y-94261202D01*
X83494048Y-94281159D01*
X83488735Y-94282583D01*
X83488733Y-94282583D01*
X83278185Y-94338999D01*
X83278183Y-94339000D01*
X83272875Y-94340422D01*
X83267894Y-94342744D01*
X83267893Y-94342745D01*
X83070340Y-94434865D01*
X83070335Y-94434868D01*
X83065353Y-94437191D01*
X83060846Y-94440347D01*
X83060844Y-94440348D01*
X82882298Y-94565367D01*
X82882295Y-94565369D01*
X82877787Y-94568526D01*
X82715877Y-94730436D01*
X82712720Y-94734944D01*
X82712718Y-94734947D01*
X82658876Y-94811842D01*
X82584542Y-94918002D01*
X82582219Y-94922984D01*
X82582216Y-94922989D01*
X82502425Y-95094103D01*
X82487773Y-95125524D01*
X82486351Y-95130832D01*
X82486350Y-95130834D01*
X82466731Y-95204055D01*
X82428510Y-95346697D01*
X82408553Y-95574801D01*
X75018500Y-95574801D01*
X75018500Y-91540224D01*
X79882542Y-91540224D01*
X79895891Y-91771731D01*
X79946871Y-91997949D01*
X80034115Y-92212803D01*
X80155278Y-92410523D01*
X80307106Y-92585798D01*
X80485523Y-92733923D01*
X80489975Y-92736525D01*
X80489980Y-92736528D01*
X80651265Y-92830775D01*
X80685737Y-92850919D01*
X80902371Y-92933643D01*
X80907439Y-92934674D01*
X80907442Y-92934675D01*
X80975424Y-92948506D01*
X81129607Y-92979875D01*
X81134780Y-92980065D01*
X81134783Y-92980065D01*
X81356179Y-92988183D01*
X81356183Y-92988183D01*
X81361343Y-92988372D01*
X81366463Y-92987716D01*
X81366465Y-92987716D01*
X81437262Y-92978647D01*
X81591355Y-92958907D01*
X81596304Y-92957422D01*
X81596310Y-92957421D01*
X81808523Y-92893754D01*
X81813466Y-92892271D01*
X82021711Y-92790253D01*
X82105309Y-92730623D01*
X82206285Y-92658598D01*
X82206290Y-92658594D01*
X82210497Y-92655593D01*
X82374755Y-92491907D01*
X82510073Y-92303592D01*
X82552769Y-92217204D01*
X82610523Y-92100346D01*
X82610524Y-92100344D01*
X82612817Y-92095704D01*
X82644053Y-91992895D01*
X82678725Y-91878780D01*
X82678726Y-91878774D01*
X82680229Y-91873828D01*
X82710497Y-91643920D01*
X82712186Y-91574796D01*
X82709344Y-91540224D01*
X87332540Y-91540224D01*
X87345889Y-91771731D01*
X87396869Y-91997949D01*
X87484113Y-92212803D01*
X87605276Y-92410523D01*
X87757104Y-92585798D01*
X87935521Y-92733923D01*
X87939973Y-92736525D01*
X87939978Y-92736528D01*
X88101263Y-92830775D01*
X88135735Y-92850919D01*
X88352369Y-92933643D01*
X88357437Y-92934674D01*
X88357440Y-92934675D01*
X88425422Y-92948506D01*
X88579605Y-92979875D01*
X88584778Y-92980065D01*
X88584781Y-92980065D01*
X88806177Y-92988183D01*
X88806181Y-92988183D01*
X88811341Y-92988372D01*
X88816461Y-92987716D01*
X88816463Y-92987716D01*
X88887260Y-92978647D01*
X89041353Y-92958907D01*
X89046302Y-92957422D01*
X89046308Y-92957421D01*
X89258521Y-92893754D01*
X89263464Y-92892271D01*
X89471709Y-92790253D01*
X89555307Y-92730623D01*
X89656283Y-92658598D01*
X89656288Y-92658594D01*
X89660495Y-92655593D01*
X89824753Y-92491907D01*
X89960071Y-92303592D01*
X90002767Y-92217204D01*
X90060521Y-92100346D01*
X90060522Y-92100344D01*
X90062815Y-92095704D01*
X90094051Y-91992895D01*
X90128723Y-91878780D01*
X90128724Y-91878774D01*
X90130227Y-91873828D01*
X90160495Y-91643920D01*
X90162184Y-91574796D01*
X90155885Y-91498182D01*
X90143607Y-91348835D01*
X90143606Y-91348829D01*
X90143183Y-91343684D01*
X90086691Y-91118779D01*
X89994224Y-90906121D01*
X89868267Y-90711420D01*
X89840178Y-90680550D01*
X89715679Y-90543728D01*
X89715677Y-90543727D01*
X89712201Y-90539906D01*
X89708150Y-90536707D01*
X89708146Y-90536703D01*
X89534276Y-90399390D01*
X89530218Y-90396185D01*
X89327206Y-90284116D01*
X89208771Y-90242176D01*
X89113490Y-90208435D01*
X89113486Y-90208434D01*
X89108615Y-90206709D01*
X89103522Y-90205802D01*
X89103519Y-90205801D01*
X88885406Y-90166949D01*
X88885400Y-90166948D01*
X88880317Y-90166043D01*
X88791783Y-90164961D01*
X88653612Y-90163273D01*
X88653610Y-90163273D01*
X88648443Y-90163210D01*
X88419220Y-90198286D01*
X88198804Y-90270329D01*
X88194216Y-90272717D01*
X88194212Y-90272719D01*
X87997702Y-90375016D01*
X87993113Y-90377405D01*
X87988980Y-90380508D01*
X87988977Y-90380510D01*
X87811808Y-90513532D01*
X87807673Y-90516637D01*
X87647464Y-90684287D01*
X87516787Y-90875852D01*
X87419152Y-91086188D01*
X87357182Y-91309645D01*
X87332540Y-91540224D01*
X82709344Y-91540224D01*
X82705887Y-91498182D01*
X82693609Y-91348835D01*
X82693608Y-91348829D01*
X82693185Y-91343684D01*
X82636693Y-91118779D01*
X82544226Y-90906121D01*
X82418269Y-90711420D01*
X82390180Y-90680550D01*
X82265681Y-90543728D01*
X82265679Y-90543727D01*
X82262203Y-90539906D01*
X82258152Y-90536707D01*
X82258148Y-90536703D01*
X82084278Y-90399390D01*
X82080220Y-90396185D01*
X81877208Y-90284116D01*
X81758773Y-90242176D01*
X81663492Y-90208435D01*
X81663488Y-90208434D01*
X81658617Y-90206709D01*
X81653524Y-90205802D01*
X81653521Y-90205801D01*
X81435408Y-90166949D01*
X81435402Y-90166948D01*
X81430319Y-90166043D01*
X81341785Y-90164961D01*
X81203614Y-90163273D01*
X81203612Y-90163273D01*
X81198445Y-90163210D01*
X80969222Y-90198286D01*
X80748806Y-90270329D01*
X80744218Y-90272717D01*
X80744214Y-90272719D01*
X80547704Y-90375016D01*
X80543115Y-90377405D01*
X80538982Y-90380508D01*
X80538979Y-90380510D01*
X80361810Y-90513532D01*
X80357675Y-90516637D01*
X80197466Y-90684287D01*
X80066789Y-90875852D01*
X79969154Y-91086188D01*
X79907184Y-91309645D01*
X79882542Y-91540224D01*
X75018500Y-91540224D01*
X75018500Y-89275335D01*
X80561150Y-89275335D01*
X80567905Y-89337517D01*
X80619035Y-89473906D01*
X80706389Y-89590462D01*
X80822945Y-89677816D01*
X80959334Y-89728946D01*
X81021516Y-89735701D01*
X83022784Y-89735701D01*
X83084966Y-89728946D01*
X83221355Y-89677816D01*
X83337911Y-89590462D01*
X83425265Y-89473906D01*
X83476395Y-89337517D01*
X83483150Y-89275335D01*
X86561154Y-89275335D01*
X86567909Y-89337517D01*
X86619039Y-89473906D01*
X86706393Y-89590462D01*
X86822949Y-89677816D01*
X86959338Y-89728946D01*
X87021520Y-89735701D01*
X89022788Y-89735701D01*
X89084970Y-89728946D01*
X89221359Y-89677816D01*
X89337915Y-89590462D01*
X89425269Y-89473906D01*
X89476399Y-89337517D01*
X89483154Y-89275335D01*
X89483154Y-88874267D01*
X89479258Y-88838405D01*
X89479258Y-88811195D01*
X89483154Y-88775333D01*
X89483154Y-88374265D01*
X89482785Y-88370865D01*
X89479259Y-88338407D01*
X89479259Y-88311193D01*
X89482785Y-88278735D01*
X89482785Y-88278726D01*
X89483154Y-88275334D01*
X89483154Y-87874266D01*
X89479258Y-87838405D01*
X89479258Y-87811195D01*
X89483154Y-87775333D01*
X89483154Y-87374265D01*
X89482785Y-87370865D01*
X89479259Y-87338407D01*
X89479259Y-87311193D01*
X89482785Y-87278735D01*
X89482785Y-87278726D01*
X89483154Y-87275334D01*
X89483154Y-86874266D01*
X89482785Y-86870866D01*
X89479259Y-86838408D01*
X89479259Y-86811194D01*
X89482785Y-86778736D01*
X89482785Y-86778727D01*
X89483154Y-86775335D01*
X89483154Y-86374267D01*
X89479258Y-86338405D01*
X89479258Y-86311195D01*
X89483154Y-86275333D01*
X89483154Y-85874265D01*
X89482785Y-85870864D01*
X89479259Y-85838406D01*
X89479259Y-85811192D01*
X89482785Y-85778734D01*
X89482785Y-85778727D01*
X89483154Y-85775334D01*
X89483154Y-85374266D01*
X89479258Y-85338405D01*
X89479258Y-85311195D01*
X89483154Y-85275333D01*
X89483154Y-84874265D01*
X89482785Y-84870865D01*
X89479259Y-84838407D01*
X89479259Y-84811193D01*
X89482785Y-84778735D01*
X89482785Y-84778726D01*
X89483154Y-84775334D01*
X89483154Y-84374266D01*
X89482785Y-84370866D01*
X89479259Y-84338408D01*
X89479259Y-84311194D01*
X89482785Y-84278736D01*
X89482785Y-84278727D01*
X89483154Y-84275335D01*
X89483154Y-83874267D01*
X89479258Y-83838405D01*
X89479258Y-83811195D01*
X89483154Y-83775333D01*
X89483154Y-83374265D01*
X89482785Y-83370865D01*
X89479259Y-83338407D01*
X89479259Y-83311193D01*
X89482785Y-83278735D01*
X89482785Y-83278726D01*
X89483154Y-83275334D01*
X89483154Y-82874266D01*
X89479258Y-82838404D01*
X89479258Y-82811194D01*
X89483154Y-82775333D01*
X89483154Y-82374265D01*
X89482785Y-82370865D01*
X89479259Y-82338407D01*
X89479259Y-82311193D01*
X89482785Y-82278735D01*
X89482785Y-82278726D01*
X89483154Y-82275334D01*
X89483154Y-81874266D01*
X89482785Y-81870865D01*
X89479259Y-81838407D01*
X89479259Y-81811193D01*
X89482785Y-81778735D01*
X89482785Y-81778728D01*
X89483154Y-81775335D01*
X89483154Y-81374267D01*
X89479258Y-81338405D01*
X89479258Y-81311195D01*
X89483154Y-81275333D01*
X89483154Y-80874265D01*
X89482785Y-80870865D01*
X89479259Y-80838407D01*
X89479259Y-80811193D01*
X89482785Y-80778735D01*
X89482785Y-80778726D01*
X89483154Y-80775334D01*
X89483154Y-80374266D01*
X89479258Y-80338405D01*
X89479258Y-80311195D01*
X89483154Y-80275333D01*
X89483154Y-79874265D01*
X89482785Y-79870864D01*
X89479259Y-79838406D01*
X89479259Y-79811192D01*
X89482785Y-79778734D01*
X89482785Y-79778727D01*
X89483154Y-79775334D01*
X89483154Y-79374266D01*
X89482785Y-79370866D01*
X89479259Y-79338408D01*
X89479259Y-79311194D01*
X89482785Y-79278736D01*
X89482785Y-79278727D01*
X89483154Y-79275335D01*
X89483154Y-78874267D01*
X89479258Y-78838405D01*
X89479258Y-78811195D01*
X89483154Y-78775333D01*
X89483154Y-78374265D01*
X89482785Y-78370865D01*
X89479259Y-78338407D01*
X89479259Y-78311193D01*
X89482785Y-78278735D01*
X89482785Y-78278726D01*
X89483154Y-78275334D01*
X89483154Y-77874266D01*
X89479258Y-77838404D01*
X89479258Y-77811194D01*
X89483154Y-77775332D01*
X89483154Y-77374264D01*
X89482785Y-77370864D01*
X89479259Y-77338406D01*
X89479259Y-77311192D01*
X89482785Y-77278734D01*
X89482785Y-77278727D01*
X89483154Y-77275334D01*
X89483154Y-76874266D01*
X89479258Y-76838405D01*
X89479258Y-76811195D01*
X89483154Y-76775334D01*
X89483154Y-76374266D01*
X89479258Y-76338405D01*
X89479258Y-76311195D01*
X89483154Y-76275333D01*
X89483154Y-75874265D01*
X89482785Y-75870865D01*
X89479259Y-75838407D01*
X89479259Y-75811193D01*
X89482785Y-75778735D01*
X89482785Y-75778726D01*
X89483154Y-75775334D01*
X89483154Y-75374266D01*
X89482785Y-75370865D01*
X89479259Y-75338407D01*
X89479259Y-75311193D01*
X89482785Y-75278735D01*
X89482785Y-75278728D01*
X89483154Y-75275335D01*
X89483154Y-74874267D01*
X89479258Y-74838405D01*
X89479258Y-74811195D01*
X89483154Y-74775333D01*
X89483154Y-74374265D01*
X89482785Y-74370865D01*
X89479259Y-74338407D01*
X89479259Y-74311193D01*
X89482785Y-74278735D01*
X89482785Y-74278726D01*
X89483154Y-74275334D01*
X89483154Y-73874266D01*
X89479258Y-73838404D01*
X89479258Y-73811194D01*
X89483154Y-73775333D01*
X89483154Y-73374265D01*
X89482785Y-73370864D01*
X89479259Y-73338406D01*
X89479259Y-73311192D01*
X89482785Y-73278734D01*
X89482785Y-73278727D01*
X89483154Y-73275334D01*
X89483154Y-72874266D01*
X89482785Y-72870865D01*
X89479259Y-72838407D01*
X89479259Y-72811193D01*
X89482785Y-72778735D01*
X89482785Y-72778728D01*
X89483154Y-72775335D01*
X89483154Y-72374267D01*
X89479258Y-72338405D01*
X89479258Y-72311195D01*
X89483154Y-72275333D01*
X89483154Y-71874265D01*
X89482785Y-71870865D01*
X89479259Y-71838407D01*
X89479259Y-71811193D01*
X89482785Y-71778735D01*
X89482785Y-71778726D01*
X89483154Y-71775334D01*
X89483154Y-71374266D01*
X89479258Y-71338405D01*
X89479258Y-71311195D01*
X89483154Y-71275333D01*
X89483154Y-70874265D01*
X89482785Y-70870864D01*
X89479259Y-70838406D01*
X89479259Y-70811192D01*
X89482785Y-70778734D01*
X89482785Y-70778727D01*
X89483154Y-70775334D01*
X89483154Y-70374266D01*
X89482785Y-70370866D01*
X89479259Y-70338408D01*
X89479259Y-70311194D01*
X89482785Y-70278736D01*
X89482785Y-70278727D01*
X89483154Y-70275335D01*
X89483154Y-69874267D01*
X89479258Y-69838405D01*
X89479258Y-69811195D01*
X89483154Y-69775333D01*
X89483154Y-69374265D01*
X89482785Y-69370865D01*
X89479259Y-69338407D01*
X89479259Y-69311193D01*
X89482785Y-69278735D01*
X89482785Y-69278726D01*
X89483154Y-69275334D01*
X89483154Y-68874266D01*
X89479258Y-68838405D01*
X89479258Y-68811195D01*
X89483154Y-68775333D01*
X89483154Y-68374265D01*
X89482785Y-68370865D01*
X89479259Y-68338407D01*
X89479259Y-68311193D01*
X89482785Y-68278735D01*
X89482785Y-68278726D01*
X89483154Y-68275334D01*
X89483154Y-67874266D01*
X89482785Y-67870866D01*
X89479259Y-67838408D01*
X89479259Y-67811194D01*
X89482785Y-67778736D01*
X89482785Y-67778727D01*
X89483154Y-67775335D01*
X89483154Y-67374267D01*
X89479258Y-67338405D01*
X89479258Y-67311195D01*
X89483154Y-67275333D01*
X89483154Y-66874265D01*
X89482785Y-66870865D01*
X89479259Y-66838407D01*
X89479259Y-66811193D01*
X89482785Y-66778735D01*
X89482785Y-66778726D01*
X89483154Y-66775334D01*
X89483154Y-66374266D01*
X89479258Y-66338404D01*
X89479258Y-66311194D01*
X89483154Y-66275333D01*
X89483154Y-65874265D01*
X89482785Y-65870865D01*
X89479259Y-65838407D01*
X89479259Y-65811193D01*
X89482785Y-65778735D01*
X89482785Y-65778726D01*
X89483154Y-65775334D01*
X89483154Y-65374266D01*
X89482785Y-65370866D01*
X89479259Y-65338408D01*
X89479259Y-65311194D01*
X89482785Y-65278736D01*
X89482785Y-65278727D01*
X89483154Y-65275335D01*
X89483154Y-64874267D01*
X89479258Y-64838405D01*
X89479258Y-64811195D01*
X89483154Y-64775333D01*
X89483154Y-64374265D01*
X89476399Y-64312083D01*
X89425269Y-64175694D01*
X89337915Y-64059138D01*
X89221359Y-63971784D01*
X89084970Y-63920654D01*
X89022788Y-63913899D01*
X87021520Y-63913899D01*
X86959338Y-63920654D01*
X86822949Y-63971784D01*
X86706393Y-64059138D01*
X86619039Y-64175694D01*
X86567909Y-64312083D01*
X86561154Y-64374265D01*
X86561154Y-64775333D01*
X86565050Y-64811195D01*
X86565050Y-64838405D01*
X86561154Y-64874267D01*
X86561154Y-65275335D01*
X86561523Y-65278727D01*
X86561523Y-65278736D01*
X86565049Y-65311194D01*
X86565049Y-65338408D01*
X86561523Y-65370866D01*
X86561154Y-65374266D01*
X86561154Y-65775334D01*
X86561523Y-65778726D01*
X86561523Y-65778735D01*
X86565049Y-65811193D01*
X86565049Y-65838407D01*
X86561523Y-65870865D01*
X86561154Y-65874265D01*
X86561154Y-66275333D01*
X86565050Y-66311194D01*
X86565050Y-66338404D01*
X86561154Y-66374266D01*
X86561154Y-66775334D01*
X86561523Y-66778726D01*
X86561523Y-66778735D01*
X86565049Y-66811193D01*
X86565049Y-66838407D01*
X86561523Y-66870865D01*
X86561154Y-66874265D01*
X86561154Y-67275333D01*
X86565050Y-67311195D01*
X86565050Y-67338405D01*
X86561154Y-67374267D01*
X86561154Y-67775335D01*
X86561523Y-67778727D01*
X86561523Y-67778736D01*
X86565049Y-67811194D01*
X86565049Y-67838408D01*
X86561523Y-67870866D01*
X86561154Y-67874266D01*
X86561154Y-68275334D01*
X86561523Y-68278726D01*
X86561523Y-68278735D01*
X86565049Y-68311193D01*
X86565049Y-68338407D01*
X86561523Y-68370865D01*
X86561154Y-68374265D01*
X86561154Y-68775333D01*
X86565050Y-68811195D01*
X86565050Y-68838405D01*
X86561154Y-68874266D01*
X86561154Y-69275334D01*
X86561523Y-69278726D01*
X86561523Y-69278735D01*
X86565049Y-69311193D01*
X86565049Y-69338407D01*
X86561523Y-69370865D01*
X86561154Y-69374265D01*
X86561154Y-69775333D01*
X86565050Y-69811195D01*
X86565050Y-69838405D01*
X86561154Y-69874267D01*
X86561154Y-70275335D01*
X86561523Y-70278727D01*
X86561523Y-70278736D01*
X86565049Y-70311194D01*
X86565049Y-70338408D01*
X86561523Y-70370866D01*
X86561154Y-70374266D01*
X86561154Y-70775334D01*
X86561523Y-70778727D01*
X86561523Y-70778734D01*
X86565049Y-70811192D01*
X86565049Y-70838406D01*
X86561523Y-70870864D01*
X86561154Y-70874265D01*
X86561154Y-71275333D01*
X86565050Y-71311195D01*
X86565050Y-71338405D01*
X86561154Y-71374266D01*
X86561154Y-71775334D01*
X86561523Y-71778726D01*
X86561523Y-71778735D01*
X86565049Y-71811193D01*
X86565049Y-71838407D01*
X86561523Y-71870865D01*
X86561154Y-71874265D01*
X86561154Y-72275333D01*
X86565050Y-72311195D01*
X86565050Y-72338405D01*
X86561154Y-72374267D01*
X86561154Y-72775335D01*
X86561523Y-72778728D01*
X86561523Y-72778735D01*
X86565049Y-72811193D01*
X86565049Y-72838407D01*
X86561523Y-72870865D01*
X86561154Y-72874266D01*
X86561154Y-73275334D01*
X86561523Y-73278727D01*
X86561523Y-73278734D01*
X86565049Y-73311192D01*
X86565049Y-73338406D01*
X86561523Y-73370864D01*
X86561154Y-73374265D01*
X86561154Y-73775333D01*
X86565050Y-73811194D01*
X86565050Y-73838404D01*
X86561154Y-73874266D01*
X86561154Y-74275334D01*
X86561523Y-74278726D01*
X86561523Y-74278735D01*
X86565049Y-74311193D01*
X86565049Y-74338407D01*
X86561523Y-74370865D01*
X86561154Y-74374265D01*
X86561154Y-74775333D01*
X86565050Y-74811195D01*
X86565050Y-74838405D01*
X86561154Y-74874267D01*
X86561154Y-75275335D01*
X86561523Y-75278728D01*
X86561523Y-75278735D01*
X86565049Y-75311193D01*
X86565049Y-75338407D01*
X86561523Y-75370865D01*
X86561154Y-75374266D01*
X86561154Y-75775334D01*
X86561523Y-75778726D01*
X86561523Y-75778735D01*
X86565049Y-75811193D01*
X86565049Y-75838407D01*
X86561523Y-75870865D01*
X86561154Y-75874265D01*
X86561154Y-76275333D01*
X86565050Y-76311195D01*
X86565050Y-76338405D01*
X86561154Y-76374266D01*
X86561154Y-76775334D01*
X86565050Y-76811195D01*
X86565050Y-76838405D01*
X86561154Y-76874266D01*
X86561154Y-77275334D01*
X86561523Y-77278727D01*
X86561523Y-77278734D01*
X86565049Y-77311192D01*
X86565049Y-77338406D01*
X86561523Y-77370864D01*
X86561154Y-77374264D01*
X86561154Y-77775332D01*
X86565050Y-77811194D01*
X86565050Y-77838404D01*
X86561154Y-77874266D01*
X86561154Y-78275334D01*
X86561523Y-78278726D01*
X86561523Y-78278735D01*
X86565049Y-78311193D01*
X86565049Y-78338407D01*
X86561523Y-78370865D01*
X86561154Y-78374265D01*
X86561154Y-78775333D01*
X86565050Y-78811195D01*
X86565050Y-78838405D01*
X86561154Y-78874267D01*
X86561154Y-79275335D01*
X86561523Y-79278727D01*
X86561523Y-79278736D01*
X86565049Y-79311194D01*
X86565049Y-79338408D01*
X86561523Y-79370866D01*
X86561154Y-79374266D01*
X86561154Y-79775334D01*
X86561523Y-79778727D01*
X86561523Y-79778734D01*
X86565049Y-79811192D01*
X86565049Y-79838406D01*
X86561523Y-79870864D01*
X86561154Y-79874265D01*
X86561154Y-80275333D01*
X86565050Y-80311195D01*
X86565050Y-80338405D01*
X86561154Y-80374266D01*
X86561154Y-80775334D01*
X86561523Y-80778726D01*
X86561523Y-80778735D01*
X86565049Y-80811193D01*
X86565049Y-80838407D01*
X86561523Y-80870865D01*
X86561154Y-80874265D01*
X86561154Y-81275333D01*
X86565050Y-81311195D01*
X86565050Y-81338405D01*
X86561154Y-81374267D01*
X86561154Y-81775335D01*
X86561523Y-81778728D01*
X86561523Y-81778735D01*
X86565049Y-81811193D01*
X86565049Y-81838407D01*
X86561523Y-81870865D01*
X86561154Y-81874266D01*
X86561154Y-82275334D01*
X86561523Y-82278726D01*
X86561523Y-82278735D01*
X86565049Y-82311193D01*
X86565049Y-82338407D01*
X86561523Y-82370865D01*
X86561154Y-82374265D01*
X86561154Y-82775333D01*
X86565050Y-82811194D01*
X86565050Y-82838404D01*
X86561154Y-82874266D01*
X86561154Y-83275334D01*
X86561523Y-83278726D01*
X86561523Y-83278735D01*
X86565049Y-83311193D01*
X86565049Y-83338407D01*
X86561523Y-83370865D01*
X86561154Y-83374265D01*
X86561154Y-83775333D01*
X86565050Y-83811195D01*
X86565050Y-83838405D01*
X86561154Y-83874267D01*
X86561154Y-84275335D01*
X86561523Y-84278727D01*
X86561523Y-84278736D01*
X86565049Y-84311194D01*
X86565049Y-84338408D01*
X86561523Y-84370866D01*
X86561154Y-84374266D01*
X86561154Y-84775334D01*
X86561523Y-84778726D01*
X86561523Y-84778735D01*
X86565049Y-84811193D01*
X86565049Y-84838407D01*
X86561523Y-84870865D01*
X86561154Y-84874265D01*
X86561154Y-85275333D01*
X86565050Y-85311195D01*
X86565050Y-85338405D01*
X86561154Y-85374266D01*
X86561154Y-85775334D01*
X86561523Y-85778727D01*
X86561523Y-85778734D01*
X86565049Y-85811192D01*
X86565049Y-85838406D01*
X86561523Y-85870864D01*
X86561154Y-85874265D01*
X86561154Y-86275333D01*
X86565050Y-86311195D01*
X86565050Y-86338405D01*
X86561154Y-86374267D01*
X86561154Y-86775335D01*
X86561523Y-86778727D01*
X86561523Y-86778736D01*
X86565049Y-86811194D01*
X86565049Y-86838408D01*
X86561523Y-86870866D01*
X86561154Y-86874266D01*
X86561154Y-87275334D01*
X86561523Y-87278726D01*
X86561523Y-87278735D01*
X86565049Y-87311193D01*
X86565049Y-87338407D01*
X86561523Y-87370865D01*
X86561154Y-87374265D01*
X86561154Y-87775333D01*
X86565050Y-87811195D01*
X86565050Y-87838405D01*
X86561154Y-87874266D01*
X86561154Y-88275334D01*
X86561523Y-88278726D01*
X86561523Y-88278735D01*
X86565049Y-88311193D01*
X86565049Y-88338407D01*
X86561523Y-88370865D01*
X86561154Y-88374265D01*
X86561154Y-88775333D01*
X86565050Y-88811195D01*
X86565050Y-88838405D01*
X86561154Y-88874267D01*
X86561154Y-89275335D01*
X83483150Y-89275335D01*
X83483150Y-88874267D01*
X83479254Y-88838405D01*
X83479254Y-88811195D01*
X83483150Y-88775333D01*
X83483150Y-88374265D01*
X83482781Y-88370865D01*
X83479255Y-88338407D01*
X83479255Y-88311193D01*
X83482781Y-88278735D01*
X83482781Y-88278726D01*
X83483150Y-88275334D01*
X83483150Y-87874266D01*
X83479254Y-87838405D01*
X83479254Y-87811195D01*
X83483150Y-87775333D01*
X83483150Y-87374265D01*
X83482781Y-87370865D01*
X83479255Y-87338407D01*
X83479255Y-87311193D01*
X83482781Y-87278735D01*
X83482781Y-87278726D01*
X83483150Y-87275334D01*
X83483150Y-86874266D01*
X83482781Y-86870866D01*
X83479255Y-86838408D01*
X83479255Y-86811194D01*
X83482781Y-86778736D01*
X83482781Y-86778727D01*
X83483150Y-86775335D01*
X83483150Y-86374267D01*
X83479254Y-86338405D01*
X83479254Y-86311195D01*
X83483150Y-86275333D01*
X83483150Y-85874265D01*
X83482781Y-85870864D01*
X83479255Y-85838406D01*
X83479255Y-85811192D01*
X83482781Y-85778734D01*
X83482781Y-85778727D01*
X83483150Y-85775334D01*
X83483150Y-85374266D01*
X83479254Y-85338405D01*
X83479254Y-85311195D01*
X83483150Y-85275333D01*
X83483150Y-84874265D01*
X83482781Y-84870865D01*
X83479255Y-84838407D01*
X83479255Y-84811193D01*
X83482781Y-84778735D01*
X83482781Y-84778726D01*
X83483150Y-84775334D01*
X83483150Y-84374266D01*
X83482781Y-84370866D01*
X83479255Y-84338408D01*
X83479255Y-84311194D01*
X83482781Y-84278736D01*
X83482781Y-84278727D01*
X83483150Y-84275335D01*
X83483150Y-83874267D01*
X83479254Y-83838405D01*
X83479254Y-83811195D01*
X83483150Y-83775333D01*
X83483150Y-83374265D01*
X83482781Y-83370865D01*
X83479255Y-83338407D01*
X83479255Y-83311193D01*
X83482781Y-83278735D01*
X83482781Y-83278726D01*
X83483150Y-83275334D01*
X83483150Y-82874266D01*
X83479254Y-82838404D01*
X83479254Y-82811194D01*
X83483150Y-82775333D01*
X83483150Y-82374265D01*
X83482781Y-82370865D01*
X83479255Y-82338407D01*
X83479255Y-82311193D01*
X83482781Y-82278735D01*
X83482781Y-82278726D01*
X83483150Y-82275334D01*
X83483150Y-81874266D01*
X83482781Y-81870865D01*
X83479255Y-81838407D01*
X83479255Y-81811193D01*
X83482781Y-81778735D01*
X83482781Y-81778728D01*
X83483150Y-81775335D01*
X83483150Y-81374267D01*
X83479254Y-81338405D01*
X83479254Y-81311195D01*
X83483150Y-81275333D01*
X83483150Y-80874265D01*
X83482781Y-80870865D01*
X83479255Y-80838407D01*
X83479255Y-80811193D01*
X83482781Y-80778735D01*
X83482781Y-80778726D01*
X83483150Y-80775334D01*
X83483150Y-80374266D01*
X83479254Y-80338405D01*
X83479254Y-80311195D01*
X83483150Y-80275333D01*
X83483150Y-79874265D01*
X83482781Y-79870864D01*
X83479255Y-79838406D01*
X83479255Y-79811192D01*
X83482781Y-79778734D01*
X83482781Y-79778727D01*
X83483150Y-79775334D01*
X83483150Y-79374266D01*
X83482781Y-79370866D01*
X83479255Y-79338408D01*
X83479255Y-79311194D01*
X83482781Y-79278736D01*
X83482781Y-79278727D01*
X83483150Y-79275335D01*
X83483150Y-78874267D01*
X83479254Y-78838405D01*
X83479254Y-78811195D01*
X83483150Y-78775333D01*
X83483150Y-78374265D01*
X83482781Y-78370865D01*
X83479255Y-78338407D01*
X83479255Y-78311193D01*
X83482781Y-78278735D01*
X83482781Y-78278726D01*
X83483150Y-78275334D01*
X83483150Y-77874266D01*
X83479254Y-77838404D01*
X83479254Y-77811194D01*
X83483150Y-77775332D01*
X83483150Y-77374264D01*
X83482781Y-77370864D01*
X83479255Y-77338406D01*
X83479255Y-77311192D01*
X83482781Y-77278734D01*
X83482781Y-77278727D01*
X83483150Y-77275334D01*
X83483150Y-76874266D01*
X83479254Y-76838405D01*
X83479254Y-76811195D01*
X83483150Y-76775334D01*
X83483150Y-76374266D01*
X83479254Y-76338405D01*
X83479254Y-76311195D01*
X83483150Y-76275333D01*
X83483150Y-75874265D01*
X83482781Y-75870865D01*
X83479255Y-75838407D01*
X83479255Y-75811193D01*
X83482781Y-75778735D01*
X83482781Y-75778726D01*
X83483150Y-75775334D01*
X83483150Y-75374266D01*
X83482781Y-75370865D01*
X83479255Y-75338407D01*
X83479255Y-75311193D01*
X83482781Y-75278735D01*
X83482781Y-75278728D01*
X83483150Y-75275335D01*
X83483150Y-74874267D01*
X83479254Y-74838405D01*
X83479254Y-74811195D01*
X83483150Y-74775333D01*
X83483150Y-74374265D01*
X83482781Y-74370865D01*
X83479255Y-74338407D01*
X83479255Y-74311193D01*
X83482781Y-74278735D01*
X83482781Y-74278726D01*
X83483150Y-74275334D01*
X83483150Y-73874266D01*
X83479254Y-73838404D01*
X83479254Y-73811194D01*
X83483150Y-73775333D01*
X83483150Y-73374265D01*
X83482781Y-73370864D01*
X83479255Y-73338406D01*
X83479255Y-73311192D01*
X83482781Y-73278734D01*
X83482781Y-73278727D01*
X83483150Y-73275334D01*
X83483150Y-72874266D01*
X83482781Y-72870865D01*
X83479255Y-72838407D01*
X83479255Y-72811193D01*
X83482781Y-72778735D01*
X83482781Y-72778728D01*
X83483150Y-72775335D01*
X83483150Y-72374267D01*
X83479254Y-72338405D01*
X83479254Y-72311195D01*
X83483150Y-72275333D01*
X83483150Y-71874265D01*
X83482781Y-71870865D01*
X83479255Y-71838407D01*
X83479255Y-71811193D01*
X83482781Y-71778735D01*
X83482781Y-71778726D01*
X83483150Y-71775334D01*
X83483150Y-71374266D01*
X83479254Y-71338405D01*
X83479254Y-71311195D01*
X83483150Y-71275333D01*
X83483150Y-70874265D01*
X83482781Y-70870864D01*
X83479255Y-70838406D01*
X83479255Y-70811192D01*
X83482781Y-70778734D01*
X83482781Y-70778727D01*
X83483150Y-70775334D01*
X83483150Y-70374266D01*
X83482781Y-70370866D01*
X83479255Y-70338408D01*
X83479255Y-70311194D01*
X83482781Y-70278736D01*
X83482781Y-70278727D01*
X83483150Y-70275335D01*
X83483150Y-69874267D01*
X83479254Y-69838405D01*
X83479254Y-69811195D01*
X83483150Y-69775333D01*
X83483150Y-69374265D01*
X83482781Y-69370865D01*
X83479255Y-69338407D01*
X83479255Y-69311193D01*
X83482781Y-69278735D01*
X83482781Y-69278726D01*
X83483150Y-69275334D01*
X83483150Y-68874266D01*
X83479254Y-68838405D01*
X83479254Y-68811195D01*
X83483150Y-68775333D01*
X83483150Y-68374265D01*
X83482781Y-68370865D01*
X83479255Y-68338407D01*
X83479255Y-68311193D01*
X83482781Y-68278735D01*
X83482781Y-68278726D01*
X83483150Y-68275334D01*
X83483150Y-67874266D01*
X83482781Y-67870866D01*
X83479255Y-67838408D01*
X83479255Y-67811194D01*
X83482781Y-67778736D01*
X83482781Y-67778727D01*
X83483150Y-67775335D01*
X83483150Y-67374267D01*
X83479254Y-67338405D01*
X83479254Y-67311195D01*
X83483150Y-67275333D01*
X83483150Y-66874265D01*
X83482781Y-66870865D01*
X83479255Y-66838407D01*
X83479255Y-66811193D01*
X83482781Y-66778735D01*
X83482781Y-66778726D01*
X83483150Y-66775334D01*
X83483150Y-66374266D01*
X83479254Y-66338404D01*
X83479254Y-66311194D01*
X83483150Y-66275333D01*
X83483150Y-65874265D01*
X83482781Y-65870865D01*
X83479255Y-65838407D01*
X83479255Y-65811193D01*
X83482781Y-65778735D01*
X83482781Y-65778726D01*
X83483150Y-65775334D01*
X83483150Y-65374266D01*
X83482781Y-65370866D01*
X83479255Y-65338408D01*
X83479255Y-65311194D01*
X83482781Y-65278736D01*
X83482781Y-65278727D01*
X83483150Y-65275335D01*
X83483150Y-64874267D01*
X83479254Y-64838405D01*
X83479254Y-64811195D01*
X83483150Y-64775333D01*
X83483150Y-64374265D01*
X83476395Y-64312083D01*
X83425265Y-64175694D01*
X83337911Y-64059138D01*
X83221355Y-63971784D01*
X83084966Y-63920654D01*
X83022784Y-63913899D01*
X81021516Y-63913899D01*
X80959334Y-63920654D01*
X80822945Y-63971784D01*
X80706389Y-64059138D01*
X80619035Y-64175694D01*
X80567905Y-64312083D01*
X80561150Y-64374265D01*
X80561150Y-64775333D01*
X80565046Y-64811195D01*
X80565046Y-64838405D01*
X80561150Y-64874267D01*
X80561150Y-65275335D01*
X80561519Y-65278727D01*
X80561519Y-65278736D01*
X80565045Y-65311194D01*
X80565045Y-65338408D01*
X80561519Y-65370866D01*
X80561150Y-65374266D01*
X80561150Y-65775334D01*
X80561519Y-65778726D01*
X80561519Y-65778735D01*
X80565045Y-65811193D01*
X80565045Y-65838407D01*
X80561519Y-65870865D01*
X80561150Y-65874265D01*
X80561150Y-66275333D01*
X80565046Y-66311194D01*
X80565046Y-66338404D01*
X80561150Y-66374266D01*
X80561150Y-66775334D01*
X80561519Y-66778726D01*
X80561519Y-66778735D01*
X80565045Y-66811193D01*
X80565045Y-66838407D01*
X80561519Y-66870865D01*
X80561150Y-66874265D01*
X80561150Y-67275333D01*
X80565046Y-67311195D01*
X80565046Y-67338405D01*
X80561150Y-67374267D01*
X80561150Y-67775335D01*
X80561519Y-67778727D01*
X80561519Y-67778736D01*
X80565045Y-67811194D01*
X80565045Y-67838408D01*
X80561519Y-67870866D01*
X80561150Y-67874266D01*
X80561150Y-68275334D01*
X80561519Y-68278726D01*
X80561519Y-68278735D01*
X80565045Y-68311193D01*
X80565045Y-68338407D01*
X80561519Y-68370865D01*
X80561150Y-68374265D01*
X80561150Y-68775333D01*
X80565046Y-68811195D01*
X80565046Y-68838405D01*
X80561150Y-68874266D01*
X80561150Y-69275334D01*
X80561519Y-69278726D01*
X80561519Y-69278735D01*
X80565045Y-69311193D01*
X80565045Y-69338407D01*
X80561519Y-69370865D01*
X80561150Y-69374265D01*
X80561150Y-69775333D01*
X80565046Y-69811195D01*
X80565046Y-69838405D01*
X80561150Y-69874267D01*
X80561150Y-70275335D01*
X80561519Y-70278727D01*
X80561519Y-70278736D01*
X80565045Y-70311194D01*
X80565045Y-70338408D01*
X80561519Y-70370866D01*
X80561150Y-70374266D01*
X80561150Y-70775334D01*
X80561519Y-70778727D01*
X80561519Y-70778734D01*
X80565045Y-70811192D01*
X80565045Y-70838406D01*
X80561519Y-70870864D01*
X80561150Y-70874265D01*
X80561150Y-71275333D01*
X80565046Y-71311195D01*
X80565046Y-71338405D01*
X80561150Y-71374266D01*
X80561150Y-71775334D01*
X80561519Y-71778726D01*
X80561519Y-71778735D01*
X80565045Y-71811193D01*
X80565045Y-71838407D01*
X80561519Y-71870865D01*
X80561150Y-71874265D01*
X80561150Y-72275333D01*
X80565046Y-72311195D01*
X80565046Y-72338405D01*
X80561150Y-72374267D01*
X80561150Y-72775335D01*
X80561519Y-72778728D01*
X80561519Y-72778735D01*
X80565045Y-72811193D01*
X80565045Y-72838407D01*
X80561519Y-72870865D01*
X80561150Y-72874266D01*
X80561150Y-73275334D01*
X80561519Y-73278727D01*
X80561519Y-73278734D01*
X80565045Y-73311192D01*
X80565045Y-73338406D01*
X80561519Y-73370864D01*
X80561150Y-73374265D01*
X80561150Y-73775333D01*
X80565046Y-73811194D01*
X80565046Y-73838404D01*
X80561150Y-73874266D01*
X80561150Y-74275334D01*
X80561519Y-74278726D01*
X80561519Y-74278735D01*
X80565045Y-74311193D01*
X80565045Y-74338407D01*
X80561519Y-74370865D01*
X80561150Y-74374265D01*
X80561150Y-74775333D01*
X80565046Y-74811195D01*
X80565046Y-74838405D01*
X80561150Y-74874267D01*
X80561150Y-75275335D01*
X80561519Y-75278728D01*
X80561519Y-75278735D01*
X80565045Y-75311193D01*
X80565045Y-75338407D01*
X80561519Y-75370865D01*
X80561150Y-75374266D01*
X80561150Y-75775334D01*
X80561519Y-75778726D01*
X80561519Y-75778735D01*
X80565045Y-75811193D01*
X80565045Y-75838407D01*
X80561519Y-75870865D01*
X80561150Y-75874265D01*
X80561150Y-76275333D01*
X80565046Y-76311195D01*
X80565046Y-76338405D01*
X80561150Y-76374266D01*
X80561150Y-76775334D01*
X80565046Y-76811195D01*
X80565046Y-76838405D01*
X80561150Y-76874266D01*
X80561150Y-77275334D01*
X80561519Y-77278727D01*
X80561519Y-77278734D01*
X80565045Y-77311192D01*
X80565045Y-77338406D01*
X80561519Y-77370864D01*
X80561150Y-77374264D01*
X80561150Y-77775332D01*
X80565046Y-77811194D01*
X80565046Y-77838404D01*
X80561150Y-77874266D01*
X80561150Y-78275334D01*
X80561519Y-78278726D01*
X80561519Y-78278735D01*
X80565045Y-78311193D01*
X80565045Y-78338407D01*
X80561519Y-78370865D01*
X80561150Y-78374265D01*
X80561150Y-78775333D01*
X80565046Y-78811195D01*
X80565046Y-78838405D01*
X80561150Y-78874267D01*
X80561150Y-79275335D01*
X80561519Y-79278727D01*
X80561519Y-79278736D01*
X80565045Y-79311194D01*
X80565045Y-79338408D01*
X80561519Y-79370866D01*
X80561150Y-79374266D01*
X80561150Y-79775334D01*
X80561519Y-79778727D01*
X80561519Y-79778734D01*
X80565045Y-79811192D01*
X80565045Y-79838406D01*
X80561519Y-79870864D01*
X80561150Y-79874265D01*
X80561150Y-80275333D01*
X80565046Y-80311195D01*
X80565046Y-80338405D01*
X80561150Y-80374266D01*
X80561150Y-80775334D01*
X80561519Y-80778726D01*
X80561519Y-80778735D01*
X80565045Y-80811193D01*
X80565045Y-80838407D01*
X80561519Y-80870865D01*
X80561150Y-80874265D01*
X80561150Y-81275333D01*
X80565046Y-81311195D01*
X80565046Y-81338405D01*
X80561150Y-81374267D01*
X80561150Y-81775335D01*
X80561519Y-81778728D01*
X80561519Y-81778735D01*
X80565045Y-81811193D01*
X80565045Y-81838407D01*
X80561519Y-81870865D01*
X80561150Y-81874266D01*
X80561150Y-82275334D01*
X80561519Y-82278726D01*
X80561519Y-82278735D01*
X80565045Y-82311193D01*
X80565045Y-82338407D01*
X80561519Y-82370865D01*
X80561150Y-82374265D01*
X80561150Y-82775333D01*
X80565046Y-82811194D01*
X80565046Y-82838404D01*
X80561150Y-82874266D01*
X80561150Y-83275334D01*
X80561519Y-83278726D01*
X80561519Y-83278735D01*
X80565045Y-83311193D01*
X80565045Y-83338407D01*
X80561519Y-83370865D01*
X80561150Y-83374265D01*
X80561150Y-83775333D01*
X80565046Y-83811195D01*
X80565046Y-83838405D01*
X80561150Y-83874267D01*
X80561150Y-84275335D01*
X80561519Y-84278727D01*
X80561519Y-84278736D01*
X80565045Y-84311194D01*
X80565045Y-84338408D01*
X80561519Y-84370866D01*
X80561150Y-84374266D01*
X80561150Y-84775334D01*
X80561519Y-84778726D01*
X80561519Y-84778735D01*
X80565045Y-84811193D01*
X80565045Y-84838407D01*
X80561519Y-84870865D01*
X80561150Y-84874265D01*
X80561150Y-85275333D01*
X80565046Y-85311195D01*
X80565046Y-85338405D01*
X80561150Y-85374266D01*
X80561150Y-85775334D01*
X80561519Y-85778727D01*
X80561519Y-85778734D01*
X80565045Y-85811192D01*
X80565045Y-85838406D01*
X80561519Y-85870864D01*
X80561150Y-85874265D01*
X80561150Y-86275333D01*
X80565046Y-86311195D01*
X80565046Y-86338405D01*
X80561150Y-86374267D01*
X80561150Y-86775335D01*
X80561519Y-86778727D01*
X80561519Y-86778736D01*
X80565045Y-86811194D01*
X80565045Y-86838408D01*
X80561519Y-86870866D01*
X80561150Y-86874266D01*
X80561150Y-87275334D01*
X80561519Y-87278726D01*
X80561519Y-87278735D01*
X80565045Y-87311193D01*
X80565045Y-87338407D01*
X80561519Y-87370865D01*
X80561150Y-87374265D01*
X80561150Y-87775333D01*
X80565046Y-87811195D01*
X80565046Y-87838405D01*
X80561150Y-87874266D01*
X80561150Y-88275334D01*
X80561519Y-88278726D01*
X80561519Y-88278735D01*
X80565045Y-88311193D01*
X80565045Y-88338407D01*
X80561519Y-88370865D01*
X80561150Y-88374265D01*
X80561150Y-88775333D01*
X80565046Y-88811195D01*
X80565046Y-88838405D01*
X80561150Y-88874267D01*
X80561150Y-89275335D01*
X75018500Y-89275335D01*
X75018500Y-62040232D01*
X79882542Y-62040232D01*
X79895891Y-62271739D01*
X79946871Y-62497957D01*
X80034115Y-62712811D01*
X80155278Y-62910531D01*
X80307106Y-63085806D01*
X80485523Y-63233931D01*
X80489975Y-63236533D01*
X80489980Y-63236536D01*
X80681279Y-63348322D01*
X80685737Y-63350927D01*
X80902371Y-63433651D01*
X80907439Y-63434682D01*
X80907442Y-63434683D01*
X81019243Y-63457429D01*
X81129607Y-63479883D01*
X81134780Y-63480073D01*
X81134783Y-63480073D01*
X81356179Y-63488191D01*
X81356183Y-63488191D01*
X81361343Y-63488380D01*
X81366463Y-63487724D01*
X81366465Y-63487724D01*
X81437262Y-63478655D01*
X81591355Y-63458915D01*
X81596304Y-63457430D01*
X81596310Y-63457429D01*
X81808523Y-63393762D01*
X81813466Y-63392279D01*
X82021711Y-63290261D01*
X82105309Y-63230631D01*
X82206285Y-63158606D01*
X82206290Y-63158602D01*
X82210497Y-63155601D01*
X82374755Y-62991915D01*
X82510073Y-62803600D01*
X82552769Y-62717212D01*
X82610523Y-62600354D01*
X82610524Y-62600352D01*
X82612817Y-62595712D01*
X82644053Y-62492903D01*
X82678725Y-62378788D01*
X82678726Y-62378782D01*
X82680229Y-62373836D01*
X82710497Y-62143928D01*
X82712186Y-62074804D01*
X82709344Y-62040232D01*
X87332540Y-62040232D01*
X87345889Y-62271739D01*
X87396869Y-62497957D01*
X87484113Y-62712811D01*
X87605276Y-62910531D01*
X87757104Y-63085806D01*
X87935521Y-63233931D01*
X87939973Y-63236533D01*
X87939978Y-63236536D01*
X88131277Y-63348322D01*
X88135735Y-63350927D01*
X88352369Y-63433651D01*
X88357437Y-63434682D01*
X88357440Y-63434683D01*
X88469241Y-63457429D01*
X88579605Y-63479883D01*
X88584778Y-63480073D01*
X88584781Y-63480073D01*
X88806177Y-63488191D01*
X88806181Y-63488191D01*
X88811341Y-63488380D01*
X88816461Y-63487724D01*
X88816463Y-63487724D01*
X88887260Y-63478655D01*
X89041353Y-63458915D01*
X89046302Y-63457430D01*
X89046308Y-63457429D01*
X89258521Y-63393762D01*
X89263464Y-63392279D01*
X89471709Y-63290261D01*
X89555307Y-63230631D01*
X89656283Y-63158606D01*
X89656288Y-63158602D01*
X89660495Y-63155601D01*
X89824753Y-62991915D01*
X89960071Y-62803600D01*
X90002767Y-62717212D01*
X90060521Y-62600354D01*
X90060522Y-62600352D01*
X90062815Y-62595712D01*
X90094051Y-62492903D01*
X90128723Y-62378788D01*
X90128724Y-62378782D01*
X90130227Y-62373836D01*
X90160495Y-62143928D01*
X90162184Y-62074804D01*
X90155885Y-61998190D01*
X90143607Y-61848843D01*
X90143606Y-61848837D01*
X90143183Y-61843692D01*
X90086691Y-61618787D01*
X89994224Y-61406129D01*
X89868267Y-61211428D01*
X89840178Y-61180558D01*
X89715679Y-61043736D01*
X89715677Y-61043735D01*
X89712201Y-61039914D01*
X89708150Y-61036715D01*
X89708146Y-61036711D01*
X89534276Y-60899398D01*
X89530218Y-60896193D01*
X89327206Y-60784124D01*
X89208771Y-60742184D01*
X89113490Y-60708443D01*
X89113486Y-60708442D01*
X89108615Y-60706717D01*
X89103522Y-60705810D01*
X89103519Y-60705809D01*
X88885406Y-60666957D01*
X88885400Y-60666956D01*
X88880317Y-60666051D01*
X88791783Y-60664969D01*
X88653612Y-60663281D01*
X88653610Y-60663281D01*
X88648443Y-60663218D01*
X88419220Y-60698294D01*
X88198804Y-60770337D01*
X88194216Y-60772725D01*
X88194212Y-60772727D01*
X87997702Y-60875024D01*
X87993113Y-60877413D01*
X87988980Y-60880516D01*
X87988977Y-60880518D01*
X87811808Y-61013540D01*
X87807673Y-61016645D01*
X87647464Y-61184295D01*
X87516787Y-61375860D01*
X87419152Y-61586196D01*
X87357182Y-61809653D01*
X87332540Y-62040232D01*
X82709344Y-62040232D01*
X82705887Y-61998190D01*
X82693609Y-61848843D01*
X82693608Y-61848837D01*
X82693185Y-61843692D01*
X82636693Y-61618787D01*
X82544226Y-61406129D01*
X82418269Y-61211428D01*
X82390180Y-61180558D01*
X82265681Y-61043736D01*
X82265679Y-61043735D01*
X82262203Y-61039914D01*
X82258152Y-61036715D01*
X82258148Y-61036711D01*
X82084278Y-60899398D01*
X82080220Y-60896193D01*
X81877208Y-60784124D01*
X81758773Y-60742184D01*
X81663492Y-60708443D01*
X81663488Y-60708442D01*
X81658617Y-60706717D01*
X81653524Y-60705810D01*
X81653521Y-60705809D01*
X81435408Y-60666957D01*
X81435402Y-60666956D01*
X81430319Y-60666051D01*
X81341785Y-60664969D01*
X81203614Y-60663281D01*
X81203612Y-60663281D01*
X81198445Y-60663218D01*
X80969222Y-60698294D01*
X80748806Y-60770337D01*
X80744218Y-60772725D01*
X80744214Y-60772727D01*
X80547704Y-60875024D01*
X80543115Y-60877413D01*
X80538982Y-60880516D01*
X80538979Y-60880518D01*
X80361810Y-61013540D01*
X80357675Y-61016645D01*
X80197466Y-61184295D01*
X80066789Y-61375860D01*
X79969154Y-61586196D01*
X79907184Y-61809653D01*
X79882542Y-62040232D01*
X75018500Y-62040232D01*
X75018500Y-58074799D01*
X82408553Y-58074799D01*
X82428510Y-58302903D01*
X82487773Y-58524076D01*
X82490095Y-58529057D01*
X82490096Y-58529058D01*
X82582216Y-58726611D01*
X82582219Y-58726616D01*
X82584542Y-58731598D01*
X82715877Y-58919164D01*
X82877787Y-59081074D01*
X83065352Y-59212409D01*
X83070334Y-59214732D01*
X83070339Y-59214735D01*
X83267893Y-59306855D01*
X83272875Y-59309178D01*
X83278183Y-59310600D01*
X83278185Y-59310601D01*
X83488733Y-59367017D01*
X83488735Y-59367017D01*
X83494048Y-59368441D01*
X83722152Y-59388398D01*
X83950256Y-59368441D01*
X83955569Y-59367017D01*
X83955571Y-59367017D01*
X84166119Y-59310601D01*
X84166121Y-59310600D01*
X84171429Y-59309178D01*
X84176411Y-59306855D01*
X84373965Y-59214735D01*
X84373970Y-59214732D01*
X84378952Y-59212409D01*
X84566517Y-59081074D01*
X84728427Y-58919164D01*
X84859762Y-58731598D01*
X84862085Y-58726616D01*
X84862088Y-58726611D01*
X84907957Y-58628243D01*
X84954874Y-58574958D01*
X85023151Y-58555497D01*
X85091111Y-58576039D01*
X85136347Y-58628243D01*
X85182216Y-58726611D01*
X85182219Y-58726616D01*
X85184542Y-58731598D01*
X85315877Y-58919164D01*
X85477787Y-59081074D01*
X85665352Y-59212409D01*
X85670334Y-59214732D01*
X85670339Y-59214735D01*
X85867893Y-59306855D01*
X85872875Y-59309178D01*
X85878183Y-59310600D01*
X85878185Y-59310601D01*
X86088733Y-59367017D01*
X86088735Y-59367017D01*
X86094048Y-59368441D01*
X86322152Y-59388398D01*
X86550256Y-59368441D01*
X86555569Y-59367017D01*
X86555571Y-59367017D01*
X86766119Y-59310601D01*
X86766121Y-59310600D01*
X86771429Y-59309178D01*
X86776411Y-59306855D01*
X86973965Y-59214735D01*
X86973970Y-59214732D01*
X86978952Y-59212409D01*
X87166517Y-59081074D01*
X87328427Y-58919164D01*
X87459762Y-58731598D01*
X87462085Y-58726616D01*
X87462088Y-58726611D01*
X87554208Y-58529058D01*
X87554209Y-58529057D01*
X87556531Y-58524076D01*
X87615794Y-58302903D01*
X87635751Y-58074799D01*
X87615794Y-57846695D01*
X87556531Y-57625522D01*
X87541879Y-57594101D01*
X87462088Y-57422987D01*
X87462085Y-57422982D01*
X87459762Y-57418000D01*
X87328427Y-57230434D01*
X87166517Y-57068524D01*
X86978952Y-56937189D01*
X86973970Y-56934866D01*
X86973965Y-56934863D01*
X86776411Y-56842743D01*
X86776410Y-56842743D01*
X86771429Y-56840420D01*
X86766121Y-56838998D01*
X86766119Y-56838997D01*
X86555571Y-56782581D01*
X86555569Y-56782581D01*
X86550256Y-56781157D01*
X86322152Y-56761200D01*
X86094048Y-56781157D01*
X86088735Y-56782581D01*
X86088733Y-56782581D01*
X85878185Y-56838997D01*
X85878183Y-56838998D01*
X85872875Y-56840420D01*
X85867894Y-56842742D01*
X85867893Y-56842743D01*
X85670340Y-56934863D01*
X85670335Y-56934866D01*
X85665353Y-56937189D01*
X85660846Y-56940345D01*
X85660844Y-56940346D01*
X85482298Y-57065365D01*
X85482295Y-57065367D01*
X85477787Y-57068524D01*
X85315877Y-57230434D01*
X85184542Y-57418000D01*
X85182219Y-57422982D01*
X85182216Y-57422987D01*
X85136347Y-57521355D01*
X85089430Y-57574640D01*
X85021153Y-57594101D01*
X84953193Y-57573559D01*
X84907957Y-57521355D01*
X84862088Y-57422987D01*
X84862085Y-57422982D01*
X84859762Y-57418000D01*
X84728427Y-57230434D01*
X84566517Y-57068524D01*
X84378952Y-56937189D01*
X84373970Y-56934866D01*
X84373965Y-56934863D01*
X84176411Y-56842743D01*
X84176410Y-56842743D01*
X84171429Y-56840420D01*
X84166121Y-56838998D01*
X84166119Y-56838997D01*
X83955571Y-56782581D01*
X83955569Y-56782581D01*
X83950256Y-56781157D01*
X83722152Y-56761200D01*
X83494048Y-56781157D01*
X83488735Y-56782581D01*
X83488733Y-56782581D01*
X83278185Y-56838997D01*
X83278183Y-56838998D01*
X83272875Y-56840420D01*
X83267894Y-56842742D01*
X83267893Y-56842743D01*
X83070340Y-56934863D01*
X83070335Y-56934866D01*
X83065353Y-56937189D01*
X83060846Y-56940345D01*
X83060844Y-56940346D01*
X82882298Y-57065365D01*
X82882295Y-57065367D01*
X82877787Y-57068524D01*
X82715877Y-57230434D01*
X82584542Y-57418000D01*
X82582219Y-57422982D01*
X82582216Y-57422987D01*
X82502425Y-57594101D01*
X82487773Y-57625522D01*
X82428510Y-57846695D01*
X82408553Y-58074799D01*
X75018500Y-58074799D01*
X75018500Y-52194500D01*
X75038502Y-52126379D01*
X75092158Y-52079886D01*
X75144500Y-52068500D01*
X115805500Y-52068500D01*
X115873621Y-52088502D01*
G37*
%TD.AperFunction*%
%TD*%
M02*
