M48
; DRILL file {KiCad (6.0.6)} date Thu Jan 26 13:55:39 2023
; FORMAT={-:-/ absolute / inch / decimal}
; #@! TF.CreationDate,2023-01-26T13:55:39-05:00
; #@! TF.GenerationSoftware,Kicad,Pcbnew,(6.0.6)
; #@! TF.FileFunction,Plated,1,2,PTH
FMAT,2
INCH
; #@! TA.AperFunction,Plated,PTH,ViaDrill
T1C0.0157
; #@! TA.AperFunction,Plated,PTH,ComponentDrill
T2C0.0315
; #@! TA.AperFunction,Plated,PTH,ComponentDrill
T3C0.0430
; #@! TA.AperFunction,Plated,PTH,ComponentDrill
T4C0.0510
%
G90
G05
T1
X3.8563Y-4.0634
X3.8661Y-3.8827
T2
X4.1823Y-3.6862
X4.1823Y-3.765
X4.1823Y-3.8437
X4.1823Y-3.9224
X4.1823Y-4.0012
X4.1823Y-4.0799
X4.1823Y-4.1587
X4.261Y-3.6862
X4.261Y-3.765
X4.261Y-3.8437
X4.261Y-3.9224
X4.261Y-4.0012
X4.261Y-4.0799
X4.261Y-4.1587
T3
X3.2961Y-2.2864
X3.2961Y-3.7628
X3.2961Y-4.0581
X3.2961Y-5.5344
X3.3985Y-2.2864
X3.3985Y-3.7628
X3.3985Y-4.0581
X3.3985Y-5.5344
T4
X3.2007Y-2.4439
X3.2007Y-3.6053
X3.2007Y-4.2155
X3.2007Y-5.377
X3.494Y-2.4439
X3.494Y-3.6053
X3.494Y-4.2155
X3.494Y-5.377
T0
M30
