%TF.GenerationSoftware,KiCad,Pcbnew,(6.0.6)*%
%TF.CreationDate,2023-01-26T13:55:41-05:00*%
%TF.ProjectId,TURFIO_RACK_Flex_PCB_Breakout,54555246-494f-45f5-9241-434b5f466c65,rev?*%
%TF.SameCoordinates,Original*%
%TF.FileFunction,Paste,Top*%
%TF.FilePolarity,Positive*%
%FSLAX46Y46*%
G04 Gerber Fmt 4.6, Leading zero omitted, Abs format (unit mm)*
G04 Created by KiCad (PCBNEW (6.0.6)) date 2023-01-26 13:55:41*
%MOMM*%
%LPD*%
G01*
G04 APERTURE LIST*
%TA.AperFunction,Profile*%
%ADD10C,0.100000*%
%TD*%
%ADD11R,1.905000X0.304800*%
G04 APERTURE END LIST*
D10*
X74510000Y-51560000D02*
X116440000Y-51560000D01*
X116440000Y-51560000D02*
X116440000Y-146520000D01*
X116440000Y-146520000D02*
X74510000Y-146520000D01*
X74510000Y-146520000D02*
X74510000Y-51560000D01*
D11*
%TO.C,J1*%
X82022150Y-64574799D03*
X82022150Y-65074801D03*
X82022150Y-65574800D03*
X82022150Y-66074799D03*
X82022150Y-66574800D03*
X82022150Y-67074799D03*
X82022150Y-67574801D03*
X82022150Y-68074800D03*
X82022150Y-68574799D03*
X82022150Y-69074800D03*
X82022150Y-69574799D03*
X82022150Y-70074801D03*
X82022150Y-70574800D03*
X82022150Y-71074799D03*
X82022150Y-71574800D03*
X82022150Y-72074799D03*
X82022150Y-72574801D03*
X82022150Y-73074800D03*
X82022150Y-73574799D03*
X82022150Y-74074800D03*
X82022150Y-74574799D03*
X82022150Y-75074801D03*
X82022150Y-75574800D03*
X82022150Y-76074799D03*
X82022150Y-76574800D03*
X82022150Y-77074800D03*
X82022150Y-77574798D03*
X82022150Y-78074800D03*
X82022150Y-78574799D03*
X82022150Y-79074801D03*
X82022150Y-79574800D03*
X82022150Y-80074799D03*
X82022150Y-80574800D03*
X82022150Y-81074799D03*
X82022150Y-81574801D03*
X82022150Y-82074800D03*
X82022150Y-82574799D03*
X82022150Y-83074800D03*
X82022150Y-83574799D03*
X82022150Y-84074801D03*
X82022150Y-84574800D03*
X82022150Y-85074799D03*
X82022150Y-85574800D03*
X82022150Y-86074799D03*
X82022150Y-86574801D03*
X82022150Y-87074800D03*
X82022150Y-87574799D03*
X82022150Y-88074800D03*
X82022150Y-88574799D03*
X82022150Y-89074801D03*
X88022154Y-64574799D03*
X88022154Y-65074801D03*
X88022154Y-65574800D03*
X88022154Y-66074799D03*
X88022154Y-66574800D03*
X88022154Y-67074799D03*
X88022154Y-67574801D03*
X88022154Y-68074800D03*
X88022154Y-68574799D03*
X88022154Y-69074800D03*
X88022154Y-69574799D03*
X88022154Y-70074801D03*
X88022154Y-70574800D03*
X88022154Y-71074799D03*
X88022154Y-71574800D03*
X88022154Y-72074799D03*
X88022154Y-72574801D03*
X88022154Y-73074800D03*
X88022154Y-73574799D03*
X88022154Y-74074800D03*
X88022154Y-74574799D03*
X88022154Y-75074801D03*
X88022154Y-75574800D03*
X88022154Y-76074799D03*
X88022154Y-76574800D03*
X88022154Y-77074800D03*
X88022154Y-77574798D03*
X88022154Y-78074800D03*
X88022154Y-78574799D03*
X88022154Y-79074801D03*
X88022154Y-79574800D03*
X88022154Y-80074799D03*
X88022154Y-80574800D03*
X88022154Y-81074799D03*
X88022154Y-81574801D03*
X88022154Y-82074800D03*
X88022154Y-82574799D03*
X88022154Y-83074800D03*
X88022154Y-83574799D03*
X88022154Y-84074801D03*
X88022154Y-84574800D03*
X88022154Y-85074799D03*
X88022154Y-85574800D03*
X88022154Y-86074799D03*
X88022154Y-86574801D03*
X88022154Y-87074800D03*
X88022154Y-87574799D03*
X88022154Y-88074800D03*
X88022154Y-88574799D03*
X88022154Y-89074801D03*
%TD*%
%TO.C,J2*%
X82022150Y-109574799D03*
X82022150Y-110074801D03*
X82022150Y-110574800D03*
X82022150Y-111074799D03*
X82022150Y-111574800D03*
X82022150Y-112074799D03*
X82022150Y-112574801D03*
X82022150Y-113074800D03*
X82022150Y-113574799D03*
X82022150Y-114074800D03*
X82022150Y-114574799D03*
X82022150Y-115074801D03*
X82022150Y-115574800D03*
X82022150Y-116074799D03*
X82022150Y-116574800D03*
X82022150Y-117074799D03*
X82022150Y-117574801D03*
X82022150Y-118074800D03*
X82022150Y-118574799D03*
X82022150Y-119074800D03*
X82022150Y-119574799D03*
X82022150Y-120074801D03*
X82022150Y-120574800D03*
X82022150Y-121074799D03*
X82022150Y-121574800D03*
X82022150Y-122074800D03*
X82022150Y-122574798D03*
X82022150Y-123074800D03*
X82022150Y-123574799D03*
X82022150Y-124074801D03*
X82022150Y-124574800D03*
X82022150Y-125074799D03*
X82022150Y-125574800D03*
X82022150Y-126074799D03*
X82022150Y-126574801D03*
X82022150Y-127074800D03*
X82022150Y-127574799D03*
X82022150Y-128074800D03*
X82022150Y-128574799D03*
X82022150Y-129074801D03*
X82022150Y-129574800D03*
X82022150Y-130074799D03*
X82022150Y-130574800D03*
X82022150Y-131074799D03*
X82022150Y-131574801D03*
X82022150Y-132074800D03*
X82022150Y-132574799D03*
X82022150Y-133074800D03*
X82022150Y-133574799D03*
X82022150Y-134074801D03*
X88022154Y-109574799D03*
X88022154Y-110074801D03*
X88022154Y-110574800D03*
X88022154Y-111074799D03*
X88022154Y-111574800D03*
X88022154Y-112074799D03*
X88022154Y-112574801D03*
X88022154Y-113074800D03*
X88022154Y-113574799D03*
X88022154Y-114074800D03*
X88022154Y-114574799D03*
X88022154Y-115074801D03*
X88022154Y-115574800D03*
X88022154Y-116074799D03*
X88022154Y-116574800D03*
X88022154Y-117074799D03*
X88022154Y-117574801D03*
X88022154Y-118074800D03*
X88022154Y-118574799D03*
X88022154Y-119074800D03*
X88022154Y-119574799D03*
X88022154Y-120074801D03*
X88022154Y-120574800D03*
X88022154Y-121074799D03*
X88022154Y-121574800D03*
X88022154Y-122074800D03*
X88022154Y-122574798D03*
X88022154Y-123074800D03*
X88022154Y-123574799D03*
X88022154Y-124074801D03*
X88022154Y-124574800D03*
X88022154Y-125074799D03*
X88022154Y-125574800D03*
X88022154Y-126074799D03*
X88022154Y-126574801D03*
X88022154Y-127074800D03*
X88022154Y-127574799D03*
X88022154Y-128074800D03*
X88022154Y-128574799D03*
X88022154Y-129074801D03*
X88022154Y-129574800D03*
X88022154Y-130074799D03*
X88022154Y-130574800D03*
X88022154Y-131074799D03*
X88022154Y-131574801D03*
X88022154Y-132074800D03*
X88022154Y-132574799D03*
X88022154Y-133074800D03*
X88022154Y-133574799D03*
X88022154Y-134074801D03*
%TD*%
M02*
