%TF.GenerationSoftware,KiCad,Pcbnew,(6.0.6)*%
%TF.CreationDate,2023-01-26T13:55:41-05:00*%
%TF.ProjectId,TURFIO_RACK_Flex_PCB_Breakout,54555246-494f-45f5-9241-434b5f466c65,rev?*%
%TF.SameCoordinates,Original*%
%TF.FileFunction,Legend,Bot*%
%TF.FilePolarity,Positive*%
%FSLAX46Y46*%
G04 Gerber Fmt 4.6, Leading zero omitted, Abs format (unit mm)*
G04 Created by KiCad (PCBNEW (6.0.6)) date 2023-01-26 13:55:41*
%MOMM*%
%LPD*%
G01*
G04 APERTURE LIST*
%TA.AperFunction,Profile*%
%ADD10C,0.100000*%
%TD*%
%ADD11C,0.300000*%
%ADD12C,0.120000*%
G04 APERTURE END LIST*
D10*
X74510000Y-51560000D02*
X116440000Y-51560000D01*
X116440000Y-51560000D02*
X116440000Y-146520000D01*
X116440000Y-146520000D02*
X74510000Y-146520000D01*
X74510000Y-146520000D02*
X74510000Y-51560000D01*
D11*
%TO.C,John Beacom*%
X114845085Y-133185628D02*
X114845085Y-134274200D01*
X114917657Y-134491914D01*
X115062800Y-134637057D01*
X115280514Y-134709628D01*
X115425657Y-134709628D01*
X113901657Y-134709628D02*
X114046800Y-134637057D01*
X114119371Y-134564485D01*
X114191942Y-134419342D01*
X114191942Y-133983914D01*
X114119371Y-133838771D01*
X114046800Y-133766200D01*
X113901657Y-133693628D01*
X113683942Y-133693628D01*
X113538800Y-133766200D01*
X113466228Y-133838771D01*
X113393657Y-133983914D01*
X113393657Y-134419342D01*
X113466228Y-134564485D01*
X113538800Y-134637057D01*
X113683942Y-134709628D01*
X113901657Y-134709628D01*
X112740514Y-134709628D02*
X112740514Y-133185628D01*
X112087371Y-134709628D02*
X112087371Y-133911342D01*
X112159942Y-133766200D01*
X112305085Y-133693628D01*
X112522800Y-133693628D01*
X112667942Y-133766200D01*
X112740514Y-133838771D01*
X111361657Y-133693628D02*
X111361657Y-134709628D01*
X111361657Y-133838771D02*
X111289085Y-133766200D01*
X111143942Y-133693628D01*
X110926228Y-133693628D01*
X110781085Y-133766200D01*
X110708514Y-133911342D01*
X110708514Y-134709628D01*
X108313657Y-133911342D02*
X108095942Y-133983914D01*
X108023371Y-134056485D01*
X107950800Y-134201628D01*
X107950800Y-134419342D01*
X108023371Y-134564485D01*
X108095942Y-134637057D01*
X108241085Y-134709628D01*
X108821657Y-134709628D01*
X108821657Y-133185628D01*
X108313657Y-133185628D01*
X108168514Y-133258200D01*
X108095942Y-133330771D01*
X108023371Y-133475914D01*
X108023371Y-133621057D01*
X108095942Y-133766200D01*
X108168514Y-133838771D01*
X108313657Y-133911342D01*
X108821657Y-133911342D01*
X106717085Y-134637057D02*
X106862228Y-134709628D01*
X107152514Y-134709628D01*
X107297657Y-134637057D01*
X107370228Y-134491914D01*
X107370228Y-133911342D01*
X107297657Y-133766200D01*
X107152514Y-133693628D01*
X106862228Y-133693628D01*
X106717085Y-133766200D01*
X106644514Y-133911342D01*
X106644514Y-134056485D01*
X107370228Y-134201628D01*
X105338228Y-134709628D02*
X105338228Y-133911342D01*
X105410800Y-133766200D01*
X105555942Y-133693628D01*
X105846228Y-133693628D01*
X105991371Y-133766200D01*
X105338228Y-134637057D02*
X105483371Y-134709628D01*
X105846228Y-134709628D01*
X105991371Y-134637057D01*
X106063942Y-134491914D01*
X106063942Y-134346771D01*
X105991371Y-134201628D01*
X105846228Y-134129057D01*
X105483371Y-134129057D01*
X105338228Y-134056485D01*
X103959371Y-134637057D02*
X104104514Y-134709628D01*
X104394800Y-134709628D01*
X104539942Y-134637057D01*
X104612514Y-134564485D01*
X104685085Y-134419342D01*
X104685085Y-133983914D01*
X104612514Y-133838771D01*
X104539942Y-133766200D01*
X104394800Y-133693628D01*
X104104514Y-133693628D01*
X103959371Y-133766200D01*
X103088514Y-134709628D02*
X103233657Y-134637057D01*
X103306228Y-134564485D01*
X103378800Y-134419342D01*
X103378800Y-133983914D01*
X103306228Y-133838771D01*
X103233657Y-133766200D01*
X103088514Y-133693628D01*
X102870800Y-133693628D01*
X102725657Y-133766200D01*
X102653085Y-133838771D01*
X102580514Y-133983914D01*
X102580514Y-134419342D01*
X102653085Y-134564485D01*
X102725657Y-134637057D01*
X102870800Y-134709628D01*
X103088514Y-134709628D01*
X101927371Y-134709628D02*
X101927371Y-133693628D01*
X101927371Y-133838771D02*
X101854800Y-133766200D01*
X101709657Y-133693628D01*
X101491942Y-133693628D01*
X101346800Y-133766200D01*
X101274228Y-133911342D01*
X101274228Y-134709628D01*
X101274228Y-133911342D02*
X101201657Y-133766200D01*
X101056514Y-133693628D01*
X100838800Y-133693628D01*
X100693657Y-133766200D01*
X100621085Y-133911342D01*
X100621085Y-134709628D01*
G36*
X108586487Y-125143243D02*
G01*
X108537452Y-125192278D01*
X108488417Y-125143243D01*
X108537452Y-125094208D01*
X108586487Y-125143243D01*
G37*
G36*
X104859846Y-118964865D02*
G01*
X104810811Y-119013899D01*
X104761776Y-118964865D01*
X104810811Y-118915830D01*
X104859846Y-118964865D01*
G37*
G36*
X111089594Y-131506086D02*
G01*
X111179692Y-131631627D01*
X111122667Y-131657441D01*
X110942995Y-131570626D01*
X110875967Y-131511287D01*
X110864773Y-131413348D01*
X110941908Y-131407390D01*
X111089594Y-131506086D01*
G37*
G36*
X103244532Y-128727832D02*
G01*
X103241699Y-128725103D01*
X103249581Y-128725088D01*
X103244532Y-128727832D01*
G37*
G36*
X111847272Y-131282547D02*
G01*
X112010135Y-131445756D01*
X112216325Y-131720341D01*
X112313128Y-132061768D01*
X112314989Y-132113973D01*
X112391536Y-132345878D01*
X112551615Y-132433251D01*
X112755689Y-132350315D01*
X112767477Y-132340636D01*
X112875353Y-132284373D01*
X112901544Y-132388378D01*
X112891859Y-132445116D01*
X112783140Y-132524653D01*
X112521901Y-132547490D01*
X112328365Y-132543038D01*
X112191032Y-132497357D01*
X112124276Y-132359415D01*
X112079992Y-132078113D01*
X112058208Y-131946521D01*
X111970421Y-131613322D01*
X111862434Y-131367109D01*
X111806180Y-131267414D01*
X111847272Y-131282547D01*
G37*
G36*
X103094595Y-131861004D02*
G01*
X103087517Y-131912921D01*
X103029215Y-131926383D01*
X103017478Y-131912010D01*
X103029215Y-131795624D01*
X103058713Y-131780281D01*
X103094595Y-131861004D01*
G37*
G36*
X105293383Y-118433183D02*
G01*
X105301158Y-118523552D01*
X105281030Y-118552901D01*
X105197301Y-118621621D01*
X105187514Y-118619072D01*
X105154054Y-118523552D01*
X105158045Y-118496672D01*
X105257911Y-118425482D01*
X105293383Y-118433183D01*
G37*
G36*
X112343994Y-121787957D02*
G01*
X112333517Y-121882032D01*
X112328400Y-122128676D01*
X112378665Y-122283031D01*
X112496569Y-122409180D01*
X112663535Y-122657645D01*
X112666461Y-122691506D01*
X112691179Y-122977572D01*
X112662788Y-123044990D01*
X112561420Y-123285696D01*
X112519211Y-123360039D01*
X112442270Y-123678350D01*
X112414316Y-124165121D01*
X112410299Y-124402697D01*
X112365013Y-125139709D01*
X112286747Y-125779132D01*
X112276608Y-125861965D01*
X112153713Y-126509255D01*
X112069047Y-126800728D01*
X112004956Y-127021372D01*
X111877950Y-127296362D01*
X111632415Y-127703263D01*
X111358784Y-128061834D01*
X111136006Y-128327993D01*
X110797980Y-128847021D01*
X110775024Y-128909770D01*
X110609661Y-129361785D01*
X110550030Y-129920596D01*
X110555660Y-130228245D01*
X110597089Y-130432211D01*
X110705980Y-130575966D01*
X110913885Y-130729669D01*
X111016683Y-130796545D01*
X111250220Y-130926680D01*
X111398445Y-130978378D01*
X111434236Y-130982339D01*
X111577423Y-131076151D01*
X111585601Y-131110884D01*
X111497892Y-131114114D01*
X111312489Y-131047303D01*
X111076906Y-130929511D01*
X110838655Y-130779797D01*
X110660258Y-130662192D01*
X110480601Y-130604948D01*
X110377686Y-130709158D01*
X110312125Y-130990589D01*
X110300026Y-131057752D01*
X110284960Y-131115557D01*
X110201189Y-131436969D01*
X110068870Y-131799662D01*
X110024400Y-131901425D01*
X109906128Y-132181570D01*
X109829886Y-132375869D01*
X109788204Y-132468665D01*
X109713065Y-132547490D01*
X109687315Y-132520479D01*
X109685469Y-132375869D01*
X109679789Y-132273457D01*
X109567182Y-132244458D01*
X109207387Y-132324314D01*
X108935302Y-132313525D01*
X108705265Y-132184369D01*
X108446364Y-131916071D01*
X108262445Y-131719900D01*
X108049982Y-131535547D01*
X107906982Y-131461558D01*
X107724043Y-131409619D01*
X107544455Y-131318305D01*
X108999417Y-131318305D01*
X109081846Y-131368677D01*
X109211644Y-131332059D01*
X109311172Y-131216427D01*
X109323156Y-131115557D01*
X109207204Y-131093840D01*
X109124403Y-131123878D01*
X109003236Y-131248069D01*
X108999417Y-131318305D01*
X107544455Y-131318305D01*
X107488662Y-131289936D01*
X107271324Y-131156396D01*
X106954041Y-130963468D01*
X106606036Y-130753249D01*
X106277781Y-130540455D01*
X105852988Y-130232744D01*
X105497297Y-129942436D01*
X105431840Y-129884755D01*
X105021371Y-129572612D01*
X104702917Y-129427536D01*
X104479445Y-129450961D01*
X104473365Y-129454431D01*
X104429520Y-129412445D01*
X104471029Y-129201057D01*
X104475207Y-129186192D01*
X104519122Y-128951187D01*
X104507973Y-128806887D01*
X104415238Y-128768253D01*
X104175147Y-128735920D01*
X103848846Y-128723941D01*
X103249581Y-128725088D01*
X103393647Y-128646806D01*
X103890649Y-128546640D01*
X104516602Y-128477606D01*
X104583473Y-127938224D01*
X104588198Y-127897288D01*
X104591370Y-127850831D01*
X105570322Y-127850831D01*
X105603935Y-127908915D01*
X105730212Y-127962741D01*
X105768381Y-127960345D01*
X105840541Y-128036293D01*
X105843219Y-128059591D01*
X105933857Y-128134363D01*
X105983270Y-128158835D01*
X106154406Y-128294185D01*
X106406793Y-128521447D01*
X106705781Y-128810283D01*
X106986842Y-129081565D01*
X107303416Y-129343306D01*
X107594349Y-129506364D01*
X107917322Y-129600792D01*
X108330012Y-129656648D01*
X108466682Y-129670439D01*
X108806020Y-129706218D01*
X109174904Y-129746464D01*
X109363395Y-129759746D01*
X109725425Y-129731116D01*
X109968603Y-129630112D01*
X110057529Y-129467906D01*
X110112597Y-129362475D01*
X110253668Y-129190535D01*
X110389490Y-129025065D01*
X110449807Y-128909770D01*
X110448907Y-128906222D01*
X110342957Y-128876519D01*
X110095139Y-128862032D01*
X109754634Y-128865867D01*
X109699709Y-128867733D01*
X109393996Y-128868440D01*
X109206630Y-128851492D01*
X109176338Y-128819963D01*
X109190584Y-128808001D01*
X109130275Y-128780649D01*
X108909874Y-128780691D01*
X108556217Y-128807154D01*
X108096139Y-128859067D01*
X108027600Y-128865475D01*
X107836017Y-128851383D01*
X107612398Y-128776341D01*
X107313959Y-128623035D01*
X106897914Y-128374149D01*
X106518888Y-128147394D01*
X110866114Y-128147394D01*
X110881685Y-128232432D01*
X110972023Y-128176200D01*
X111115224Y-128002317D01*
X111257981Y-127776127D01*
X111358433Y-127565163D01*
X111374722Y-127436962D01*
X111350148Y-127384167D01*
X111399189Y-127379489D01*
X111476710Y-127350081D01*
X111594479Y-127201610D01*
X111708545Y-126995900D01*
X111782002Y-126800728D01*
X111777949Y-126683869D01*
X111756537Y-126672667D01*
X111724711Y-126750833D01*
X111711903Y-126798282D01*
X111611488Y-126801060D01*
X111556605Y-126777189D01*
X111568355Y-126844490D01*
X111562580Y-126908494D01*
X111559402Y-126943708D01*
X111393331Y-127051088D01*
X111382140Y-127055598D01*
X111358541Y-127065108D01*
X111144121Y-127212467D01*
X111070306Y-127341512D01*
X111000408Y-127463709D01*
X110899584Y-127864672D01*
X110887624Y-127936041D01*
X110866114Y-128147394D01*
X106518888Y-128147394D01*
X106504177Y-128138593D01*
X106069177Y-127904893D01*
X105761934Y-127776430D01*
X105592348Y-127757109D01*
X105570322Y-127850831D01*
X104591370Y-127850831D01*
X104614523Y-127511695D01*
X104614856Y-127496911D01*
X106330888Y-127496911D01*
X106379923Y-127545946D01*
X106428958Y-127496911D01*
X106379923Y-127447876D01*
X106330888Y-127496911D01*
X104614856Y-127496911D01*
X104618129Y-127351627D01*
X108941473Y-127351627D01*
X108971553Y-127375095D01*
X109184117Y-127452757D01*
X109466762Y-127496911D01*
X109478444Y-127498736D01*
X109765024Y-127503630D01*
X109954345Y-127458035D01*
X110003211Y-127419330D01*
X110004977Y-127341512D01*
X109839263Y-127246153D01*
X109792461Y-127228104D01*
X109570936Y-127188531D01*
X109318375Y-127187758D01*
X109091478Y-127219123D01*
X108946945Y-127275967D01*
X108941473Y-127351627D01*
X104618129Y-127351627D01*
X104624799Y-127055598D01*
X106821236Y-127055598D01*
X106835635Y-127169425D01*
X106898290Y-127251737D01*
X106943008Y-127215083D01*
X106975345Y-127055598D01*
X106960945Y-126941772D01*
X106898290Y-126859459D01*
X106853573Y-126896113D01*
X106821236Y-127055598D01*
X104624799Y-127055598D01*
X104625228Y-127036577D01*
X104621714Y-126808453D01*
X106646049Y-126808453D01*
X106657786Y-126924839D01*
X106687284Y-126940182D01*
X106723166Y-126859459D01*
X106716089Y-126807542D01*
X106657786Y-126794080D01*
X106646049Y-126808453D01*
X104621714Y-126808453D01*
X104617967Y-126565251D01*
X104600605Y-126179953D01*
X104574586Y-125919330D01*
X104526516Y-125770257D01*
X104441820Y-125689168D01*
X104305923Y-125632495D01*
X104285811Y-125625117D01*
X106733649Y-125625117D01*
X106840301Y-125658108D01*
X106907102Y-125681902D01*
X106999910Y-125857388D01*
X107068900Y-126170062D01*
X107103841Y-126583980D01*
X107113391Y-126698172D01*
X107161957Y-126899350D01*
X107228130Y-127018354D01*
X107286482Y-127020189D01*
X107305132Y-126908494D01*
X111332433Y-126908494D01*
X111381467Y-126957529D01*
X111430502Y-126908494D01*
X111381467Y-126859459D01*
X111332433Y-126908494D01*
X107305132Y-126908494D01*
X107311583Y-126869862D01*
X107336386Y-126691027D01*
X107421699Y-126430872D01*
X107531814Y-126189195D01*
X107911987Y-126464590D01*
X107923457Y-126472886D01*
X108109708Y-126597488D01*
X108283113Y-126674701D01*
X108495885Y-126714620D01*
X108800241Y-126727339D01*
X109248396Y-126722954D01*
X109720388Y-126700271D01*
X110269163Y-126628734D01*
X110686141Y-126516175D01*
X110940155Y-126369112D01*
X110974197Y-126348617D01*
X111136294Y-126320077D01*
X111205904Y-126301443D01*
X111273426Y-126170348D01*
X111285204Y-126081558D01*
X111392948Y-125899653D01*
X111457887Y-125854098D01*
X111537983Y-125893587D01*
X111614732Y-126098417D01*
X111707021Y-126418147D01*
X111727242Y-126074903D01*
X111732343Y-126008241D01*
X111759373Y-125873179D01*
X111792544Y-125904482D01*
X111803443Y-125939072D01*
X111888141Y-126026057D01*
X111977472Y-125963050D01*
X112018919Y-125779132D01*
X111985189Y-125681356D01*
X111823415Y-125449314D01*
X111548311Y-125134904D01*
X111182493Y-124763395D01*
X110748582Y-124360053D01*
X110530302Y-124165279D01*
X110596590Y-124518623D01*
X110602209Y-124548906D01*
X110626470Y-124769930D01*
X110565767Y-124873217D01*
X110385765Y-124924941D01*
X110159606Y-124937476D01*
X109941938Y-124888692D01*
X109843446Y-124852357D01*
X109714227Y-124898164D01*
X109631621Y-124947270D01*
X109438584Y-124943104D01*
X109267754Y-124909409D01*
X108978765Y-124876359D01*
X108816218Y-124854675D01*
X108572351Y-124726157D01*
X108488417Y-124493783D01*
X108462554Y-124390613D01*
X108327537Y-124309652D01*
X108246028Y-124318466D01*
X107952842Y-124419410D01*
X107605539Y-124603362D01*
X107587270Y-124615823D01*
X107269044Y-124832877D01*
X107008286Y-125070509D01*
X106889761Y-125222695D01*
X106862763Y-125257361D01*
X106744575Y-125479506D01*
X106733649Y-125625117D01*
X104285811Y-125625117D01*
X104103934Y-125558396D01*
X103921021Y-125470805D01*
X103906121Y-125458802D01*
X104406909Y-125458802D01*
X104530627Y-125478744D01*
X104666220Y-125452265D01*
X104802564Y-125325511D01*
X104824386Y-125222695D01*
X104739504Y-125263308D01*
X104681518Y-125304592D01*
X104467568Y-125416541D01*
X104406909Y-125458802D01*
X103906121Y-125458802D01*
X103773401Y-125351888D01*
X103628584Y-125166532D01*
X103454082Y-124879621D01*
X103217405Y-124456043D01*
X103128841Y-124241975D01*
X103064711Y-123966409D01*
X103388803Y-123966409D01*
X103437838Y-124015444D01*
X103443650Y-124009632D01*
X103785903Y-124009632D01*
X103861403Y-124267550D01*
X104129930Y-124496104D01*
X104284174Y-124585809D01*
X104467726Y-124679615D01*
X104547955Y-124685885D01*
X104565637Y-124615823D01*
X104514454Y-124525661D01*
X104355595Y-124390252D01*
X104282254Y-124339953D01*
X104201183Y-124248317D01*
X104215512Y-124118825D01*
X104320450Y-123882219D01*
X104372073Y-123766771D01*
X104434567Y-123538443D01*
X104385935Y-123404235D01*
X104350257Y-123377254D01*
X104220458Y-123392105D01*
X104028801Y-123562116D01*
X103939621Y-123672201D01*
X103902907Y-123717521D01*
X103803216Y-123966409D01*
X103785903Y-124009632D01*
X103443650Y-124009632D01*
X103486873Y-123966409D01*
X103437838Y-123917374D01*
X103388803Y-123966409D01*
X103064711Y-123966409D01*
X103035153Y-123839399D01*
X103016917Y-123672201D01*
X103290734Y-123672201D01*
X103339768Y-123721235D01*
X103388803Y-123672201D01*
X103339768Y-123623166D01*
X103290734Y-123672201D01*
X103016917Y-123672201D01*
X102986317Y-123391635D01*
X102989432Y-122975294D01*
X103028537Y-122781361D01*
X106542818Y-122781361D01*
X106588313Y-122975752D01*
X106813935Y-123212667D01*
X107213514Y-123466755D01*
X107411594Y-123562230D01*
X107728846Y-123666238D01*
X107949035Y-123671509D01*
X107967047Y-123666203D01*
X108149324Y-123626053D01*
X108414865Y-123577719D01*
X108632888Y-123527483D01*
X108756715Y-123432208D01*
X108789518Y-123250961D01*
X108795019Y-123127540D01*
X108817833Y-123067258D01*
X108872273Y-123179913D01*
X108881918Y-123203890D01*
X108938319Y-123286998D01*
X109006936Y-123230717D01*
X109118993Y-123014056D01*
X109168731Y-122848445D01*
X109955131Y-122848445D01*
X110026892Y-123156336D01*
X110217716Y-123443387D01*
X110511707Y-123658585D01*
X110761792Y-123760794D01*
X111072786Y-123804157D01*
X111381467Y-123721235D01*
X111483157Y-123672474D01*
X111490328Y-123636878D01*
X111358543Y-123608609D01*
X111059638Y-123574856D01*
X110905169Y-123545616D01*
X110757650Y-123460930D01*
X110770045Y-123363958D01*
X110955686Y-123291090D01*
X111080450Y-123261848D01*
X111312621Y-123192277D01*
X111454672Y-123166271D01*
X111687856Y-123240997D01*
X111825652Y-123313806D01*
X111926822Y-123224582D01*
X111962627Y-123166311D01*
X112004490Y-123044990D01*
X111936282Y-122940795D01*
X111730207Y-122792661D01*
X111610060Y-122705491D01*
X111599096Y-122691506D01*
X111920850Y-122691506D01*
X111969884Y-122740540D01*
X112018919Y-122691506D01*
X111969884Y-122642471D01*
X111920850Y-122691506D01*
X111599096Y-122691506D01*
X111511761Y-122580112D01*
X111555166Y-122463322D01*
X111561335Y-122455750D01*
X111605144Y-122323997D01*
X111481608Y-122190546D01*
X111351208Y-122115205D01*
X110984999Y-122054611D01*
X110569567Y-122163472D01*
X110131081Y-122437014D01*
X110018329Y-122570728D01*
X110002530Y-122640153D01*
X109955131Y-122848445D01*
X109168731Y-122848445D01*
X109231288Y-122640153D01*
X109169542Y-122336129D01*
X108927720Y-122092753D01*
X108776812Y-122021902D01*
X108507156Y-121941331D01*
X108198259Y-121876876D01*
X107907088Y-121837949D01*
X107690610Y-121833963D01*
X107605792Y-121874330D01*
X107579856Y-121917585D01*
X107434170Y-121957486D01*
X107347805Y-121971284D01*
X107367771Y-122031038D01*
X107423641Y-122083307D01*
X107532615Y-122265068D01*
X107545617Y-122336395D01*
X107540588Y-122342579D01*
X107468746Y-122430925D01*
X107417030Y-122446332D01*
X107231253Y-122501678D01*
X107188657Y-122510342D01*
X106914280Y-122560039D01*
X106724770Y-122584873D01*
X106637283Y-122621889D01*
X106542818Y-122781361D01*
X103028537Y-122781361D01*
X103051599Y-122666988D01*
X103067518Y-122629847D01*
X103171495Y-122446332D01*
X103388803Y-122446332D01*
X103428254Y-122504390D01*
X103590730Y-122544401D01*
X103702019Y-122523522D01*
X103732046Y-122446332D01*
X104418533Y-122446332D01*
X104438574Y-122472835D01*
X104577213Y-122544401D01*
X104610189Y-122536846D01*
X104614672Y-122446332D01*
X104594631Y-122419829D01*
X104455992Y-122348262D01*
X104423016Y-122355818D01*
X104418533Y-122446332D01*
X103732046Y-122446332D01*
X103697088Y-122408031D01*
X103530120Y-122348262D01*
X103467816Y-122358371D01*
X103388803Y-122446332D01*
X103171495Y-122446332D01*
X103180853Y-122429816D01*
X103277731Y-122348262D01*
X103355246Y-122322736D01*
X103458847Y-122206946D01*
X103977220Y-122206946D01*
X103989933Y-122277312D01*
X104066914Y-122304404D01*
X104094170Y-122291702D01*
X104197945Y-122323134D01*
X104213564Y-122342579D01*
X104206321Y-122266689D01*
X104193980Y-122214792D01*
X104173359Y-122095068D01*
X104170817Y-122085799D01*
X104075290Y-122054054D01*
X104028422Y-122072766D01*
X103977220Y-122206946D01*
X103458847Y-122206946D01*
X103506790Y-122153362D01*
X103623420Y-121912737D01*
X104173359Y-121912737D01*
X104174314Y-121926447D01*
X104231083Y-121948044D01*
X104329828Y-121842762D01*
X104353690Y-121787957D01*
X104286581Y-121799515D01*
X104243016Y-121829789D01*
X104173359Y-121912737D01*
X103623420Y-121912737D01*
X103643725Y-121870844D01*
X103742880Y-121528908D01*
X103766215Y-121316562D01*
X104488520Y-121316562D01*
X104500257Y-121432947D01*
X104529755Y-121448290D01*
X104565637Y-121367567D01*
X104558560Y-121315650D01*
X104500257Y-121302188D01*
X104488520Y-121316562D01*
X103766215Y-121316562D01*
X103781081Y-121181277D01*
X103797210Y-120909012D01*
X103925433Y-120281405D01*
X104159624Y-119641351D01*
X104473290Y-119069667D01*
X104599628Y-118886712D01*
X104740396Y-118695707D01*
X104808326Y-118621621D01*
X104790214Y-118683239D01*
X104699306Y-118874287D01*
X104554966Y-119149690D01*
X104434585Y-119400428D01*
X104292562Y-119778370D01*
X104184031Y-120159021D01*
X104119494Y-120496448D01*
X104109452Y-120744716D01*
X104164408Y-120857891D01*
X104216593Y-120895945D01*
X104272930Y-121057014D01*
X104273270Y-121079494D01*
X104293271Y-121165984D01*
X104369498Y-121073359D01*
X104443574Y-120933647D01*
X104453351Y-120820669D01*
X104356775Y-120836048D01*
X104300827Y-120854984D01*
X104291396Y-120768284D01*
X104323132Y-120711197D01*
X104475740Y-120629947D01*
X104570940Y-120564316D01*
X104587339Y-120335739D01*
X104585094Y-120309871D01*
X104590327Y-120148255D01*
X104643881Y-120168999D01*
X104663692Y-120194070D01*
X104750043Y-120195702D01*
X104860355Y-120021895D01*
X104860842Y-120020895D01*
X104958291Y-119814667D01*
X105006950Y-119700386D01*
X105044649Y-119603695D01*
X105129748Y-119406177D01*
X105131014Y-119403317D01*
X105252808Y-119071492D01*
X105349627Y-118710976D01*
X105393571Y-118425482D01*
X105429540Y-118289331D01*
X105435582Y-118278378D01*
X105546332Y-118278378D01*
X105595367Y-118327413D01*
X105644402Y-118278378D01*
X105595367Y-118229343D01*
X105546332Y-118278378D01*
X105435582Y-118278378D01*
X105546332Y-118077600D01*
X105622651Y-117996017D01*
X105861319Y-117815718D01*
X106162195Y-117636696D01*
X106453618Y-117499527D01*
X106663926Y-117444787D01*
X106665545Y-117444773D01*
X106831128Y-117386378D01*
X107044135Y-117248648D01*
X107056360Y-117239153D01*
X107187691Y-117157083D01*
X107352594Y-117103581D01*
X107591681Y-117073225D01*
X107945562Y-117060589D01*
X108454851Y-117060252D01*
X108476111Y-117060402D01*
X108909339Y-117067509D01*
X109245308Y-117080597D01*
X109451058Y-117097852D01*
X109493629Y-117117459D01*
X109485654Y-117120761D01*
X109373240Y-117217896D01*
X109428060Y-117307414D01*
X109625595Y-117346718D01*
X109870661Y-117394424D01*
X110140460Y-117521874D01*
X110381021Y-117672007D01*
X110681665Y-117838649D01*
X110697401Y-117846734D01*
X111087846Y-118133705D01*
X111217536Y-118278378D01*
X111476171Y-118566892D01*
X111827684Y-119101214D01*
X112107689Y-119691591D01*
X112163792Y-119839597D01*
X112320137Y-120315043D01*
X112397345Y-120723702D01*
X112405932Y-121149505D01*
X112385440Y-121367567D01*
X112356419Y-121676381D01*
X112343994Y-121787957D01*
G37*
G36*
X106428958Y-131517760D02*
G01*
X106379923Y-131566795D01*
X106330888Y-131517760D01*
X106379923Y-131468726D01*
X106428958Y-131517760D01*
G37*
G36*
X110744016Y-131321621D02*
G01*
X110694981Y-131370656D01*
X110645946Y-131321621D01*
X110694981Y-131272587D01*
X110744016Y-131321621D01*
G37*
G36*
X110614061Y-125346251D02*
G01*
X110687632Y-125478243D01*
X110744016Y-125701369D01*
X110740553Y-125746558D01*
X110682836Y-125829829D01*
X110519130Y-125868986D01*
X110204633Y-125878764D01*
X109982700Y-125870961D01*
X109753935Y-125839151D01*
X109665251Y-125791187D01*
X109737334Y-125682385D01*
X109892357Y-125639652D01*
X110017910Y-125697860D01*
X110033642Y-125712980D01*
X110137543Y-125669546D01*
X110283374Y-125485562D01*
X110314002Y-125437495D01*
X110437320Y-125268676D01*
X110520905Y-125245185D01*
X110614061Y-125346251D01*
G37*
G36*
X105114384Y-118312260D02*
G01*
X105101355Y-118332224D01*
X105004457Y-118422543D01*
X104957915Y-118382235D01*
X104966681Y-118360177D01*
X105071137Y-118269013D01*
X105125943Y-118245152D01*
X105114384Y-118312260D01*
G37*
G36*
X103711539Y-129177589D02*
G01*
X103939636Y-129413530D01*
X104086840Y-129598063D01*
X104120749Y-129690705D01*
X104054393Y-129674760D01*
X103888985Y-129548261D01*
X103671884Y-129335127D01*
X103499646Y-129154981D01*
X103325423Y-128984690D01*
X103241289Y-128918919D01*
X103239831Y-128919061D01*
X103166351Y-129001069D01*
X103052618Y-129188610D01*
X102953419Y-129361183D01*
X102912054Y-129375490D01*
X102902382Y-129233544D01*
X102918770Y-129075943D01*
X103072336Y-128821399D01*
X103244532Y-128727832D01*
X103711539Y-129177589D01*
G37*
G36*
X103140117Y-130403070D02*
G01*
X103199474Y-130511662D01*
X103233597Y-130744430D01*
X103234233Y-130749863D01*
X103314909Y-130929122D01*
X103465816Y-131099003D01*
X103612150Y-131174517D01*
X103615776Y-131174366D01*
X103627707Y-131106969D01*
X103526590Y-130953861D01*
X103339768Y-130733204D01*
X103558112Y-130917933D01*
X103695641Y-131071763D01*
X103723481Y-131188376D01*
X103709450Y-131256018D01*
X103766163Y-131355382D01*
X103921037Y-131499237D01*
X104196423Y-131707989D01*
X104614672Y-132002046D01*
X104735381Y-132085568D01*
X105032315Y-132292086D01*
X105247893Y-132443581D01*
X105342021Y-132511945D01*
X105297126Y-132536432D01*
X105119000Y-132547490D01*
X105093965Y-132546459D01*
X104814837Y-132459883D01*
X104423566Y-132242301D01*
X103938846Y-131905391D01*
X103379374Y-131460831D01*
X103156110Y-131266077D01*
X102992047Y-131081157D01*
X102923395Y-130906938D01*
X102915206Y-130685010D01*
X102921998Y-130576764D01*
X102967944Y-130387609D01*
X103061280Y-130360529D01*
X103140117Y-130403070D01*
G37*
G36*
X105546332Y-132400386D02*
G01*
X105497297Y-132449421D01*
X105448263Y-132400386D01*
X105497297Y-132351351D01*
X105546332Y-132400386D01*
G37*
G36*
X103388803Y-132498455D02*
G01*
X103339768Y-132547490D01*
X103290734Y-132498455D01*
X103339768Y-132449421D01*
X103388803Y-132498455D01*
G37*
G36*
X107348810Y-123013462D02*
G01*
X107535589Y-123115250D01*
X107629771Y-123179621D01*
X107767090Y-123222715D01*
X107843841Y-123216671D01*
X108047104Y-123220776D01*
X108084551Y-123223669D01*
X108179936Y-123253303D01*
X108096139Y-123328721D01*
X108053504Y-123351107D01*
X107813753Y-123392512D01*
X107517247Y-123364743D01*
X107227197Y-123283955D01*
X107006813Y-123166303D01*
X106919305Y-123027943D01*
X106968800Y-122971156D01*
X107135225Y-122961938D01*
X107348810Y-123013462D01*
G37*
G36*
X108488199Y-126032340D02*
G01*
X108727616Y-126059865D01*
X109105550Y-126094157D01*
X109510554Y-126124008D01*
X109882253Y-126158832D01*
X110190693Y-126226727D01*
X110327412Y-126326206D01*
X110305406Y-126462808D01*
X110284296Y-126480757D01*
X110107649Y-126523657D01*
X109804687Y-126546007D01*
X109427563Y-126549316D01*
X109028428Y-126535098D01*
X108659435Y-126504862D01*
X108372734Y-126460121D01*
X108220477Y-126402385D01*
X108157187Y-126349150D01*
X107975303Y-126238230D01*
X107923627Y-126209165D01*
X107918542Y-126134565D01*
X108042178Y-126067688D01*
X108247681Y-126027344D01*
X108488199Y-126032340D01*
G37*
G36*
X104396926Y-129907952D02*
G01*
X104593298Y-130090326D01*
X104908880Y-130418085D01*
X104538451Y-130145173D01*
X104420431Y-130052970D01*
X104261200Y-129901356D01*
X104222868Y-129817415D01*
X104256654Y-129817025D01*
X104396926Y-129907952D01*
G37*
G36*
X108347050Y-124809368D02*
G01*
X108373682Y-124913974D01*
X108243266Y-125133174D01*
X108147825Y-125314324D01*
X108195892Y-125422710D01*
X108396889Y-125415122D01*
X108558356Y-125411253D01*
X108793310Y-125473995D01*
X108992681Y-125580452D01*
X109076834Y-125697546D01*
X109053513Y-125712133D01*
X108889692Y-125727523D01*
X108618088Y-125727091D01*
X108296852Y-125713729D01*
X107984134Y-125690327D01*
X107738083Y-125659775D01*
X107616849Y-125624965D01*
X107618087Y-125604839D01*
X107707386Y-125484814D01*
X107886540Y-125302921D01*
X107961675Y-125229463D01*
X108127897Y-125036337D01*
X108194209Y-124907758D01*
X108198620Y-124875866D01*
X108292278Y-124800000D01*
X108347050Y-124809368D01*
G37*
G36*
X104434878Y-132482111D02*
G01*
X104450220Y-132511608D01*
X104369498Y-132547490D01*
X104317580Y-132540413D01*
X104304119Y-132482111D01*
X104318492Y-132470374D01*
X104434878Y-132482111D01*
G37*
G36*
X103305261Y-131634132D02*
G01*
X103483239Y-131810491D01*
X103670702Y-132036942D01*
X103818916Y-132254405D01*
X103879151Y-132403798D01*
X103852537Y-132480059D01*
X103707529Y-132545179D01*
X103661555Y-132535320D01*
X103498347Y-132381953D01*
X103321501Y-132054831D01*
X103240409Y-131853613D01*
X103179262Y-131646914D01*
X103188755Y-131566795D01*
X103305261Y-131634132D01*
G37*
G36*
X103705690Y-129609174D02*
G01*
X103781081Y-129703475D01*
X103779957Y-129725669D01*
X103737834Y-129801544D01*
X103722103Y-129797031D01*
X103633977Y-129703475D01*
X103618653Y-129665486D01*
X103677224Y-129605405D01*
X103705690Y-129609174D01*
G37*
D12*
%TO.C,J1*%
X82403150Y-55425300D02*
G75*
G03*
X82403150Y-55425300I-381000J0D01*
G01*
%TO.C,J2*%
X82403150Y-100425300D02*
G75*
G03*
X82403150Y-100425300I-381000J0D01*
G01*
%TD*%
M02*
